<svg width="302" height="196" viewBox="0 0 302 196" fill="none" xmlns="http://www.w3.org/2000/svg">
<g filter="url(#filter0_b_0_2993)">
<rect x="0.659912" y="0.0473633" width="300.351" height="195.951" rx="11.9128" fill="#F97316"/>
</g>
<path d="M282.374 0.0473633H12.5696C5.99204 0.0473633 0.659912 5.3795 0.659912 11.957V184.997C0.659912 186.273 2.07746 187.04 3.14567 186.34L283.253 2.99739C284.589 2.12324 283.97 0.0473633 282.374 0.0473633Z" fill="#FA6803"/>
<path d="M256.376 99.9842C257.95 94.3518 257.324 88.3317 254.625 83.1438C251.925 77.956 247.354 73.9887 241.838 72.0459L240.421 76.5338C244.741 78.1061 248.314 81.2422 250.433 85.3221C252.553 89.402 253.064 94.1285 251.866 98.5672L256.376 99.9842Z" fill="white"/>
<path d="M244.868 114.162C246.64 113.247 248.283 112.102 249.754 110.756C252.546 108.197 254.665 104.989 255.922 101.416L251.434 99.999C250.385 102.906 248.618 105.5 246.298 107.541C243.977 109.581 241.178 111.002 238.161 111.671C235.144 112.34 232.007 112.235 229.042 111.366C226.076 110.497 223.378 108.892 221.199 106.701L217.73 109.881C221.2 113.404 225.709 115.721 230.594 116.492C235.478 117.263 240.482 116.446 244.868 114.162Z" fill="white"/>
<path opacity="0.7" d="M244.868 114.162C246.64 113.247 248.283 112.102 249.754 110.756C252.546 108.197 254.665 104.989 255.922 101.416L251.434 99.999C250.385 102.906 248.618 105.5 246.298 107.541C243.977 109.581 241.178 111.002 238.161 111.671C235.144 112.34 232.007 112.235 229.042 111.366C226.076 110.497 223.378 108.892 221.199 106.701L217.73 109.881C221.2 113.404 225.709 115.721 230.594 116.492C235.478 117.263 240.482 116.446 244.868 114.162Z" fill="white"/>
<path d="M220.165 105.592C217.646 102.607 216.148 98.8953 215.887 94.9985C215.626 91.1017 216.617 87.2234 218.714 83.9292C220.812 80.635 223.908 78.0971 227.549 76.6857C231.191 75.2742 235.188 75.0629 238.958 76.0826L240.375 71.5722C234.616 69.9591 228.455 70.6486 223.194 73.4949C217.934 76.3412 213.986 81.1212 212.185 86.8249C211.014 90.5608 210.812 94.533 211.597 98.3686C212.382 102.204 214.129 105.777 216.673 108.753L220.165 105.592Z" fill="white"/>
<path opacity="0.3" d="M220.165 105.592C217.646 102.607 216.148 98.8953 215.887 94.9985C215.626 91.1017 216.617 87.2234 218.714 83.9292C220.812 80.635 223.908 78.0971 227.549 76.6857C231.191 75.2742 235.188 75.0629 238.958 76.0826L240.375 71.5722C234.616 69.9591 228.455 70.6486 223.194 73.4949C217.934 76.3412 213.986 81.1212 212.185 86.8249C211.014 90.5608 210.812 94.533 211.597 98.3686C212.382 102.204 214.129 105.777 216.673 108.753L220.165 105.592Z" fill="#F97316"/>
<path d="M229.897 88.2119C230.428 87.6806 231.059 87.259 231.753 86.9714C232.447 86.6837 233.191 86.5356 233.942 86.5354C234.693 86.5352 235.437 86.683 236.131 86.9704C236.826 87.2577 237.456 87.679 237.988 88.2101C238.519 88.7412 238.941 89.3718 239.228 90.0658C239.516 90.7598 239.664 91.5037 239.664 92.255C239.664 93.0062 239.517 93.7502 239.229 94.4444C238.942 95.1385 238.521 95.7693 237.99 96.3006L233.945 100.345L229.897 96.3006C228.825 95.2279 228.222 93.7731 228.222 92.2563C228.222 90.7395 228.825 89.2847 229.897 88.2119Z" fill="white"/>
<path opacity="0.3" d="M229.897 88.2119C230.428 87.6806 231.059 87.259 231.753 86.9714C232.447 86.6837 233.191 86.5356 233.942 86.5354C234.693 86.5352 235.437 86.683 236.131 86.9704C236.826 87.2577 237.456 87.679 237.988 88.2101C238.519 88.7412 238.941 89.3718 239.228 90.0658C239.516 90.7598 239.664 91.5037 239.664 92.255C239.664 93.0062 239.517 93.7502 239.229 94.4444C238.942 95.1385 238.521 95.7693 237.99 96.3006L233.945 100.345L229.897 96.3006C228.825 95.2279 228.222 93.7731 228.222 92.2563C228.222 90.7395 228.825 89.2847 229.897 88.2119Z" fill="#F97316"/>
<path d="M233.713 101.544H234.164V103.348H233.713V101.544Z" fill="white"/>
<path opacity="0.3" d="M223.713 101.544H224.164V103.348H223.713V101.544Z" fill="#F97316"/>
<path d="M233.713 104.743H234.164V106.547H233.713V104.743Z" fill="white"/>
<path opacity="0.3" d="M223.713 104.743H224.164V106.547H223.713V104.743Z" fill="#F97316"/>
<path d="M249.55 119.341H264.86V174.774H249.55V119.341Z" fill="white"/>
<path opacity="0.7" d="M249.55 119.341H264.86V174.774H249.55V119.341Z" fill="white"/>
<path d="M242.207 119.341H249.555V174.774H242.207V119.341Z" fill="white"/>
<path opacity="0.5" d="M242.207 119.341H249.555V174.774H242.207V119.341Z" fill="white"/>
<path d="M221.235 139.743H221.625V148.373H221.235V139.743Z" fill="#F97316"/>
<path d="M221.235 134.669H221.625V138.138H221.235V134.669Z" fill="#F97316"/>
<path d="M210.371 153.726H225.68V174.774H210.371V153.726Z" fill="white"/>
<path opacity="0.5" d="M210.371 153.726H225.68V174.774H210.371V153.726Z" fill="#F97316"/>
<path d="M203.027 153.726H210.375V174.774H203.027V153.726Z" fill="white"/>
<path opacity="0.6" d="M203.027 153.726H210.375V174.774H203.027V153.726Z" fill="#F97316"/>
<path d="M230.328 128.54H245.586V175.118H230.328V128.54Z" fill="white"/>
<path opacity="0.7" d="M230.328 128.54H245.586V175.118H230.328V128.54Z" fill="#F97316"/>
<path d="M222.298 128.54H230.328V175.118H222.298V128.54Z" fill="white"/>
<path opacity="0.8" d="M222.298 128.54H230.328V175.118H222.298V128.54Z" fill="#F97316"/>
<path d="M36.5771 56.792V53.092H40.5771C43.6771 53.092 45.6771 51.312 45.6771 48.232C45.6771 45.152 43.6771 43.392 40.5771 43.392H33.5771V56.792H36.5771ZM40.2571 46.092C41.9171 46.092 42.6971 46.592 42.6971 48.232C42.6971 49.912 41.9171 50.392 40.2571 50.392H36.5771V46.092H40.2571ZM49.7412 56.792V50.992C49.7412 49.732 50.2212 49.112 51.5612 49.112C52.7812 49.112 53.2212 49.592 53.2212 50.692V51.732H56.2212V50.072C56.2212 48.112 55.3012 46.572 53.0612 46.572C51.0412 46.572 49.9812 47.812 49.7012 49.432H49.5212V46.772H46.7412V56.792H49.7412ZM62.6476 56.992C66.0676 56.992 68.3676 54.952 68.3676 51.792C68.3676 48.592 66.0676 46.572 62.6476 46.572C59.2276 46.572 56.9276 48.592 56.9276 51.792C56.9276 54.952 59.2276 56.992 62.6476 56.992ZM62.6476 54.332C60.6076 54.332 59.9076 53.552 59.9076 51.792C59.9076 50.032 60.6076 49.212 62.6476 49.212C64.6676 49.212 65.3876 50.032 65.3876 51.792C65.3876 53.552 64.6676 54.332 62.6476 54.332ZM75.4587 56.792V54.012H75.6387C75.9987 55.992 77.3187 56.992 79.6387 56.992C82.7587 56.992 84.4587 54.952 84.4587 51.792C84.4587 48.592 82.7787 46.572 79.7787 46.572C77.3987 46.572 76.1787 47.752 75.8387 49.432H75.6787V43.392H72.6787V56.792H75.4587ZM75.6787 51.852V51.692C75.6787 49.952 76.6787 49.312 78.6187 49.312C80.5387 49.312 81.4187 49.952 81.4187 51.792C81.4187 53.612 80.5387 54.252 78.5987 54.252C76.6987 54.252 75.6787 53.592 75.6787 51.852ZM89.846 56.992C92.486 56.992 93.706 55.412 93.966 53.732H94.126V56.792H96.926V46.772H93.926V51.852C93.926 53.552 93.226 54.312 91.266 54.312C89.366 54.312 88.686 53.632 88.686 52.012V46.772H85.686V53.012C85.686 55.252 87.026 56.992 89.846 56.992ZM102.94 56.992C105.24 56.992 106.56 55.992 106.94 54.012H107.1V56.792H109.9V43.392H106.9V49.432H106.72C106.38 47.752 105.16 46.572 102.78 46.572C99.7999 46.572 98.0999 48.592 98.0999 51.792C98.0999 54.952 99.8199 56.992 102.94 56.992ZM101.14 51.792C101.14 49.952 102.04 49.312 103.96 49.312C105.88 49.312 106.9 49.952 106.9 51.692V51.852C106.9 53.592 105.86 54.252 103.96 54.252C102.04 54.252 101.14 53.612 101.14 51.792ZM115.887 55.772C118.127 55.772 119.307 54.752 119.627 53.272H119.787V55.532C119.787 57.492 119.207 57.892 117.287 57.892C115.247 57.892 114.807 57.552 114.807 56.432H111.807C111.807 58.952 113.847 60.392 117.087 60.392C120.667 60.392 122.787 58.832 122.787 55.332V46.772H119.987V49.192H119.827C119.507 47.452 118.047 46.572 116.007 46.572C113.007 46.572 111.187 48.372 111.187 51.172C111.187 53.992 112.907 55.772 115.887 55.772ZM114.207 51.172C114.207 49.692 115.047 49.172 116.967 49.172C118.827 49.172 119.787 49.692 119.787 51.052V51.272C119.787 52.652 118.847 53.192 116.927 53.192C115.047 53.192 114.207 52.652 114.207 51.172ZM129.698 56.992C132.878 56.992 134.998 55.472 134.998 53.292V53.072H131.998V53.272C131.998 54.132 131.378 54.592 129.598 54.592C127.658 54.592 126.938 53.932 126.858 52.392H135.018C135.058 52.052 135.098 51.792 135.098 51.432C135.098 48.292 132.918 46.572 129.638 46.572C126.338 46.572 124.078 48.592 124.078 51.792C124.078 55.352 126.358 56.992 129.698 56.992ZM129.578 48.912C131.338 48.912 132.138 49.492 132.218 50.812H126.898C127.038 49.512 127.798 48.912 129.578 48.912ZM143.43 56.792V54.092H141.63C140.57 54.092 140.19 53.832 140.19 52.832V49.252H143.43V46.772H140.19V44.832H137.19V46.772H135.61V49.252H137.19V53.172C137.19 55.692 138.61 56.792 140.95 56.792H143.43ZM147.554 45.752V43.392H144.554V45.752H147.554ZM147.554 56.792V46.772H144.554V56.792H147.554ZM152.124 56.792V51.732C152.124 50.032 152.804 49.272 154.704 49.272C156.544 49.272 157.204 49.952 157.204 51.552V56.792H160.204V50.552C160.204 48.332 158.904 46.572 156.164 46.572C153.544 46.572 152.344 48.172 152.084 49.852H151.904V46.772H149.124V56.792H152.124ZM166.122 55.772C168.362 55.772 169.542 54.752 169.862 53.272H170.022V55.532C170.022 57.492 169.442 57.892 167.522 57.892C165.482 57.892 165.042 57.552 165.042 56.432H162.042C162.042 58.952 164.082 60.392 167.322 60.392C170.902 60.392 173.022 58.832 173.022 55.332V46.772H170.222V49.192H170.062C169.742 47.452 168.282 46.572 166.242 46.572C163.242 46.572 161.422 48.372 161.422 51.172C161.422 53.992 163.142 55.772 166.122 55.772ZM164.442 51.172C164.442 49.692 165.282 49.172 167.202 49.172C169.062 49.172 170.022 49.692 170.022 51.052V51.272C170.022 52.652 169.082 53.192 167.162 53.192C165.282 53.192 164.442 52.652 164.442 51.172ZM37.9771 80.772C40.2171 80.772 41.3971 79.752 41.7171 78.272H41.8771V80.532C41.8771 82.492 41.2971 82.892 39.3771 82.892C37.3371 82.892 36.8971 82.552 36.8971 81.432H33.8971C33.8971 83.952 35.9371 85.392 39.1771 85.392C42.7571 85.392 44.8771 83.832 44.8771 80.332V71.772H42.0771V74.192H41.9171C41.5971 72.452 40.1371 71.572 38.0971 71.572C35.0971 71.572 33.2771 73.372 33.2771 76.172C33.2771 78.992 34.9971 80.772 37.9771 80.772ZM36.2971 76.172C36.2971 74.692 37.1371 74.172 39.0571 74.172C40.9171 74.172 41.8771 74.692 41.8771 76.052V76.272C41.8771 77.652 40.9371 78.192 39.0171 78.192C37.1371 78.192 36.2971 77.652 36.2971 76.172ZM50.6077 81.992C53.2477 81.992 54.4677 80.412 54.7277 78.732H54.8877V81.792H57.6877V71.772H54.6877V76.852C54.6877 78.552 53.9877 79.312 52.0277 79.312C50.1277 79.312 49.4477 78.632 49.4477 77.012V71.772H46.4477V78.012C46.4477 80.252 47.7877 81.992 50.6077 81.992ZM62.2216 70.752V68.392H59.2216V70.752H62.2216ZM62.2216 81.792V71.772H59.2216V81.792H62.2216ZM68.2719 81.992C70.5719 81.992 71.8919 80.992 72.2719 79.012H72.4319V81.792H75.2319V68.392H72.2319V74.432H72.0519C71.7119 72.752 70.4919 71.572 68.1119 71.572C65.1319 71.572 63.4319 73.592 63.4319 76.792C63.4319 79.952 65.1519 81.992 68.2719 81.992ZM66.4719 76.792C66.4719 74.952 67.3719 74.312 69.2919 74.312C71.2119 74.312 72.2319 74.952 72.2319 76.692V76.852C72.2319 78.592 71.1919 79.252 69.2919 79.252C67.3719 79.252 66.4719 78.612 66.4719 76.792ZM82.1393 81.992C85.3193 81.992 87.4393 80.472 87.4393 78.292V78.072H84.4393V78.272C84.4393 79.132 83.8193 79.592 82.0393 79.592C80.0993 79.592 79.3793 78.932 79.2993 77.392H87.4593C87.4993 77.052 87.5393 76.792 87.5393 76.432C87.5393 73.292 85.3593 71.572 82.0793 71.572C78.7793 71.572 76.5193 73.592 76.5193 76.792C76.5193 80.352 78.7993 81.992 82.1393 81.992ZM82.0193 73.912C83.7793 73.912 84.5793 74.492 84.6593 75.812H79.3393C79.4793 74.512 80.2393 73.912 82.0193 73.912Z" fill="white"/>
<defs>
<filter id="filter0_b_0_2993" x="-237.596" y="-238.209" width="776.863" height="672.463" filterUnits="userSpaceOnUse" color-interpolation-filters="sRGB">
<feFlood flood-opacity="0" result="BackgroundImageFix"/>
<feGaussianBlur in="BackgroundImageFix" stdDeviation="119.128"/>
<feComposite in2="SourceAlpha" operator="in" result="effect1_backgroundBlur_0_2993"/>
<feBlend mode="normal" in="SourceGraphic" in2="effect1_backgroundBlur_0_2993" result="shape"/>
</filter>
</defs>
</svg>
