<svg width="500" height="206" viewBox="0 0 500 206" fill="none" xmlns="http://www.w3.org/2000/svg">
<path d="M5.79238 199.72C5.79238 200.06 5.75572 200.377 5.68238 200.67C5.60905 200.963 5.47905 201.22 5.29238 201.44C5.11238 201.66 4.86572 201.833 4.55238 201.96C4.24572 202.087 3.85572 202.15 3.38238 202.15C2.94238 202.15 2.55905 202.09 2.23238 201.97C1.91238 201.843 1.66572 201.71 1.49238 201.57L1.94238 200.58C2.10905 200.693 2.31238 200.803 2.55238 200.91C2.79905 201.01 3.04905 201.06 3.30238 201.06C3.72905 201.06 4.03905 200.953 4.23238 200.74C4.42572 200.527 4.52238 200.16 4.52238 199.64V195.07H5.79238V199.72ZM9.17934 201.15C9.55267 201.15 9.836 201.13 10.0293 201.09V199.75C9.96267 199.73 9.866 199.71 9.73934 199.69C9.61267 199.67 9.47267 199.66 9.31934 199.66C9.186 199.66 9.04934 199.67 8.90934 199.69C8.776 199.71 8.65267 199.747 8.53934 199.8C8.43267 199.853 8.346 199.93 8.27934 200.03C8.21267 200.123 8.17934 200.243 8.17934 200.39C8.17934 200.677 8.26934 200.877 8.44934 200.99C8.62934 201.097 8.87267 201.15 9.17934 201.15ZM9.07934 196.64C9.47934 196.64 9.816 196.69 10.0893 196.79C10.3627 196.89 10.5793 197.03 10.7393 197.21C10.906 197.39 11.0227 197.61 11.0893 197.87C11.1627 198.123 11.1993 198.403 11.1993 198.71V201.88C11.0127 201.92 10.7293 201.967 10.3493 202.02C9.976 202.08 9.55267 202.11 9.07934 202.11C8.766 202.11 8.47934 202.08 8.21934 202.02C7.95934 201.96 7.736 201.863 7.54934 201.73C7.36934 201.597 7.226 201.423 7.11934 201.21C7.01934 200.997 6.96934 200.733 6.96934 200.42C6.96934 200.12 7.026 199.867 7.13934 199.66C7.25934 199.453 7.41934 199.287 7.61934 199.16C7.81934 199.027 8.04934 198.933 8.30934 198.88C8.576 198.82 8.85267 198.79 9.13934 198.79C9.27267 198.79 9.41267 198.8 9.55934 198.82C9.706 198.833 9.86267 198.86 10.0293 198.9V198.7C10.0293 198.56 10.0127 198.427 9.97934 198.3C9.946 198.173 9.886 198.063 9.79934 197.97C9.71934 197.87 9.60934 197.793 9.46934 197.74C9.336 197.687 9.166 197.66 8.95934 197.66C8.67934 197.66 8.42267 197.68 8.18934 197.72C7.956 197.76 7.766 197.807 7.61934 197.86L7.46934 196.88C7.62267 196.827 7.846 196.773 8.13934 196.72C8.43267 196.667 8.746 196.64 9.07934 196.64ZM12.6811 196.94C12.9145 196.873 13.2178 196.81 13.5911 196.75C13.9645 196.69 14.3778 196.66 14.8311 196.66C15.2578 196.66 15.6145 196.72 15.9011 196.84C16.1878 196.953 16.4145 197.117 16.5811 197.33C16.7545 197.537 16.8745 197.79 16.9411 198.09C17.0145 198.383 17.0511 198.707 17.0511 199.06V202H15.8411V199.25C15.8411 198.97 15.8211 198.733 15.7811 198.54C15.7478 198.34 15.6878 198.18 15.6011 198.06C15.5211 197.933 15.4078 197.843 15.2611 197.79C15.1211 197.73 14.9478 197.7 14.7411 197.7C14.5878 197.7 14.4278 197.71 14.2611 197.73C14.0945 197.75 13.9711 197.767 13.8911 197.78V202H12.6811V196.94ZM19.7807 200.67C19.7941 200.783 19.8007 200.867 19.8007 200.92C19.8007 200.973 19.8007 201.027 19.8007 201.08C19.8007 201.493 19.7341 201.92 19.6007 202.36C19.4741 202.8 19.2941 203.217 19.0607 203.61L18.1107 203.35C18.2707 202.963 18.3774 202.583 18.4307 202.21C18.4907 201.843 18.5207 201.52 18.5207 201.24C18.5207 201.16 18.5174 201.06 18.5107 200.94C18.5107 200.82 18.5074 200.73 18.5007 200.67H19.7807ZM27.5805 196.87C27.5805 197.11 27.5305 197.347 27.4305 197.58C27.3305 197.807 27.2005 198.03 27.0405 198.25C26.8872 198.463 26.7105 198.673 26.5105 198.88C26.3105 199.08 26.1105 199.277 25.9105 199.47C25.8038 199.57 25.6838 199.69 25.5505 199.83C25.4172 199.97 25.2905 200.11 25.1705 200.25C25.0505 200.39 24.9472 200.527 24.8605 200.66C24.7738 200.787 24.7272 200.893 24.7205 200.98H27.8005V202H23.3905C23.3838 201.947 23.3805 201.883 23.3805 201.81C23.3805 201.73 23.3805 201.67 23.3805 201.63C23.3805 201.31 23.4305 201.017 23.5305 200.75C23.6372 200.477 23.7738 200.223 23.9405 199.99C24.1072 199.757 24.2938 199.537 24.5005 199.33C24.7072 199.123 24.9138 198.92 25.1205 198.72C25.2805 198.567 25.4338 198.417 25.5805 198.27C25.7272 198.123 25.8538 197.98 25.9605 197.84C26.0738 197.693 26.1638 197.547 26.2305 197.4C26.2972 197.247 26.3305 197.09 26.3305 196.93C26.3305 196.583 26.2305 196.337 26.0305 196.19C25.8305 196.043 25.5872 195.97 25.3005 195.97C25.1138 195.97 24.9405 195.997 24.7805 196.05C24.6205 196.103 24.4772 196.167 24.3505 196.24C24.2305 196.313 24.1238 196.39 24.0305 196.47C23.9372 196.543 23.8672 196.603 23.8205 196.65L23.2205 195.8C23.5005 195.533 23.8272 195.32 24.2005 195.16C24.5805 194.993 24.9872 194.91 25.4205 194.91C26.1605 194.91 26.7038 195.087 27.0505 195.44C27.4038 195.787 27.5805 196.263 27.5805 196.87ZM33.7041 198.53C33.7041 199.697 33.4908 200.593 33.0641 201.22C32.6374 201.84 32.0474 202.15 31.2941 202.15C30.5408 202.15 29.9508 201.84 29.5241 201.22C29.0974 200.593 28.8841 199.697 28.8841 198.53C28.8841 197.95 28.9374 197.437 29.0441 196.99C29.1574 196.537 29.3174 196.157 29.5241 195.85C29.7374 195.543 29.9908 195.31 30.2841 195.15C30.5841 194.99 30.9208 194.91 31.2941 194.91C32.0474 194.91 32.6374 195.223 33.0641 195.85C33.4908 196.47 33.7041 197.363 33.7041 198.53ZM32.4541 198.53C32.4541 198.17 32.4341 197.833 32.3941 197.52C32.3541 197.207 32.2874 196.937 32.1941 196.71C32.1074 196.477 31.9908 196.293 31.8441 196.16C31.6974 196.027 31.5141 195.96 31.2941 195.96C31.0741 195.96 30.8874 196.027 30.7341 196.16C30.5874 196.293 30.4674 196.477 30.3741 196.71C30.2874 196.937 30.2241 197.207 30.1841 197.52C30.1508 197.833 30.1341 198.17 30.1341 198.53C30.1341 198.89 30.1508 199.227 30.1841 199.54C30.2241 199.853 30.2874 200.127 30.3741 200.36C30.4674 200.587 30.5874 200.767 30.7341 200.9C30.8874 201.033 31.0741 201.1 31.2941 201.1C31.5141 201.1 31.6974 201.033 31.8441 200.9C31.9908 200.767 32.1074 200.587 32.1941 200.36C32.2874 200.127 32.3541 199.853 32.3941 199.54C32.4341 199.227 32.4541 198.89 32.4541 198.53ZM38.9477 196.87C38.9477 197.11 38.8977 197.347 38.7977 197.58C38.6977 197.807 38.5677 198.03 38.4077 198.25C38.2544 198.463 38.0777 198.673 37.8777 198.88C37.6777 199.08 37.4777 199.277 37.2777 199.47C37.171 199.57 37.051 199.69 36.9177 199.83C36.7844 199.97 36.6577 200.11 36.5377 200.25C36.4177 200.39 36.3144 200.527 36.2277 200.66C36.141 200.787 36.0944 200.893 36.0877 200.98H39.1677V202H34.7577C34.751 201.947 34.7477 201.883 34.7477 201.81C34.7477 201.73 34.7477 201.67 34.7477 201.63C34.7477 201.31 34.7977 201.017 34.8977 200.75C35.0044 200.477 35.141 200.223 35.3077 199.99C35.4744 199.757 35.661 199.537 35.8677 199.33C36.0744 199.123 36.281 198.92 36.4877 198.72C36.6477 198.567 36.801 198.417 36.9477 198.27C37.0944 198.123 37.221 197.98 37.3277 197.84C37.441 197.693 37.531 197.547 37.5977 197.4C37.6644 197.247 37.6977 197.09 37.6977 196.93C37.6977 196.583 37.5977 196.337 37.3977 196.19C37.1977 196.043 36.9544 195.97 36.6677 195.97C36.481 195.97 36.3077 195.997 36.1477 196.05C35.9877 196.103 35.8444 196.167 35.7177 196.24C35.5977 196.313 35.491 196.39 35.3977 196.47C35.3044 196.543 35.2344 196.603 35.1877 196.65L34.5877 195.8C34.8677 195.533 35.1944 195.32 35.5677 195.16C35.9477 194.993 36.3544 194.91 36.7877 194.91C37.5277 194.91 38.071 195.087 38.4177 195.44C38.771 195.787 38.9477 196.263 38.9477 196.87ZM42.1813 202.15C42.0013 202.15 41.8146 202.137 41.6213 202.11C41.4346 202.09 41.2546 202.06 41.0813 202.02C40.9146 201.987 40.7613 201.95 40.6213 201.91C40.4813 201.863 40.3746 201.82 40.3013 201.78L40.5413 200.75C40.6813 200.817 40.8846 200.893 41.1513 200.98C41.418 201.06 41.748 201.1 42.1413 201.1C42.668 201.1 43.048 201 43.2813 200.8C43.5146 200.593 43.6313 200.32 43.6313 199.98C43.6313 199.76 43.5846 199.577 43.4913 199.43C43.4046 199.283 43.2813 199.167 43.1213 199.08C42.968 198.987 42.788 198.923 42.5813 198.89C42.3813 198.85 42.168 198.83 41.9413 198.83H41.5313V197.85H42.0313C42.1846 197.85 42.338 197.837 42.4913 197.81C42.6513 197.777 42.7946 197.723 42.9213 197.65C43.048 197.57 43.1513 197.467 43.2313 197.34C43.3113 197.213 43.3513 197.05 43.3513 196.85C43.3513 196.69 43.3213 196.553 43.2613 196.44C43.2013 196.327 43.1213 196.233 43.0213 196.16C42.928 196.087 42.818 196.033 42.6913 196C42.5646 195.967 42.4313 195.95 42.2913 195.95C41.9913 195.95 41.7246 195.997 41.4913 196.09C41.258 196.177 41.0513 196.277 40.8713 196.39L40.4313 195.49C40.5246 195.43 40.638 195.367 40.7713 195.3C40.9046 195.233 41.0513 195.17 41.2113 195.11C41.378 195.05 41.5546 195.003 41.7413 194.97C41.928 194.93 42.1246 194.91 42.3313 194.91C42.718 194.91 43.0513 194.957 43.3313 195.05C43.6113 195.143 43.8413 195.277 44.0213 195.45C44.208 195.617 44.3446 195.817 44.4313 196.05C44.5246 196.277 44.5713 196.527 44.5713 196.8C44.5713 197.12 44.4813 197.407 44.3013 197.66C44.128 197.913 43.9013 198.107 43.6213 198.24C43.9813 198.367 44.278 198.577 44.5113 198.87C44.7513 199.163 44.8713 199.54 44.8713 200C44.8713 200.307 44.818 200.593 44.7113 200.86C44.6046 201.12 44.4413 201.347 44.2213 201.54C44.0013 201.727 43.7213 201.877 43.3813 201.99C43.048 202.097 42.648 202.15 42.1813 202.15Z" fill="#9CA3AF"/>
<path d="M452.782 195.07C452.929 195.323 453.092 195.633 453.272 196C453.452 196.367 453.636 196.753 453.822 197.16C454.009 197.56 454.192 197.97 454.372 198.39C454.559 198.803 454.729 199.187 454.882 199.54C455.036 199.187 455.202 198.803 455.382 198.39C455.562 197.97 455.746 197.56 455.932 197.16C456.119 196.753 456.302 196.367 456.482 196C456.662 195.633 456.826 195.323 456.972 195.07H458.112C458.172 195.577 458.229 196.117 458.282 196.69C458.336 197.257 458.382 197.84 458.422 198.44C458.469 199.033 458.509 199.633 458.542 200.24C458.582 200.84 458.616 201.427 458.642 202H457.402C457.376 201.193 457.342 200.363 457.302 199.51C457.269 198.657 457.216 197.83 457.142 197.03C457.069 197.183 456.982 197.367 456.882 197.58C456.782 197.793 456.676 198.027 456.562 198.28C456.449 198.527 456.332 198.783 456.212 199.05C456.099 199.317 455.986 199.577 455.872 199.83C455.766 200.077 455.666 200.31 455.572 200.53C455.479 200.743 455.399 200.927 455.332 201.08H454.392C454.326 200.927 454.246 200.74 454.152 200.52C454.059 200.3 453.956 200.067 453.842 199.82C453.736 199.567 453.622 199.307 453.502 199.04C453.389 198.773 453.276 198.517 453.162 198.27C453.049 198.023 452.942 197.793 452.842 197.58C452.742 197.36 452.656 197.177 452.582 197.03C452.509 197.83 452.452 198.657 452.412 199.51C452.379 200.363 452.349 201.193 452.322 202H451.082C451.109 201.427 451.139 200.833 451.172 200.22C451.212 199.607 451.252 199 451.292 198.4C451.339 197.793 451.389 197.207 451.442 196.64C451.496 196.073 451.552 195.55 451.612 195.07H452.782ZM461.89 201.15C462.264 201.15 462.547 201.13 462.74 201.09V199.75C462.674 199.73 462.577 199.71 462.45 199.69C462.324 199.67 462.184 199.66 462.03 199.66C461.897 199.66 461.76 199.67 461.62 199.69C461.487 199.71 461.364 199.747 461.25 199.8C461.144 199.853 461.057 199.93 460.99 200.03C460.924 200.123 460.89 200.243 460.89 200.39C460.89 200.677 460.98 200.877 461.16 200.99C461.34 201.097 461.584 201.15 461.89 201.15ZM461.79 196.64C462.19 196.64 462.527 196.69 462.8 196.79C463.074 196.89 463.29 197.03 463.45 197.21C463.617 197.39 463.734 197.61 463.8 197.87C463.874 198.123 463.91 198.403 463.91 198.71V201.88C463.724 201.92 463.44 201.967 463.06 202.02C462.687 202.08 462.264 202.11 461.79 202.11C461.477 202.11 461.19 202.08 460.93 202.02C460.67 201.96 460.447 201.863 460.26 201.73C460.08 201.597 459.937 201.423 459.83 201.21C459.73 200.997 459.68 200.733 459.68 200.42C459.68 200.12 459.737 199.867 459.85 199.66C459.97 199.453 460.13 199.287 460.33 199.16C460.53 199.027 460.76 198.933 461.02 198.88C461.287 198.82 461.564 198.79 461.85 198.79C461.984 198.79 462.124 198.8 462.27 198.82C462.417 198.833 462.574 198.86 462.74 198.9V198.7C462.74 198.56 462.724 198.427 462.69 198.3C462.657 198.173 462.597 198.063 462.51 197.97C462.43 197.87 462.32 197.793 462.18 197.74C462.047 197.687 461.877 197.66 461.67 197.66C461.39 197.66 461.134 197.68 460.9 197.72C460.667 197.76 460.477 197.807 460.33 197.86L460.18 196.88C460.334 196.827 460.557 196.773 460.85 196.72C461.144 196.667 461.457 196.64 461.79 196.64ZM468.372 197.86C468.272 197.827 468.132 197.793 467.952 197.76C467.779 197.72 467.575 197.7 467.342 197.7C467.209 197.7 467.065 197.713 466.912 197.74C466.765 197.767 466.662 197.79 466.602 197.81V202H465.392V197.02C465.625 196.933 465.915 196.853 466.262 196.78C466.615 196.7 467.005 196.66 467.432 196.66C467.512 196.66 467.605 196.667 467.712 196.68C467.819 196.687 467.925 196.7 468.032 196.72C468.139 196.733 468.242 196.753 468.342 196.78C468.442 196.8 468.522 196.82 468.582 196.84L468.372 197.86ZM470.187 200.67C470.2 200.783 470.207 200.867 470.207 200.92C470.207 200.973 470.207 201.027 470.207 201.08C470.207 201.493 470.14 201.92 470.007 202.36C469.88 202.8 469.7 203.217 469.467 203.61L468.517 203.35C468.677 202.963 468.784 202.583 468.837 202.21C468.897 201.843 468.927 201.52 468.927 201.24C468.927 201.16 468.924 201.06 468.917 200.94C468.917 200.82 468.914 200.73 468.907 200.67H470.187ZM477.987 196.87C477.987 197.11 477.937 197.347 477.837 197.58C477.737 197.807 477.607 198.03 477.447 198.25C477.293 198.463 477.117 198.673 476.917 198.88C476.717 199.08 476.517 199.277 476.317 199.47C476.21 199.57 476.09 199.69 475.957 199.83C475.823 199.97 475.697 200.11 475.577 200.25C475.457 200.39 475.353 200.527 475.267 200.66C475.18 200.787 475.133 200.893 475.127 200.98H478.207V202H473.797C473.79 201.947 473.787 201.883 473.787 201.81C473.787 201.73 473.787 201.67 473.787 201.63C473.787 201.31 473.837 201.017 473.937 200.75C474.043 200.477 474.18 200.223 474.347 199.99C474.513 199.757 474.7 199.537 474.907 199.33C475.113 199.123 475.32 198.92 475.527 198.72C475.687 198.567 475.84 198.417 475.987 198.27C476.133 198.123 476.26 197.98 476.367 197.84C476.48 197.693 476.57 197.547 476.637 197.4C476.703 197.247 476.737 197.09 476.737 196.93C476.737 196.583 476.637 196.337 476.437 196.19C476.237 196.043 475.993 195.97 475.707 195.97C475.52 195.97 475.347 195.997 475.187 196.05C475.027 196.103 474.883 196.167 474.757 196.24C474.637 196.313 474.53 196.39 474.437 196.47C474.343 196.543 474.273 196.603 474.227 196.65L473.627 195.8C473.907 195.533 474.233 195.32 474.607 195.16C474.987 194.993 475.393 194.91 475.827 194.91C476.567 194.91 477.11 195.087 477.457 195.44C477.81 195.787 477.987 196.263 477.987 196.87ZM484.11 198.53C484.11 199.697 483.897 200.593 483.47 201.22C483.044 201.84 482.454 202.15 481.7 202.15C480.947 202.15 480.357 201.84 479.93 201.22C479.504 200.593 479.29 199.697 479.29 198.53C479.29 197.95 479.344 197.437 479.45 196.99C479.564 196.537 479.724 196.157 479.93 195.85C480.144 195.543 480.397 195.31 480.69 195.15C480.99 194.99 481.327 194.91 481.7 194.91C482.454 194.91 483.044 195.223 483.47 195.85C483.897 196.47 484.11 197.363 484.11 198.53ZM482.86 198.53C482.86 198.17 482.84 197.833 482.8 197.52C482.76 197.207 482.694 196.937 482.6 196.71C482.514 196.477 482.397 196.293 482.25 196.16C482.104 196.027 481.92 195.96 481.7 195.96C481.48 195.96 481.294 196.027 481.14 196.16C480.994 196.293 480.874 196.477 480.78 196.71C480.694 196.937 480.63 197.207 480.59 197.52C480.557 197.833 480.54 198.17 480.54 198.53C480.54 198.89 480.557 199.227 480.59 199.54C480.63 199.853 480.694 200.127 480.78 200.36C480.874 200.587 480.994 200.767 481.14 200.9C481.294 201.033 481.48 201.1 481.7 201.1C481.92 201.1 482.104 201.033 482.25 200.9C482.397 200.767 482.514 200.587 482.6 200.36C482.694 200.127 482.76 199.853 482.8 199.54C482.84 199.227 482.86 198.89 482.86 198.53ZM489.354 196.87C489.354 197.11 489.304 197.347 489.204 197.58C489.104 197.807 488.974 198.03 488.814 198.25C488.661 198.463 488.484 198.673 488.284 198.88C488.084 199.08 487.884 199.277 487.684 199.47C487.577 199.57 487.457 199.69 487.324 199.83C487.191 199.97 487.064 200.11 486.944 200.25C486.824 200.39 486.721 200.527 486.634 200.66C486.547 200.787 486.501 200.893 486.494 200.98H489.574V202H485.164C485.157 201.947 485.154 201.883 485.154 201.81C485.154 201.73 485.154 201.67 485.154 201.63C485.154 201.31 485.204 201.017 485.304 200.75C485.411 200.477 485.547 200.223 485.714 199.99C485.881 199.757 486.067 199.537 486.274 199.33C486.481 199.123 486.687 198.92 486.894 198.72C487.054 198.567 487.207 198.417 487.354 198.27C487.501 198.123 487.627 197.98 487.734 197.84C487.847 197.693 487.937 197.547 488.004 197.4C488.071 197.247 488.104 197.09 488.104 196.93C488.104 196.583 488.004 196.337 487.804 196.19C487.604 196.043 487.361 195.97 487.074 195.97C486.887 195.97 486.714 195.997 486.554 196.05C486.394 196.103 486.251 196.167 486.124 196.24C486.004 196.313 485.897 196.39 485.804 196.47C485.711 196.543 485.641 196.603 485.594 196.65L484.994 195.8C485.274 195.533 485.601 195.32 485.974 195.16C486.354 194.993 486.761 194.91 487.194 194.91C487.934 194.91 488.477 195.087 488.824 195.44C489.177 195.787 489.354 196.263 489.354 196.87ZM492.588 202.15C492.408 202.15 492.221 202.137 492.028 202.11C491.841 202.09 491.661 202.06 491.488 202.02C491.321 201.987 491.168 201.95 491.028 201.91C490.888 201.863 490.781 201.82 490.708 201.78L490.948 200.75C491.088 200.817 491.291 200.893 491.558 200.98C491.824 201.06 492.154 201.1 492.548 201.1C493.074 201.1 493.454 201 493.688 200.8C493.921 200.593 494.038 200.32 494.038 199.98C494.038 199.76 493.991 199.577 493.898 199.43C493.811 199.283 493.688 199.167 493.528 199.08C493.374 198.987 493.194 198.923 492.988 198.89C492.788 198.85 492.574 198.83 492.348 198.83H491.938V197.85H492.438C492.591 197.85 492.744 197.837 492.898 197.81C493.058 197.777 493.201 197.723 493.328 197.65C493.454 197.57 493.558 197.467 493.638 197.34C493.718 197.213 493.758 197.05 493.758 196.85C493.758 196.69 493.728 196.553 493.668 196.44C493.608 196.327 493.528 196.233 493.428 196.16C493.334 196.087 493.224 196.033 493.098 196C492.971 195.967 492.838 195.95 492.698 195.95C492.398 195.95 492.131 195.997 491.898 196.09C491.664 196.177 491.458 196.277 491.278 196.39L490.838 195.49C490.931 195.43 491.044 195.367 491.178 195.3C491.311 195.233 491.458 195.17 491.618 195.11C491.784 195.05 491.961 195.003 492.148 194.97C492.334 194.93 492.531 194.91 492.738 194.91C493.124 194.91 493.458 194.957 493.738 195.05C494.018 195.143 494.248 195.277 494.428 195.45C494.614 195.617 494.751 195.817 494.838 196.05C494.931 196.277 494.978 196.527 494.978 196.8C494.978 197.12 494.888 197.407 494.708 197.66C494.534 197.913 494.308 198.107 494.028 198.24C494.388 198.367 494.684 198.577 494.918 198.87C495.158 199.163 495.278 199.54 495.278 200C495.278 200.307 495.224 200.593 495.118 200.86C495.011 201.12 494.848 201.347 494.628 201.54C494.408 201.727 494.128 201.877 493.788 201.99C493.454 202.097 493.054 202.15 492.588 202.15Z" fill="#3D0072"/>
<path d="M0.442383 134C104.109 145.333 348.842 134.6 498.442 1" stroke="#22C55E" stroke-width="2"/>
<path d="M498.442 1C348.842 134.6 104.109 145.333 0.442383 134V192H498.442V1Z" fill="url(#paint0_linear_241_623)"/>
<defs>
<linearGradient id="paint0_linear_241_623" x1="249.442" y1="1" x2="249.442" y2="192" gradientUnits="userSpaceOnUse">
<stop stop-color="#22C55E" stop-opacity="0.31"/>
<stop offset="1" stop-color="#22C55E" stop-opacity="0"/>
</linearGradient>
</defs>
</svg>
