<svg width="172" height="137" viewBox="0 0 172 137" fill="none" xmlns="http://www.w3.org/2000/svg">
<g filter="url(#filter0_f_261_284)">
<ellipse cx="86.1347" cy="68.4601" rx="29.3222" ry="11.8685" fill="#8807F7"/>
<path d="M86.6534 63.3004L74.9531 65.2222V68.1049C74.9531 70.7714 79.9452 73.2649 86.6534 73.8702C93.3616 73.2649 98.3537 70.7714 98.3537 68.1049V65.2222L86.6534 63.3004ZM86.6534 68.5805H95.7536C95.0646 70.56 91.4895 72.3232 86.6534 72.8757V68.5853H77.5532V65.8468L86.6534 64.3526V68.5805Z" fill="white"/>
</g>
<circle cx="81.8125" cy="38" r="25" fill="#8807F7"/>
<path d="M80.917 44.9875C80.7726 44.9875 80.6419 44.9647 80.5249 44.9192C80.4071 44.8745 80.2941 44.8069 80.1858 44.7167C79.4094 44.0306 78.7955 43.1772 78.3441 42.1567C77.8927 41.137 77.667 40.1125 77.667 39.0833C77.667 38.0542 77.8927 37.0293 78.3441 36.0088C78.7955 34.9891 79.4004 34.1361 80.1587 33.45C80.267 33.3597 80.3844 33.2875 80.5108 33.2333C80.6372 33.1792 80.7726 33.1521 80.917 33.1521C81.0615 33.1521 81.1926 33.1792 81.3103 33.2333C81.4273 33.2875 81.54 33.3597 81.6483 33.45C82.4247 34.1361 83.0386 34.9891 83.49 36.0088C83.9413 37.0293 84.167 38.0542 84.167 39.0833C84.167 40.1125 83.9413 41.137 83.49 42.1567C83.0386 43.1772 82.4337 44.0306 81.6754 44.7167C81.5851 44.8069 81.4724 44.8745 81.3374 44.9192C81.2016 44.9647 81.0615 44.9875 80.917 44.9875ZM85.2504 46.6667C84.7629 46.6667 84.2891 46.6215 83.829 46.5312C83.3683 46.441 82.9212 46.3056 82.4879 46.125C83.499 45.4569 84.3025 44.4097 84.8983 42.9833C85.4941 41.5569 85.792 40.2569 85.792 39.0833C85.792 37.9097 85.4941 36.6097 84.8983 35.1833C84.3025 33.7569 83.499 32.7097 82.4879 32.0417C82.9212 31.8611 83.3683 31.7257 83.829 31.6354C84.2891 31.5451 84.7629 31.5 85.2504 31.5C87.3629 31.5 89.1547 32.2356 90.6259 33.7067C92.0978 35.1786 92.8337 36.9708 92.8337 39.0833C92.8337 41.1958 92.0978 42.9877 90.6259 44.4588C89.1547 45.9307 87.3629 46.6667 85.2504 46.6667ZM76.5837 46.6667C74.4712 46.6667 72.6794 45.9307 71.2082 44.4588C69.7363 42.9877 69.0004 41.1958 69.0004 39.0833C69.0004 36.9708 69.7363 35.1786 71.2082 33.7067C72.6794 32.2356 74.4712 31.5 76.5837 31.5C77.0712 31.5 77.545 31.5451 78.005 31.6354C78.4658 31.7257 78.9129 31.8611 79.3462 32.0417C78.3351 32.7097 77.5316 33.7569 76.9358 35.1833C76.3399 36.6097 76.042 37.9097 76.042 39.0833C76.042 40.2569 76.3399 41.5569 76.9358 42.9833C77.5316 44.4097 78.3351 45.4569 79.3462 46.125C78.9129 46.3056 78.4658 46.441 78.005 46.5312C77.545 46.6215 77.0712 46.6667 76.5837 46.6667Z" fill="white"/>
<defs>
<filter id="filter0_f_261_284" x="0.960651" y="0.739704" width="170.348" height="135.441" filterUnits="userSpaceOnUse" color-interpolation-filters="sRGB">
<feFlood flood-opacity="0" result="BackgroundImageFix"/>
<feBlend mode="normal" in="SourceGraphic" in2="BackgroundImageFix" result="shape"/>
<feGaussianBlur stdDeviation="27.9259" result="effect1_foregroundBlur_261_284"/>
</filter>
</defs>
</svg>
