<svg width="365" height="458" viewBox="0 0 365 458" fill="none" xmlns="http://www.w3.org/2000/svg">
<g clip-path="url(#clip0_241_681)">
<rect x="0.442383" width="364" height="458" rx="16" fill="#FDEDF2"/>
<rect x="52.9424" y="114.5" width="258" height="564" rx="25.5" stroke="#E8356D" stroke-width="5"/>
<g clip-path="url(#clip1_241_681)">
<rect width="252.288" height="539.944" transform="translate(55.4424 112)" fill="white"/>
<path d="M78.5481 180.049C80.9531 180.049 82.7569 178.811 82.7569 176.672C82.7569 174.408 81.0592 173.665 79.1671 173.206L77.8408 172.887C76.5499 172.569 75.7364 172.198 75.7364 171.154C75.7364 170.252 76.5499 169.722 77.6816 169.722C79.1317 169.722 80.4049 170.358 81.0592 171.826L82.5623 170.394C81.7135 168.767 79.9805 167.865 77.8054 167.865C75.5773 167.865 73.6497 169.068 73.6497 171.296C73.6497 173.542 75.4358 174.302 77.1157 174.656L78.2298 174.903C79.7683 175.239 80.7232 175.557 80.7232 176.707C80.7232 177.786 79.7683 178.21 78.5835 178.21C77.1334 178.21 75.3474 177.538 74.7107 175.805L73.296 177.237C74.2156 179.236 76.2846 180.049 78.5481 180.049ZM86.3491 180.049C88.1529 180.049 88.984 178.705 89.2493 177.573V178.21C89.2493 179.448 89.9743 179.872 90.8939 179.872H92.114V178.175H91.5659C91.2475 178.175 91.1061 178.051 91.1061 177.662V174.426C91.1061 172.304 89.9036 171.083 87.7638 171.083C85.854 171.083 84.51 172.074 83.8381 172.993L85.0229 174.408C85.518 173.506 86.4199 172.834 87.5693 172.834C88.7541 172.834 89.1432 173.418 89.2139 174.284L86.3315 175.504C84.9344 176.053 84.0856 176.795 84.0856 178.016C84.0856 179.253 84.9344 180.049 86.3491 180.049ZM85.9955 177.715C85.9955 177.273 86.2961 176.972 87.0388 176.636L89.2493 175.646V176.565C89.2493 177.733 88.3651 178.511 87.0565 178.511C86.3315 178.511 85.9955 178.21 85.9955 177.715ZM97.8646 179.872L100.942 171.26H98.7841L97.3341 175.947L96.6444 178.581L95.9371 175.947L94.4693 171.26H92.2765L95.3358 179.872H97.8646ZM105.427 180.049C107.337 180.049 108.504 179.183 109.158 178.192L107.938 176.919C107.62 177.644 106.948 178.422 105.444 178.422C104.083 178.422 103.181 177.591 103.075 176.053H109.229C109.264 175.876 109.299 175.504 109.299 175.186C109.299 172.799 107.867 171.083 105.285 171.083C102.863 171.083 101.183 172.87 101.183 175.575C101.183 178.263 102.863 180.049 105.427 180.049ZM105.285 172.675C106.594 172.675 107.372 173.418 107.513 174.779H103.092C103.252 173.382 104.065 172.675 105.285 172.675Z" fill="#3D0072"/>
<rect x="73.1245" y="192.756" width="216.921" height="69.5561" rx="6.81923" fill="#F9F9F9"/>
<path d="M89.962 226.941V224.92H89.4873V224.315H89.962V223.725H89.4873V223.12H89.962V221.099H91.2467L91.885 223.12H92.6296V221.099H93.538V223.12H94.0044V223.725H93.538V224.315H94.0044V224.92H93.538V226.941H92.245L91.5904 224.92H90.8703V226.941H89.962ZM90.8703 224.315H91.4104L91.2303 223.725H90.8539L90.8703 224.315ZM92.6542 225.665H92.6951L92.6624 224.92H92.4414L92.6542 225.665ZM90.8376 223.12H91.0667L90.8294 222.334H90.7966L90.8376 223.12ZM92.2696 224.315H92.646L92.6296 223.725H92.0814L92.2696 224.315ZM99.8166 227.064C101.682 227.064 102.848 225.935 102.848 224.241C102.848 222.608 101.94 221.553 100.381 221.553C99.2888 221.553 98.626 222.142 98.3682 222.879L98.5646 219.994H102.235V218.717H97.239L96.9689 223.394L98.3191 223.529L98.3314 223.419C98.405 222.891 98.9574 222.559 99.743 222.559C100.59 222.559 101.363 223.026 101.363 224.18C101.363 225.137 100.823 225.726 99.8289 225.726C98.7733 225.726 98.0491 225.112 97.7668 224.094L96.662 225.162C97.0794 226.229 98.2455 227.064 99.8166 227.064ZM107.296 227.052C109.592 227.052 110.746 225.235 110.746 222.817C110.746 220.411 109.592 218.595 107.296 218.595C105.001 218.595 103.835 220.411 103.835 222.817C103.835 225.235 105.001 227.052 107.296 227.052ZM107.296 225.726C105.836 225.726 105.296 224.548 105.296 222.817C105.296 221.099 105.836 219.908 107.296 219.908C108.769 219.908 109.297 221.099 109.297 222.817C109.297 224.548 108.769 225.726 107.296 225.726ZM111.969 228.365C112.89 228.267 113.246 227.788 113.246 226.966V225.198H111.674V226.941H112.399V227.101C112.399 227.506 112.129 227.592 111.687 227.641L111.969 228.365ZM117.629 227.052C119.925 227.052 121.078 225.235 121.078 222.817C121.078 220.411 119.925 218.595 117.629 218.595C115.334 218.595 114.168 220.411 114.168 222.817C114.168 225.235 115.334 227.052 117.629 227.052ZM117.629 225.726C116.169 225.726 115.628 224.548 115.628 222.817C115.628 221.099 116.169 219.908 117.629 219.908C119.102 219.908 119.63 221.099 119.63 222.817C119.63 224.548 119.102 225.726 117.629 225.726ZM125.648 227.052C127.944 227.052 129.098 225.235 129.098 222.817C129.098 220.411 127.944 218.595 125.648 218.595C123.353 218.595 122.187 220.411 122.187 222.817C122.187 225.235 123.353 227.052 125.648 227.052ZM125.648 225.726C124.188 225.726 123.648 224.548 123.648 222.817C123.648 221.099 124.188 219.908 125.648 219.908C127.121 219.908 127.649 221.099 127.649 222.817C127.649 224.548 127.121 225.726 125.648 225.726ZM133.668 227.052C135.963 227.052 137.117 225.235 137.117 222.817C137.117 220.411 135.963 218.595 133.668 218.595C131.372 218.595 130.206 220.411 130.206 222.817C130.206 225.235 131.372 227.052 133.668 227.052ZM133.668 225.726C132.207 225.726 131.667 224.548 131.667 222.817C131.667 221.099 132.207 219.908 133.668 219.908C135.141 219.908 135.668 221.099 135.668 222.817C135.668 224.548 135.141 225.726 133.668 225.726ZM139.617 226.941V225.198H138.046V226.941H139.617ZM144 227.052C146.296 227.052 147.45 225.235 147.45 222.817C147.45 220.411 146.296 218.595 144 218.595C141.705 218.595 140.539 220.411 140.539 222.817C140.539 225.235 141.705 227.052 144 227.052ZM144 225.726C142.54 225.726 142 224.548 142 222.817C142 221.099 142.54 219.908 144 219.908C145.473 219.908 146.001 221.099 146.001 222.817C146.001 224.548 145.473 225.726 144 225.726ZM152.02 227.052C154.315 227.052 155.469 225.235 155.469 222.817C155.469 220.411 154.315 218.595 152.02 218.595C149.724 218.595 148.558 220.411 148.558 222.817C148.558 225.235 149.724 227.052 152.02 227.052ZM152.02 225.726C150.559 225.726 150.019 224.548 150.019 222.817C150.019 221.099 150.559 219.908 152.02 219.908C153.493 219.908 154.02 221.099 154.02 222.817C154.02 224.548 153.493 225.726 152.02 225.726Z" fill="#3D0072"/>
<path fill-rule="evenodd" clip-rule="evenodd" d="M155.556 223.828C155.556 223.828 157.474 220.033 160.67 220.033C163.867 220.033 165.785 223.828 165.785 223.828C165.785 223.828 163.867 227.623 160.67 227.623C157.474 227.623 155.556 223.828 155.556 223.828ZM156.713 223.91C156.696 223.883 156.679 223.855 156.662 223.828L156.714 223.745C156.922 223.423 157.229 222.995 157.622 222.572C158.429 221.699 159.468 220.981 160.67 220.981C161.871 220.981 162.911 221.699 163.72 222.572C164.077 222.961 164.398 223.381 164.679 223.828C164.397 224.274 164.075 224.694 163.718 225.084C162.911 225.956 161.872 226.674 160.67 226.674C159.469 226.674 158.429 225.956 157.621 225.084C157.285 224.719 156.981 224.326 156.713 223.91ZM162.588 223.828C162.588 224.227 162.46 224.616 162.224 224.94C161.987 225.263 161.653 225.505 161.269 225.629C160.886 225.754 160.472 225.756 160.088 225.635C159.703 225.514 159.367 225.275 159.127 224.954C158.887 224.633 158.756 224.245 158.752 223.845C158.748 223.446 158.872 223.055 159.106 222.729C159.339 222.404 159.671 222.159 160.053 222.031C160.435 221.902 160.849 221.896 161.235 222.014C161.093 222.077 160.97 222.173 160.874 222.294C160.779 222.415 160.714 222.557 160.687 222.708C160.659 222.859 160.668 223.014 160.715 223.161C160.761 223.307 160.842 223.44 160.952 223.549C161.062 223.657 161.196 223.738 161.344 223.784C161.492 223.829 161.649 223.839 161.802 223.811C161.954 223.784 162.098 223.72 162.22 223.626C162.342 223.531 162.44 223.409 162.504 223.269C162.56 223.45 162.588 223.638 162.588 223.828Z" fill="#9CA3AF"/>
<rect x="89.4055" y="235.698" width="41.1203" height="14.4818" rx="7.24092" fill="#3D0072" fill-opacity="0.11"/>
<rect x="92.1333" y="238.439" width="20.5569" height="9" rx="4.5" fill="white"/>
<path d="M97.3054 244.439V242.049L97.278 241.561L97.6069 242.049L99.2898 244.439H99.7174V240.766H99.2405V243.112L99.2679 243.672L98.8897 243.101L97.2506 240.766H96.8285V244.439H97.3054ZM101.882 244.483C102.726 244.483 103.197 243.836 103.225 243.019L103.373 244.439H103.669V242.597H102.046V243.019H103.17C103.033 243.639 102.753 244.033 102.046 244.033C101.251 244.033 100.884 243.436 100.884 242.597C100.884 241.758 101.262 241.161 102.096 241.161C102.742 241.161 103.104 241.556 103.23 242.076L103.658 241.797C103.411 241.101 102.858 240.711 102.09 240.711C100.983 240.711 100.38 241.523 100.38 242.597C100.38 243.71 100.901 244.483 101.882 244.483ZM104.907 244.439V242.049L104.88 241.561L105.209 242.049L106.892 244.439H107.319V240.766H106.842V243.112L106.87 243.672L106.491 243.101L104.852 240.766H104.43V244.439H104.907Z" fill="#3D0072" fill-opacity="0.8"/>
<path d="M117.854 244.494C118.83 244.494 119.257 243.989 119.257 242.904V240.766H118.786V242.904C118.786 243.715 118.534 244.039 117.859 244.039C117.196 244.039 116.938 243.715 116.938 242.904V240.766H116.461V242.904C116.461 243.989 116.9 244.494 117.854 244.494ZM121.384 244.494C122.096 244.494 122.628 244.11 122.628 243.474C122.628 242.751 122.058 242.548 121.537 242.422L121.137 242.323C120.715 242.219 120.446 242.082 120.446 241.714C120.446 241.375 120.748 241.172 121.153 241.172C121.63 241.172 122.003 241.375 122.178 241.873L122.579 241.556C122.354 241.007 121.828 240.717 121.164 240.717C120.523 240.717 119.942 241.079 119.942 241.747C119.942 242.438 120.496 242.657 120.983 242.767L121.329 242.844C121.817 242.959 122.14 243.063 122.14 243.485C122.14 243.885 121.795 244.044 121.384 244.044C120.923 244.044 120.353 243.83 120.183 243.233L119.821 243.551C120.062 244.231 120.693 244.494 121.384 244.494ZM124.582 244.439C125.739 244.439 126.314 243.765 126.314 242.603C126.314 241.44 125.739 240.766 124.582 240.766H123.283V244.439H124.582ZM124.505 241.188C125.339 241.188 125.821 241.556 125.821 242.603C125.821 243.65 125.339 244.017 124.505 244.017H123.76V241.188H124.505Z" fill="#3D0072" fill-opacity="0.3"/>
<path d="M137.718 244.439V243.085H137.4V242.679H137.718V242.284H137.4V241.879H137.718V240.524H138.579L139.006 241.879H139.505V240.524H140.114V241.879H140.426V242.284H140.114V242.679H140.426V243.085H140.114V244.439H139.247L138.809 243.085H138.326V244.439H137.718ZM138.326 242.679H138.688L138.568 242.284H138.315L138.326 242.679ZM139.522 243.584H139.549L139.527 243.085H139.379L139.522 243.584ZM138.304 241.879H138.458L138.299 241.352H138.277L138.304 241.879ZM139.264 242.679H139.516L139.505 242.284H139.138L139.264 242.679ZM141.864 244.439C141.864 242.904 142.39 242.125 143.125 241.402V240.766H140.62V241.336H142.544C141.968 241.906 141.184 242.723 141.184 244.439H141.864ZM145.492 244.439V243.611H146.112V243.074H145.492V240.766H144.84L143.042 243.134V243.611H144.878V244.439H145.492ZM143.721 243.074L144.878 241.566V243.074H143.721ZM147.967 244.488C148.992 244.488 149.508 243.677 149.508 242.597C149.508 241.522 148.992 240.711 147.967 240.711C146.942 240.711 146.421 241.522 146.421 242.597C146.421 243.677 146.942 244.488 147.967 244.488ZM147.967 243.896C147.314 243.896 147.073 243.37 147.073 242.597C147.073 241.829 147.314 241.297 147.967 241.297C148.625 241.297 148.861 241.829 148.861 242.597C148.861 243.37 148.625 243.896 147.967 243.896ZM151.582 244.658L153.007 240.546H152.442L151.017 244.658H151.582ZM155.119 244.987V244.488C155.799 244.444 156.293 244.072 156.293 243.447C156.293 242.745 155.766 242.515 155.18 242.372L155.119 242.356V241.352C155.393 241.44 155.629 241.632 155.766 241.944L156.232 241.5C156.019 241.089 155.624 240.826 155.119 240.744V240.217H154.736V240.716C154.067 240.716 153.469 241.089 153.469 241.78C153.469 242.476 154.023 242.712 154.544 242.822L154.736 242.865V243.902C154.352 243.83 153.957 243.611 153.798 243.178L153.359 243.622C153.612 244.165 154.138 244.428 154.736 244.483V244.987H155.119ZM154.116 241.736C154.116 241.456 154.368 241.292 154.719 241.292H154.736V242.262C154.368 242.175 154.116 242.059 154.116 241.736ZM155.662 243.458C155.662 243.754 155.426 243.891 155.119 243.918V242.953C155.459 243.046 155.662 243.162 155.662 243.458ZM158.003 244.439V240.766H157.46C157.274 241.001 157.016 241.095 156.715 241.095V241.544H157.384V244.439H158.003Z" fill="#B69FC9"/>
<path d="M91.5726 209.667V205.623H93.0182V205.098H89.5404V205.623H90.9861V209.667H91.5726ZM94.307 209.735C95.2207 209.735 95.8686 209.06 95.8686 208.016C95.8686 206.973 95.2207 206.298 94.307 206.298C93.3932 206.298 92.7522 206.973 92.7522 208.016C92.7522 209.06 93.3932 209.735 94.307 209.735ZM94.307 209.237C93.7478 209.237 93.3591 208.848 93.3591 208.016C93.3591 207.178 93.7478 206.796 94.307 206.796C94.873 206.796 95.2685 207.178 95.2685 208.016C95.2685 208.848 94.873 209.237 94.307 209.237ZM97.6649 209.742C98.1217 209.742 98.4354 209.53 98.5786 209.305L98.3809 208.719C98.2922 208.923 98.0876 209.169 97.7944 209.169C97.5353 209.169 97.3375 209.067 97.3375 208.644V206.83H98.4218V206.366H97.3375V205.507L96.7443 205.943V206.366H96.2124V206.83H96.7443V208.821C96.7443 209.387 97.1261 209.742 97.6649 209.742ZM99.746 209.735C100.428 209.735 100.783 209.244 100.892 208.808V209.039C100.892 209.503 101.137 209.667 101.478 209.667H101.86V209.128H101.649C101.526 209.128 101.464 209.08 101.464 208.923V207.566C101.464 206.782 101.028 206.298 100.217 206.298C99.48 206.298 98.9891 206.714 98.7913 207.055L99.1936 207.471C99.3641 207.11 99.6778 206.837 100.148 206.837C100.667 206.837 100.851 207.123 100.871 207.512L99.6778 208.044C99.2073 208.255 98.8731 208.535 98.8731 208.978C98.8731 209.414 99.1868 209.735 99.746 209.735ZM99.4732 208.883C99.4732 208.678 99.6164 208.542 99.9301 208.392L100.892 207.941V208.398C100.892 208.876 100.496 209.244 99.9369 209.244C99.6301 209.244 99.4732 209.108 99.4732 208.883ZM103.14 209.667V205.098H102.547V209.667H103.14ZM107.365 209.735C108.251 209.735 108.913 209.258 108.913 208.467C108.913 207.566 108.203 207.314 107.556 207.157L107.058 207.035C106.533 206.905 106.199 206.734 106.199 206.278C106.199 205.855 106.574 205.602 107.078 205.602C107.672 205.602 108.135 205.855 108.354 206.475L108.851 206.08C108.572 205.398 107.917 205.036 107.092 205.036C106.294 205.036 105.571 205.487 105.571 206.319C105.571 207.178 106.26 207.45 106.867 207.587L107.297 207.682C107.903 207.826 108.306 207.955 108.306 208.48C108.306 208.978 107.876 209.176 107.365 209.176C106.792 209.176 106.083 208.91 105.871 208.167L105.421 208.562C105.721 209.408 106.505 209.735 107.365 209.735ZM110.388 209.735C111.07 209.735 111.424 209.244 111.533 208.808V209.039C111.533 209.503 111.779 209.667 112.12 209.667H112.502V209.128H112.29C112.168 209.128 112.106 209.08 112.106 208.923V207.566C112.106 206.782 111.67 206.298 110.858 206.298C110.122 206.298 109.631 206.714 109.433 207.055L109.835 207.471C110.006 207.11 110.32 206.837 110.79 206.837C111.308 206.837 111.492 207.123 111.513 207.512L110.32 208.044C109.849 208.255 109.515 208.535 109.515 208.978C109.515 209.414 109.829 209.735 110.388 209.735ZM110.115 208.883C110.115 208.678 110.258 208.542 110.572 208.392L111.533 207.941V208.398C111.533 208.876 111.138 209.244 110.579 209.244C110.272 209.244 110.115 209.108 110.115 208.883ZM114.576 209.667L115.777 206.366H115.142L114.495 208.323L114.215 209.23L113.929 208.323L113.274 206.366H112.633L113.826 209.667H114.576ZM116.859 205.834V205.098H116.265V205.834H116.859ZM116.859 209.667V206.366H116.265V209.667H116.859ZM118.344 209.667V207.798C118.344 207.246 118.575 206.803 119.21 206.803C119.769 206.803 119.939 207.103 119.939 207.532V209.667H120.526V207.389C120.526 206.687 120.123 206.298 119.476 206.298C118.828 206.298 118.473 206.734 118.344 207.246V206.366H117.75V209.667H118.344ZM122.655 208.658C123.433 208.658 123.958 208.167 123.958 207.478C123.958 207.069 123.767 206.721 123.453 206.516L124.06 205.834L123.446 205.616L123.242 206.407C123.071 206.339 122.873 206.298 122.655 206.298C121.878 206.298 121.353 206.789 121.353 207.478C121.353 207.894 121.544 208.242 121.871 208.446C121.551 208.705 121.353 208.992 121.353 209.251C121.353 209.469 121.462 209.626 121.673 209.694C121.421 209.796 121.141 209.98 121.141 210.287C121.141 210.724 121.673 211.003 122.519 211.003C123.63 211.003 124.244 210.56 124.244 209.933C124.244 209.435 123.869 209.196 123.269 209.196H122.273C121.932 209.196 121.837 209.108 121.837 208.93C121.837 208.787 121.932 208.63 122.014 208.521C122.198 208.61 122.417 208.658 122.655 208.658ZM122.655 208.201C122.246 208.201 121.926 207.928 121.926 207.478C121.926 207.028 122.246 206.755 122.655 206.755C123.071 206.755 123.385 207.028 123.385 207.478C123.385 207.928 123.071 208.201 122.655 208.201ZM122.519 210.533C121.926 210.533 121.619 210.369 121.619 210.103C121.619 209.946 121.735 209.803 121.844 209.708H123.194C123.528 209.708 123.692 209.803 123.692 210.015C123.692 210.342 123.269 210.533 122.519 210.533ZM126.018 209.735C126.659 209.735 127.218 209.442 127.218 208.787C127.218 208.33 126.973 208.023 126.229 207.846L125.807 207.737C125.357 207.628 125.138 207.526 125.138 207.232C125.138 206.953 125.384 206.803 125.725 206.803C126.195 206.803 126.509 207.048 126.673 207.437L127.123 207.103C126.939 206.666 126.455 206.298 125.759 206.298C125.043 206.298 124.579 206.666 124.579 207.266C124.579 207.873 125.091 208.098 125.561 208.207L125.998 208.31C126.386 208.398 126.686 208.494 126.686 208.794C126.686 209.087 126.427 209.237 126.039 209.237C125.384 209.237 125.022 208.862 124.907 208.487L124.477 208.821C124.702 209.435 125.329 209.735 126.018 209.735Z" fill="#6B7280"/>
<rect x="73.1221" y="270.564" width="216.331" height="31.8308" rx="15.9154" fill="#8807F7"/>
<path d="M160.583 288.685H159.518V283.309H157.584V282.366H162.526V283.309H160.583V288.685ZM164.344 288.78C163.023 288.78 162.118 287.818 162.118 286.393C162.118 284.96 163.023 283.998 164.344 283.998C165.683 283.998 166.588 284.96 166.588 286.393C166.588 287.818 165.683 288.78 164.344 288.78ZM164.353 287.903C165.042 287.903 165.513 287.45 165.513 286.393C165.513 285.328 165.042 284.875 164.353 284.875C163.674 284.875 163.203 285.328 163.203 286.393C163.203 287.45 163.674 287.903 164.353 287.903ZM168.569 290.44H167.513V284.092H168.569V285.318C168.72 284.602 169.126 283.988 170.04 283.988C171.153 283.988 171.87 284.903 171.87 286.384C171.87 287.865 171.153 288.78 170.022 288.78C169.107 288.78 168.72 288.167 168.569 287.459V290.44ZM168.569 286.667C168.569 287.422 168.88 287.921 169.625 287.921C170.286 287.921 170.786 287.422 170.786 286.384C170.786 285.347 170.286 284.847 169.625 284.847C168.88 284.847 168.569 285.347 168.569 286.101V286.667ZM177.205 288.78C175.517 288.78 174.697 287.903 174.697 285.988V282.366H175.753V285.997C175.753 287.252 176.177 287.761 177.215 287.761C178.271 287.761 178.677 287.252 178.677 285.997V282.366H179.733V285.988C179.733 287.903 178.931 288.78 177.205 288.78ZM181.896 290.44H180.84V284.092H181.896V285.318C182.047 284.602 182.453 283.988 183.368 283.988C184.481 283.988 185.197 284.903 185.197 286.384C185.197 287.865 184.481 288.78 183.349 288.78C182.434 288.78 182.047 288.167 181.896 287.459V290.44ZM181.896 286.667C181.896 287.422 182.208 287.921 182.953 287.921C183.613 287.921 184.113 287.422 184.113 286.384C184.113 285.347 183.613 284.847 182.953 284.847C182.208 284.847 181.896 285.347 181.896 286.101V286.667Z" fill="white"/>
<path d="M196.101 282.411L192.331 283.663C189.796 284.511 189.796 285.893 192.331 286.736L193.449 287.108L193.821 288.227C194.665 290.761 196.051 290.761 196.894 288.227L198.151 284.461C198.71 282.77 197.792 281.847 196.101 282.411ZM196.234 284.657L194.648 286.252C194.585 286.315 194.506 286.344 194.427 286.344C194.347 286.344 194.268 286.315 194.205 286.252C194.084 286.131 194.084 285.931 194.205 285.809L195.792 284.214C195.913 284.093 196.113 284.093 196.234 284.214C196.356 284.336 196.356 284.536 196.234 284.657Z" fill="white"/>
<path d="M75.5395 333.092C76.7774 333.092 77.6109 332.432 77.9657 331.293L77.322 330.872C77.1405 331.797 76.5958 332.415 75.5478 332.415C74.2852 332.415 73.7075 331.516 73.7075 330.253C73.7075 328.991 74.2852 328.091 75.5478 328.091C76.5958 328.091 77.1405 328.71 77.322 329.634L77.9657 329.214C77.6109 328.075 76.7774 327.414 75.5395 327.414C73.8643 327.414 72.9483 328.661 72.9483 330.253C72.9483 331.846 73.8643 333.092 75.5395 333.092ZM79.5685 333.026V330.765C79.5685 330.08 80.0306 329.478 80.5423 329.478C80.8311 329.478 80.9549 329.676 80.9549 329.907C80.9549 330.13 80.8476 330.377 80.7156 330.493H81.4996C81.5656 330.394 81.6564 330.146 81.6564 329.808C81.6564 329.247 81.2438 328.941 80.8146 328.941C80.1379 328.941 79.7253 329.478 79.5685 330.097V329.032H78.8505V333.026H79.5685ZM83.9273 333.109C84.7938 333.109 85.3467 332.704 85.6438 332.226L85.2064 331.73C85.0496 332.077 84.7278 332.514 83.9273 332.514C83.2176 332.514 82.7472 332.036 82.7059 331.194H85.6685C85.685 331.12 85.7015 330.996 85.7015 330.872C85.7015 329.7 85.0166 328.949 83.886 328.949C82.7884 328.949 82.0127 329.766 82.0127 331.029C82.0127 332.3 82.7967 333.109 83.9273 333.109ZM83.886 329.552C84.5545 329.552 84.9836 329.94 85.0579 330.674H82.7224C82.8132 329.931 83.2423 329.552 83.886 329.552ZM87.4608 333.109C88.286 333.109 88.7152 332.514 88.8472 331.986V332.267C88.8472 332.828 89.1443 333.026 89.5569 333.026H90.019V332.374H89.7632C89.6147 332.374 89.5404 332.316 89.5404 332.127V330.484C89.5404 329.535 89.0122 328.949 88.0302 328.949C87.1389 328.949 86.5448 329.453 86.3054 329.865L86.7923 330.369C86.9987 329.931 87.3783 329.601 87.9477 329.601C88.5749 329.601 88.7977 329.948 88.8224 330.418L87.3783 331.062C86.8088 331.318 86.4045 331.656 86.4045 332.193C86.4045 332.721 86.7841 333.109 87.4608 333.109ZM87.1307 332.077C87.1307 331.83 87.304 331.664 87.6836 331.483L88.8472 330.938V331.491C88.8472 332.069 88.3686 332.514 87.6919 332.514C87.3205 332.514 87.1307 332.349 87.1307 332.077ZM92.0745 333.117C92.6274 333.117 93.007 332.861 93.1803 332.589L92.941 331.879C92.8337 332.127 92.5861 332.424 92.2313 332.424C91.9177 332.424 91.6784 332.3 91.6784 331.788V329.593H92.9905V329.032H91.6784V327.992L90.9604 328.52V329.032H90.3167V329.593H90.9604V332.003C90.9604 332.688 91.4225 333.117 92.0745 333.117ZM95.3066 333.109C96.1731 333.109 96.726 332.704 97.0231 332.226L96.5857 331.73C96.4289 332.077 96.1071 332.514 95.3066 332.514C94.5969 332.514 94.1265 332.036 94.0852 331.194H97.0478C97.0643 331.12 97.0808 330.996 97.0808 330.872C97.0808 329.7 96.3959 328.949 95.2653 328.949C94.1677 328.949 93.392 329.766 93.392 331.029C93.392 332.3 94.176 333.109 95.3066 333.109ZM95.2653 329.552C95.9338 329.552 96.3629 329.94 96.4372 330.674H94.1017C94.1925 329.931 94.6216 329.552 95.2653 329.552ZM100.645 333.109C101.471 333.109 101.9 332.514 102.032 331.986V332.267C102.032 332.828 102.329 333.026 102.741 333.026H103.204V332.374H102.948C102.799 332.374 102.725 332.316 102.725 332.127V330.484C102.725 329.535 102.197 328.949 101.215 328.949C100.323 328.949 99.7293 329.453 99.49 329.865L99.9769 330.369C100.183 329.931 100.563 329.601 101.132 329.601C101.759 329.601 101.982 329.948 102.007 330.418L100.563 331.062C99.9934 331.318 99.589 331.656 99.589 332.193C99.589 332.721 99.9686 333.109 100.645 333.109ZM100.315 332.077C100.315 331.83 100.489 331.664 100.868 331.483L102.032 330.938V331.491C102.032 332.069 101.553 332.514 100.876 332.514C100.505 332.514 100.315 332.349 100.315 332.077ZM106.566 333.026V330.765C106.566 330.097 106.847 329.56 107.614 329.56C108.291 329.56 108.497 329.923 108.497 330.443V333.026H109.207V330.27C109.207 329.42 108.72 328.949 107.936 328.949C107.152 328.949 106.723 329.478 106.566 330.097V329.032H105.848V333.026H106.566ZM111.956 333.109C112.823 333.109 113.376 332.704 113.673 332.226L113.236 331.73C113.079 332.077 112.757 332.514 111.956 332.514C111.247 332.514 110.776 332.036 110.735 331.194H113.698C113.714 331.12 113.731 330.996 113.731 330.872C113.731 329.7 113.046 328.949 111.915 328.949C110.818 328.949 110.042 329.766 110.042 331.029C110.042 332.3 110.826 333.109 111.956 333.109ZM111.915 329.552C112.584 329.552 113.013 329.94 113.087 330.674H110.752C110.842 329.931 111.272 329.552 111.915 329.552ZM115.974 333.026L116.659 330.691L116.931 329.626L117.187 330.691L117.872 333.026H118.812L119.844 329.032H119.044L118.532 331.491L118.342 332.506L118.086 331.491L117.368 329.032H116.485L115.759 331.491L115.512 332.506L115.322 331.491L114.802 329.032H114.001L115.041 333.026H115.974ZM123.848 333.109C124.624 333.109 125.301 332.754 125.301 331.962C125.301 331.409 125.003 331.037 124.104 330.823L123.592 330.691C123.048 330.559 122.784 330.435 122.784 330.08C122.784 329.742 123.081 329.56 123.493 329.56C124.063 329.56 124.442 329.857 124.64 330.328L125.185 329.923C124.962 329.395 124.376 328.949 123.534 328.949C122.668 328.949 122.107 329.395 122.107 330.121C122.107 330.856 122.726 331.128 123.295 331.26L123.823 331.384C124.294 331.491 124.657 331.607 124.657 331.97C124.657 332.325 124.343 332.506 123.873 332.506C123.081 332.506 122.643 332.052 122.503 331.598L121.983 332.003C122.255 332.746 123.015 333.109 123.848 333.109ZM126.982 333.109C127.807 333.109 128.236 332.514 128.369 331.986V332.267C128.369 332.828 128.666 333.026 129.078 333.026H129.54V332.374H129.285C129.136 332.374 129.062 332.316 129.062 332.127V330.484C129.062 329.535 128.534 328.949 127.552 328.949C126.66 328.949 126.066 329.453 125.827 329.865L126.314 330.369C126.52 329.931 126.9 329.601 127.469 329.601C128.096 329.601 128.319 329.948 128.344 330.418L126.9 331.062C126.33 331.318 125.926 331.656 125.926 332.193C125.926 332.721 126.305 333.109 126.982 333.109ZM126.652 332.077C126.652 331.83 126.825 331.664 127.205 331.483L128.369 330.938V331.491C128.369 332.069 127.89 332.514 127.213 332.514C126.842 332.514 126.652 332.349 126.652 332.077ZM132.051 333.026L133.504 329.032H132.736L131.952 331.4L131.614 332.498L131.267 331.4L130.475 329.032H129.699L131.143 333.026H132.051ZM134.813 328.388V327.497H134.095V328.388H134.813ZM134.813 333.026V329.032H134.095V333.026H134.813ZM136.61 333.026V330.765C136.61 330.097 136.891 329.56 137.658 329.56C138.335 329.56 138.541 329.923 138.541 330.443V333.026H139.251V330.27C139.251 329.42 138.764 328.949 137.98 328.949C137.196 328.949 136.767 329.478 136.61 330.097V329.032H135.892V333.026H136.61ZM141.828 331.805C142.769 331.805 143.404 331.211 143.404 330.377C143.404 329.882 143.173 329.461 142.793 329.214L143.528 328.388L142.785 328.124L142.538 329.081C142.331 328.999 142.092 328.949 141.828 328.949C140.887 328.949 140.252 329.544 140.252 330.377C140.252 330.88 140.483 331.301 140.879 331.549C140.491 331.863 140.252 332.209 140.252 332.523C140.252 332.787 140.384 332.977 140.64 333.059C140.334 333.183 139.996 333.406 139.996 333.777C139.996 334.305 140.64 334.644 141.663 334.644C143.008 334.644 143.751 334.107 143.751 333.348C143.751 332.746 143.297 332.457 142.571 332.457H141.366C140.953 332.457 140.838 332.349 140.838 332.135C140.838 331.962 140.953 331.772 141.052 331.64C141.275 331.747 141.539 331.805 141.828 331.805ZM141.828 331.252C141.333 331.252 140.945 330.922 140.945 330.377C140.945 329.832 141.333 329.502 141.828 329.502C142.331 329.502 142.711 329.832 142.711 330.377C142.711 330.922 142.331 331.252 141.828 331.252ZM141.663 334.074C140.945 334.074 140.574 333.876 140.574 333.554C140.574 333.364 140.714 333.191 140.846 333.076H142.48C142.884 333.076 143.082 333.191 143.082 333.447C143.082 333.843 142.571 334.074 141.663 334.074ZM145.898 333.109C146.673 333.109 147.35 332.754 147.35 331.962C147.35 331.409 147.053 331.037 146.153 330.823L145.642 330.691C145.097 330.559 144.833 330.435 144.833 330.08C144.833 329.742 145.13 329.56 145.543 329.56C146.112 329.56 146.492 329.857 146.69 330.328L147.234 329.923C147.012 329.395 146.426 328.949 145.584 328.949C144.717 328.949 144.156 329.395 144.156 330.121C144.156 330.856 144.775 331.128 145.345 331.26L145.873 331.384C146.343 331.491 146.706 331.607 146.706 331.97C146.706 332.325 146.393 332.506 145.922 332.506C145.13 332.506 144.693 332.052 144.552 331.598L144.032 332.003C144.305 332.746 145.064 333.109 145.898 333.109ZM150.713 334.561V331.995C150.854 332.597 151.233 333.109 152.001 333.109C153.008 333.109 153.635 332.283 153.635 331.021C153.635 329.758 153.008 328.941 152.001 328.941C151.233 328.941 150.854 329.453 150.713 330.055V329.032H149.995V334.561H150.713ZM150.713 331.31V330.74C150.713 330.08 150.994 329.544 151.753 329.544C152.389 329.544 152.909 330.006 152.909 331.021C152.909 332.044 152.389 332.506 151.753 332.506C150.994 332.506 150.713 331.97 150.713 331.31ZM155.218 333.026V327.497H154.5V333.026H155.218ZM157.123 333.109C157.948 333.109 158.377 332.514 158.509 331.986V332.267C158.509 332.828 158.806 333.026 159.219 333.026H159.681V332.374H159.425C159.277 332.374 159.202 332.316 159.202 332.127V330.484C159.202 329.535 158.674 328.949 157.692 328.949C156.801 328.949 156.207 329.453 155.967 329.865L156.454 330.369C156.661 329.931 157.04 329.601 157.61 329.601C158.237 329.601 158.46 329.948 158.484 330.418L157.04 331.062C156.471 331.318 156.066 331.656 156.066 332.193C156.066 332.721 156.446 333.109 157.123 333.109ZM156.793 332.077C156.793 331.83 156.966 331.664 157.346 331.483L158.509 330.938V331.491C158.509 332.069 158.031 332.514 157.354 332.514C156.983 332.514 156.793 332.349 156.793 332.077ZM161.23 333.026V330.765C161.23 330.097 161.511 329.56 162.278 329.56C162.955 329.56 163.161 329.923 163.161 330.443V333.026H163.871V330.27C163.871 329.42 163.384 328.949 162.6 328.949C161.816 328.949 161.387 329.478 161.23 330.097V329.032H160.512V333.026H161.23Z" fill="#3D0072"/>
<g clip-path="url(#clip2_241_681)">
<g filter="url(#filter0_d_241_681)">
<rect x="73.1235" y="348.962" width="216.921" height="90.7766" rx="4.21366" fill="#FFFAF0"/>
</g>
<rect x="89.6882" y="365.06" width="31.1814" height="28.426" rx="2.75542" fill="#FBBF24"/>
<path d="M101.423 384.919C101.099 384.919 100.821 384.804 100.591 384.573C100.36 384.342 100.244 384.064 100.244 383.74V377.846C100.244 377.521 100.36 377.244 100.591 377.013C100.821 376.782 101.099 376.667 101.423 376.667H102.013V375.488C102.013 374.672 102.3 373.977 102.875 373.402C103.449 372.828 104.144 372.54 104.96 372.54C105.775 372.54 106.47 372.828 107.045 373.402C107.62 373.977 107.907 374.672 107.907 375.488V376.667H108.497C108.821 376.667 109.098 376.782 109.329 377.013C109.56 377.244 109.675 377.521 109.675 377.846V383.74C109.675 384.064 109.56 384.342 109.329 384.573C109.098 384.804 108.821 384.919 108.497 384.919H101.423ZM104.96 381.972C105.284 381.972 105.562 381.856 105.793 381.626C106.023 381.395 106.139 381.117 106.139 380.793C106.139 380.469 106.023 380.191 105.793 379.96C105.562 379.729 105.284 379.614 104.96 379.614C104.636 379.614 104.358 379.729 104.127 379.96C103.896 380.191 103.781 380.469 103.781 380.793C103.781 381.117 103.896 381.395 104.127 381.626C104.358 381.856 104.636 381.972 104.96 381.972ZM103.191 376.667H106.728V375.488C106.728 374.996 106.556 374.579 106.212 374.235C105.869 373.891 105.451 373.719 104.96 373.719C104.469 373.719 104.051 373.891 103.707 374.235C103.363 374.579 103.191 374.996 103.191 375.488V376.667Z" fill="white"/>
<path d="M137.55 385.617V385.275H135.286V383.778H137.167V383.43H135.286V382.01H137.55V381.668H134.897V385.617H137.55ZM139.201 385.617L140.268 382.788H139.855L139.242 384.509L138.971 385.323L138.688 384.509L138.075 382.788H137.651L138.717 385.617H139.201ZM141.791 385.676C142.392 385.676 142.769 385.387 142.97 385.04L142.734 384.763C142.61 385.04 142.363 385.352 141.791 385.352C141.231 385.352 140.848 384.998 140.824 384.291H142.982C142.988 384.244 142.999 384.173 142.999 384.102C142.999 383.248 142.516 382.729 141.744 382.729C140.977 382.729 140.453 383.283 140.453 384.203C140.453 385.14 141.001 385.676 141.791 385.676ZM141.744 383.047C142.262 383.047 142.61 383.371 142.646 384.008H140.83C140.883 383.371 141.225 383.047 141.744 383.047ZM144.069 385.617V383.979C144.069 383.489 144.405 383.018 144.829 383.018C145.089 383.018 145.195 383.183 145.195 383.366C145.195 383.537 145.124 383.719 145.048 383.808H145.466C145.519 383.713 145.572 383.537 145.572 383.324C145.572 382.935 145.301 382.723 144.971 382.723C144.488 382.723 144.175 383.112 144.069 383.56V382.788H143.68V385.617H144.069ZM146.37 386.613C146.753 386.613 147.03 386.407 147.195 385.953L148.392 382.788H147.985L147.278 384.727L147.071 385.311L146.871 384.727L146.158 382.788H145.745L146.783 385.523L147.001 385.517L146.895 385.8C146.771 386.148 146.606 386.272 146.376 386.272C146.117 386.272 145.957 386.112 145.839 385.883L145.621 386.166C145.727 386.378 145.987 386.613 146.37 386.613ZM149.883 385.676C150.661 385.676 151.209 385.099 151.209 384.203C151.209 383.307 150.661 382.729 149.883 382.729C149.105 382.729 148.563 383.307 148.563 384.203C148.563 385.099 149.105 385.676 149.883 385.676ZM149.883 385.346C149.329 385.346 148.952 384.951 148.952 384.203C148.952 383.448 149.329 383.047 149.883 383.047C150.443 383.047 150.82 383.448 150.82 384.203C150.82 384.951 150.443 385.346 149.883 385.346ZM152.278 385.617V383.979C152.278 383.489 152.519 383.053 153.115 383.053C153.604 383.053 153.816 383.336 153.816 383.796V385.617H154.205V383.707C154.205 383.059 153.828 382.729 153.268 382.729C152.702 382.729 152.378 383.118 152.278 383.578V382.788H151.889V385.617H152.278ZM156.182 385.676C156.783 385.676 157.16 385.387 157.361 385.04L157.125 384.763C157.001 385.04 156.754 385.352 156.182 385.352C155.622 385.352 155.239 384.998 155.215 384.291H157.373C157.379 384.244 157.39 384.173 157.39 384.102C157.39 383.248 156.907 382.729 156.135 382.729C155.369 382.729 154.844 383.283 154.844 384.203C154.844 385.14 155.392 385.676 156.182 385.676ZM156.135 383.047C156.654 383.047 157.001 383.371 157.037 384.008H155.221C155.274 383.371 155.616 383.047 156.135 383.047ZM159.767 385.617V383.979C159.767 383.489 160.009 383.053 160.604 383.053C161.093 383.053 161.305 383.336 161.305 383.796V385.617H161.694V383.707C161.694 383.059 161.317 382.729 160.757 382.729C160.191 382.729 159.867 383.118 159.767 383.578V382.788H159.378V385.617H159.767ZM163.671 385.676C164.272 385.676 164.65 385.387 164.85 385.04L164.614 384.763C164.49 385.04 164.243 385.352 163.671 385.352C163.111 385.352 162.728 384.998 162.704 384.291H164.862C164.868 384.244 164.879 384.173 164.879 384.102C164.879 383.248 164.396 382.729 163.624 382.729C162.858 382.729 162.333 383.283 162.333 384.203C162.333 385.14 162.881 385.676 163.671 385.676ZM163.624 383.047C164.143 383.047 164.49 383.371 164.526 384.008H162.71C162.763 383.371 163.105 383.047 163.624 383.047ZM166.803 385.676C167.404 385.676 167.781 385.387 167.982 385.04L167.746 384.763C167.622 385.04 167.374 385.352 166.803 385.352C166.243 385.352 165.859 384.998 165.836 384.291H167.993C167.999 384.244 168.011 384.173 168.011 384.102C168.011 383.248 167.528 382.729 166.755 382.729C165.989 382.729 165.465 383.283 165.465 384.203C165.465 385.14 166.013 385.676 166.803 385.676ZM166.755 383.047C167.274 383.047 167.622 383.371 167.657 384.008H165.842C165.895 383.371 166.237 383.047 166.755 383.047ZM169.763 385.682C170.323 385.682 170.624 385.293 170.712 384.845V385.617H171.095V381.668H170.712V383.566C170.624 383.118 170.323 382.729 169.763 382.729C169.026 382.729 168.584 383.313 168.584 384.203C168.584 385.099 169.026 385.682 169.763 385.682ZM168.979 384.203C168.979 383.413 169.368 383.053 169.881 383.053C170.453 383.053 170.712 383.466 170.712 383.937V384.468C170.712 384.939 170.453 385.358 169.881 385.358C169.368 385.358 168.979 384.998 168.979 384.203ZM173.006 385.676C173.53 385.676 173.99 385.435 173.99 384.892C173.99 384.491 173.754 384.25 173.165 384.102L172.788 384.008C172.375 383.908 172.163 383.802 172.163 383.507C172.163 383.212 172.404 383.053 172.746 383.053C173.188 383.053 173.483 383.265 173.613 383.649L173.908 383.43C173.766 383.03 173.371 382.729 172.77 382.729C172.186 382.729 171.797 383.035 171.797 383.525C171.797 384.032 172.216 384.22 172.623 384.321L173.006 384.409C173.389 384.497 173.642 384.603 173.642 384.898C173.642 385.193 173.395 385.346 173.017 385.346C172.446 385.346 172.092 385.028 172.004 384.645L171.715 384.863C171.886 385.417 172.428 385.676 173.006 385.676ZM176.493 385.676C177.059 385.676 177.425 385.24 177.519 384.833V385.134C177.519 385.494 177.707 385.617 177.99 385.617H178.256V385.27H178.091C177.955 385.27 177.89 385.216 177.89 385.069V383.743C177.89 383.112 177.548 382.729 176.888 382.729C176.287 382.729 175.874 383.065 175.697 383.36L175.969 383.631C176.116 383.318 176.422 383.077 176.847 383.077C177.307 383.077 177.507 383.324 177.507 383.749V383.772L176.434 384.262C176.039 384.438 175.762 384.674 175.762 385.046C175.762 385.423 176.027 385.676 176.493 385.676ZM176.151 384.992C176.151 384.78 176.293 384.639 176.599 384.497L177.519 384.061V384.562C177.519 384.945 177.13 385.352 176.605 385.352C176.328 385.352 176.151 385.228 176.151 384.992ZM179.27 385.617V383.979C179.27 383.489 179.511 383.053 180.107 383.053C180.596 383.053 180.808 383.336 180.808 383.796V385.617H181.197V383.707C181.197 383.059 180.82 382.729 180.26 382.729C179.694 382.729 179.37 383.118 179.27 383.578V382.788H178.881V385.617H179.27ZM184.481 385.676C185.082 385.676 185.459 385.387 185.66 385.04L185.424 384.763C185.3 385.04 185.052 385.352 184.481 385.352C183.921 385.352 183.537 384.998 183.514 384.291H185.671C185.677 384.244 185.689 384.173 185.689 384.102C185.689 383.248 185.206 382.729 184.433 382.729C183.667 382.729 183.143 383.283 183.143 384.203C183.143 385.14 183.691 385.676 184.481 385.676ZM184.433 383.047C184.952 383.047 185.3 383.371 185.335 384.008H183.52C183.573 383.371 183.915 383.047 184.433 383.047ZM186.759 385.617V383.979C186.759 383.489 187 383.053 187.501 383.053C187.944 383.053 188.162 383.295 188.162 383.79V385.617H188.545V383.979C188.545 383.489 188.787 383.053 189.293 383.053C189.73 383.053 189.948 383.295 189.948 383.79V385.617H190.337V383.702C190.337 383.053 190.03 382.729 189.488 382.729C188.957 382.729 188.633 383.124 188.539 383.59C188.509 383.018 188.209 382.729 187.696 382.729C187.171 382.729 186.859 383.112 186.759 383.578V382.788H186.37V385.617H186.759ZM192.309 385.676C192.911 385.676 193.288 385.387 193.488 385.04L193.252 384.763C193.129 385.04 192.881 385.352 192.309 385.352C191.749 385.352 191.366 384.998 191.343 384.291H193.5C193.506 384.244 193.518 384.173 193.518 384.102C193.518 383.248 193.034 382.729 192.262 382.729C191.496 382.729 190.971 383.283 190.971 384.203C190.971 385.14 191.519 385.676 192.309 385.676ZM192.262 383.047C192.781 383.047 193.129 383.371 193.164 384.008H191.349C191.402 383.371 191.743 383.047 192.262 383.047ZM194.588 385.617V383.979C194.588 383.489 194.924 383.018 195.348 383.018C195.607 383.018 195.713 383.183 195.713 383.366C195.713 383.537 195.643 383.719 195.566 383.808H195.985C196.038 383.713 196.091 383.537 196.091 383.324C196.091 382.935 195.819 382.723 195.489 382.723C195.006 382.723 194.694 383.112 194.588 383.56V382.788H194.198V385.617H194.588ZM197.569 384.745C198.229 384.745 198.665 384.326 198.665 383.737C198.665 383.389 198.512 383.1 198.247 382.918L198.753 382.31L198.347 382.157L198.117 382.841C197.958 382.77 197.775 382.729 197.569 382.729C196.914 382.729 196.472 383.147 196.472 383.737C196.472 384.097 196.637 384.391 196.908 384.568C196.673 384.751 196.496 384.987 196.496 385.216C196.496 385.387 196.59 385.523 196.785 385.576C196.561 385.664 196.278 385.847 196.278 386.142C196.278 386.531 196.726 386.773 197.445 386.773C198.353 386.773 198.895 386.395 198.895 385.871C198.895 385.458 198.588 385.258 198.093 385.258H197.215C196.908 385.258 196.814 385.163 196.814 385.004C196.814 384.869 196.903 384.721 196.991 384.615C197.156 384.698 197.351 384.745 197.569 384.745ZM197.569 384.444C197.15 384.444 196.85 384.167 196.85 383.737C196.85 383.307 197.15 383.03 197.569 383.03C197.993 383.03 198.294 383.307 198.294 383.737C198.294 384.167 197.993 384.444 197.569 384.444ZM197.445 386.466C196.908 386.466 196.596 386.307 196.596 386.03C196.596 385.847 196.749 385.682 196.891 385.594H198.04C198.376 385.594 198.535 385.694 198.535 385.918C198.535 386.242 198.129 386.466 197.445 386.466ZM200.581 385.676C201.183 385.676 201.56 385.387 201.76 385.04L201.524 384.763C201.401 385.04 201.153 385.352 200.581 385.352C200.021 385.352 199.638 384.998 199.615 384.291H201.772C201.778 384.244 201.79 384.173 201.79 384.102C201.79 383.248 201.306 382.729 200.534 382.729C199.768 382.729 199.243 383.283 199.243 384.203C199.243 385.14 199.791 385.676 200.581 385.676ZM200.534 383.047C201.053 383.047 201.401 383.371 201.436 384.008H199.621C199.674 383.371 200.015 383.047 200.534 383.047ZM202.86 385.617V383.979C202.86 383.489 203.101 383.053 203.697 383.053C204.186 383.053 204.398 383.336 204.398 383.796V385.617H204.787V383.707C204.787 383.059 204.41 382.729 203.85 382.729C203.284 382.729 202.96 383.118 202.86 383.578V382.788H202.47V385.617H202.86ZM206.734 385.676C207.442 385.676 207.884 385.264 207.996 384.692L207.624 384.533C207.565 385.01 207.282 385.352 206.74 385.352C206.18 385.352 205.809 384.951 205.809 384.203C205.809 383.448 206.18 383.047 206.74 383.047C207.282 383.047 207.565 383.395 207.624 383.873L207.996 383.713C207.884 383.142 207.442 382.729 206.74 382.729C205.938 382.729 205.414 383.283 205.414 384.203C205.414 385.122 205.938 385.676 206.734 385.676ZM208.827 386.613C209.21 386.613 209.487 386.407 209.652 385.953L210.849 382.788H210.442L209.735 384.727L209.529 385.311L209.328 384.727L208.615 382.788H208.202L209.24 385.523L209.458 385.517L209.352 385.8C209.228 386.148 209.063 386.272 208.833 386.272C208.574 386.272 208.415 386.112 208.297 385.883L208.079 386.166C208.185 386.378 208.444 386.613 208.827 386.613ZM213.168 385.617V383.089H214.111V382.788H213.168V382.428C213.168 382.086 213.339 381.933 213.616 381.933C213.875 381.933 214.088 382.086 214.206 382.299L214.412 382.016C214.294 381.821 214.023 381.609 213.622 381.609C213.139 381.609 212.785 381.886 212.785 382.458V382.788H212.319V383.089H212.785V385.617H213.168ZM215.524 385.676C216.108 385.676 216.426 385.281 216.526 384.81V385.617H216.91V382.788H216.526V384.421C216.526 384.916 216.291 385.346 215.678 385.346C215.194 385.346 214.982 385.063 214.982 384.609V382.788H214.599V384.692C214.599 385.346 214.97 385.676 215.524 385.676ZM218.126 385.617V383.979C218.126 383.489 218.367 383.053 218.963 383.053C219.452 383.053 219.664 383.336 219.664 383.796V385.617H220.053V383.707C220.053 383.059 219.676 382.729 219.116 382.729C218.55 382.729 218.226 383.118 218.126 383.578V382.788H217.737V385.617H218.126ZM221.859 385.682C222.419 385.682 222.719 385.293 222.808 384.845V385.617H223.191V381.668H222.808V383.566C222.719 383.118 222.419 382.729 221.859 382.729C221.122 382.729 220.68 383.313 220.68 384.203C220.68 385.099 221.122 385.682 221.859 385.682ZM221.075 384.203C221.075 383.413 221.464 383.053 221.977 383.053C222.549 383.053 222.808 383.466 222.808 383.937V384.468C222.808 384.939 222.549 385.358 221.977 385.358C221.464 385.358 221.075 384.998 221.075 384.203ZM224.37 385.617V384.922H223.905V385.617H224.37ZM227.656 385.617L228.487 382.835L228.705 381.998L228.923 382.835L229.755 385.617H230.208L231.352 381.668H230.916L230.161 384.421L229.99 385.252L229.784 384.432L228.959 381.668H228.469L227.632 384.432L227.42 385.252L227.249 384.421L226.512 381.668H226.065L227.202 385.617H227.656ZM232.771 385.676C233.373 385.676 233.75 385.387 233.95 385.04L233.714 384.763C233.591 385.04 233.343 385.352 232.771 385.352C232.211 385.352 231.828 384.998 231.805 384.291H233.962C233.968 384.244 233.98 384.173 233.98 384.102C233.98 383.248 233.496 382.729 232.724 382.729C231.958 382.729 231.433 383.283 231.433 384.203C231.433 385.14 231.981 385.676 232.771 385.676ZM232.724 383.047C233.243 383.047 233.591 383.371 233.626 384.008H231.81C231.864 383.371 232.205 383.047 232.724 383.047ZM236.356 385.617V383.979C236.356 383.489 236.598 383.053 237.099 383.053C237.541 383.053 237.759 383.295 237.759 383.79V385.617H238.142V383.979C238.142 383.489 238.384 383.053 238.891 383.053C239.327 383.053 239.545 383.295 239.545 383.79V385.617H239.934V383.702C239.934 383.053 239.628 382.729 239.085 382.729C238.555 382.729 238.231 383.124 238.136 383.59C238.107 383.018 237.806 382.729 237.293 382.729C236.769 382.729 236.456 383.112 236.356 383.578V382.788H235.967V385.617H236.356ZM241.305 385.676C241.871 385.676 242.236 385.24 242.33 384.833V385.134C242.33 385.494 242.519 385.617 242.802 385.617H243.067V385.27H242.902C242.767 385.27 242.702 385.216 242.702 385.069V383.743C242.702 383.112 242.36 382.729 241.7 382.729C241.098 382.729 240.686 383.065 240.509 383.36L240.78 383.631C240.928 383.318 241.234 383.077 241.658 383.077C242.118 383.077 242.319 383.324 242.319 383.749V383.772L241.246 384.262C240.851 384.438 240.574 384.674 240.574 385.046C240.574 385.423 240.839 385.676 241.305 385.676ZM240.963 384.992C240.963 384.78 241.104 384.639 241.411 384.497L242.33 384.061V384.562C242.33 384.945 241.941 385.352 241.417 385.352C241.14 385.352 240.963 385.228 240.963 384.992ZM244.081 385.617V384.58L244.612 384.079L245.573 385.617H246.044L244.877 383.849L246.021 382.788H245.531L244.435 383.802L244.064 384.167L244.081 383.814V381.668H243.692V385.617H244.081ZM247.611 385.676C248.213 385.676 248.59 385.387 248.79 385.04L248.555 384.763C248.431 385.04 248.183 385.352 247.611 385.352C247.051 385.352 246.668 384.998 246.645 384.291H248.802C248.808 384.244 248.82 384.173 248.82 384.102C248.82 383.248 248.336 382.729 247.564 382.729C246.798 382.729 246.273 383.283 246.273 384.203C246.273 385.14 246.821 385.676 247.611 385.676ZM247.564 383.047C248.083 383.047 248.431 383.371 248.466 384.008H246.651C246.704 383.371 247.045 383.047 247.564 383.047ZM251.196 382.281V381.668H250.807V382.281H251.196ZM251.196 385.617V382.788H250.807V385.617H251.196ZM252.947 385.682C253.313 385.682 253.59 385.511 253.714 385.305L253.578 384.928C253.484 385.128 253.277 385.311 253.024 385.311C252.776 385.311 252.564 385.199 252.564 384.792V383.089H253.513V382.788H252.564V382.092L252.181 382.381V382.788H251.721V383.089H252.181V384.898C252.181 385.411 252.517 385.682 252.947 385.682ZM256.843 385.617C258.087 385.617 258.7 384.892 258.7 383.643C258.7 382.393 258.087 381.668 256.843 381.668H255.54V385.617H256.843ZM256.79 382.01C257.769 382.01 258.305 382.499 258.305 383.643C258.305 384.786 257.769 385.275 256.79 385.275H255.929V382.01H256.79ZM259.827 385.617V381.668H259.437V385.617H259.827ZM262.457 385.617C263.311 385.617 263.789 385.228 263.789 384.562C263.789 384.067 263.5 383.649 262.663 383.56C263.37 383.483 263.612 383.083 263.612 382.67C263.612 382.069 263.217 381.668 262.415 381.668H260.865V385.617H262.457ZM262.292 382.01C262.828 382.01 263.217 382.175 263.217 382.717C263.217 383.254 262.828 383.419 262.274 383.419H261.254V382.01H262.292ZM262.333 383.761C262.94 383.761 263.394 383.985 263.394 384.515C263.394 385.051 263.058 385.275 262.392 385.275H261.254V383.761H262.333ZM264.885 382.281V381.668H264.496V382.281H264.885ZM264.885 385.617V382.788H264.496V385.617H264.885ZM266.1 385.617V384.875C266.194 385.311 266.5 385.682 267.043 385.682C267.785 385.682 268.228 385.099 268.228 384.203C268.228 383.313 267.785 382.729 267.043 382.729C266.5 382.729 266.194 383.1 266.1 383.537V381.668H265.711V385.617H266.1ZM266.1 384.468V383.937C266.1 383.466 266.353 383.053 266.925 383.053C267.444 383.053 267.833 383.413 267.833 384.203C267.833 384.998 267.444 385.358 266.925 385.358C266.353 385.358 266.1 384.939 266.1 384.468ZM269.277 385.617V381.668H268.888V385.617H269.277ZM271.288 385.676C271.889 385.676 272.266 385.387 272.466 385.04L272.231 384.763C272.107 385.04 271.859 385.352 271.288 385.352C270.728 385.352 270.344 384.998 270.321 384.291H272.478C272.484 384.244 272.496 384.173 272.496 384.102C272.496 383.248 272.013 382.729 271.24 382.729C270.474 382.729 269.95 383.283 269.95 384.203C269.95 385.14 270.498 385.676 271.288 385.676ZM271.24 383.047C271.759 383.047 272.107 383.371 272.142 384.008H270.327C270.38 383.371 270.722 383.047 271.24 383.047ZM135.392 395.676C135.958 395.676 136.324 395.24 136.418 394.833V395.134C136.418 395.494 136.607 395.617 136.889 395.617H137.155V395.27H136.99C136.854 395.27 136.789 395.216 136.789 395.069V393.743C136.789 393.112 136.447 392.729 135.787 392.729C135.186 392.729 134.773 393.065 134.596 393.36L134.868 393.631C135.015 393.318 135.322 393.077 135.746 393.077C136.206 393.077 136.406 393.324 136.406 393.749V393.772L135.333 394.262C134.938 394.438 134.661 394.674 134.661 395.046C134.661 395.423 134.927 395.676 135.392 395.676ZM135.05 394.992C135.05 394.78 135.192 394.639 135.498 394.497L136.418 394.061V394.562C136.418 394.945 136.029 395.352 135.504 395.352C135.227 395.352 135.05 395.228 135.05 394.992ZM138.169 395.617V393.979C138.169 393.489 138.41 393.053 139.006 393.053C139.495 393.053 139.707 393.336 139.707 393.796V395.617H140.096V393.707C140.096 393.059 139.719 392.729 139.159 392.729C138.593 392.729 138.269 393.118 138.169 393.578V392.788H137.78V395.617H138.169ZM141.902 395.682C142.462 395.682 142.763 395.293 142.851 394.845V395.617H143.234V391.668H142.851V393.566C142.763 393.118 142.462 392.729 141.902 392.729C141.165 392.729 140.723 393.313 140.723 394.203C140.723 395.099 141.165 395.682 141.902 395.682ZM141.118 394.203C141.118 393.413 141.507 393.053 142.02 393.053C142.592 393.053 142.851 393.466 142.851 393.937V394.468C142.851 394.939 142.592 395.358 142.02 395.358C141.507 395.358 141.118 394.998 141.118 394.203ZM145.909 395.676C146.475 395.676 146.841 395.24 146.935 394.833V395.134C146.935 395.494 147.124 395.617 147.406 395.617H147.672V395.27H147.507C147.371 395.27 147.306 395.216 147.306 395.069V393.743C147.306 393.112 146.964 392.729 146.304 392.729C145.703 392.729 145.29 393.065 145.113 393.36L145.385 393.631C145.532 393.318 145.839 393.077 146.263 393.077C146.723 393.077 146.923 393.324 146.923 393.749V393.772L145.85 394.262C145.455 394.438 145.178 394.674 145.178 395.046C145.178 395.423 145.444 395.676 145.909 395.676ZM145.567 394.992C145.567 394.78 145.709 394.639 146.015 394.497L146.935 394.061V394.562C146.935 394.945 146.546 395.352 146.021 395.352C145.744 395.352 145.567 395.228 145.567 394.992ZM149.204 395.676C149.788 395.676 150.106 395.281 150.207 394.81V395.617H150.59V392.788H150.207V394.421C150.207 394.916 149.971 395.346 149.358 395.346C148.874 395.346 148.662 395.063 148.662 394.609V392.788H148.279V394.692C148.279 395.346 148.65 395.676 149.204 395.676ZM152.256 395.682C152.621 395.682 152.898 395.511 153.022 395.305L152.887 394.928C152.792 395.128 152.586 395.311 152.332 395.311C152.085 395.311 151.873 395.199 151.873 394.792V393.089H152.822V392.788H151.873V392.092L151.489 392.381V392.788H151.03V393.089H151.489V394.898C151.489 395.411 151.825 395.682 152.256 395.682ZM154.46 395.676C155.238 395.676 155.786 395.099 155.786 394.203C155.786 393.307 155.238 392.729 154.46 392.729C153.681 392.729 153.139 393.307 153.139 394.203C153.139 395.099 153.681 395.676 154.46 395.676ZM154.46 395.346C153.905 395.346 153.528 394.951 153.528 394.203C153.528 393.448 153.905 393.047 154.46 393.047C155.02 393.047 155.397 393.448 155.397 394.203C155.397 394.951 155.02 395.346 154.46 395.346ZM156.854 395.617V393.979C156.854 393.489 157.096 393.053 157.597 393.053C158.039 393.053 158.257 393.295 158.257 393.79V395.617H158.64V393.979C158.64 393.489 158.882 393.053 159.389 393.053C159.825 393.053 160.043 393.295 160.043 393.79V395.617H160.432V393.702C160.432 393.053 160.126 392.729 159.583 392.729C159.053 392.729 158.729 393.124 158.634 393.59C158.605 393.018 158.304 392.729 157.791 392.729C157.267 392.729 156.954 393.112 156.854 393.578V392.788H156.465V395.617H156.854ZM161.803 395.676C162.369 395.676 162.734 395.24 162.828 394.833V395.134C162.828 395.494 163.017 395.617 163.3 395.617H163.565V395.27H163.4C163.265 395.27 163.2 395.216 163.2 395.069V393.743C163.2 393.112 162.858 392.729 162.198 392.729C161.596 392.729 161.184 393.065 161.007 393.36L161.278 393.631C161.425 393.318 161.732 393.077 162.156 393.077C162.616 393.077 162.817 393.324 162.817 393.749V393.772L161.744 394.262C161.349 394.438 161.072 394.674 161.072 395.046C161.072 395.423 161.337 395.676 161.803 395.676ZM161.461 394.992C161.461 394.78 161.602 394.639 161.909 394.497L162.828 394.061V394.562C162.828 394.945 162.439 395.352 161.915 395.352C161.638 395.352 161.461 395.228 161.461 394.992ZM165.029 395.682C165.395 395.682 165.672 395.511 165.796 395.305L165.66 394.928C165.566 395.128 165.359 395.311 165.106 395.311C164.858 395.311 164.646 395.199 164.646 394.792V393.089H165.595V392.788H164.646V392.092L164.263 392.381V392.788H163.803V393.089H164.263V394.898C164.263 395.411 164.599 395.682 165.029 395.682ZM166.709 392.281V391.668H166.32V392.281H166.709ZM166.709 395.617V392.788H166.32V395.617H166.709ZM168.69 395.676C169.397 395.676 169.839 395.264 169.951 394.692L169.58 394.533C169.521 395.01 169.238 395.352 168.696 395.352C168.136 395.352 167.765 394.951 167.765 394.203C167.765 393.448 168.136 393.047 168.696 393.047C169.238 393.047 169.521 393.395 169.58 393.873L169.951 393.713C169.839 393.142 169.397 392.729 168.696 392.729C167.894 392.729 167.37 393.283 167.37 394.203C167.37 395.122 167.894 395.676 168.69 395.676ZM170.951 395.617V394.922H170.485V395.617H170.951Z" fill="#3D0072"/>
<rect x="134.427" y="403.462" width="65.5783" height="22.147" rx="11.0735" fill="#FBBF24"/>
<path d="M148.982 417.642C148.614 417.642 148.284 417.585 147.992 417.472C147.699 417.359 147.452 417.194 147.249 416.977C147.046 416.755 146.891 416.486 146.782 416.17C146.674 415.854 146.619 415.491 146.619 415.081C146.619 414.671 146.681 414.308 146.803 413.992C146.931 413.676 147.103 413.409 147.32 413.192C147.537 412.971 147.791 412.803 148.084 412.69C148.376 412.577 148.69 412.52 149.024 412.52C149.227 412.52 149.411 412.537 149.576 412.57C149.741 412.598 149.885 412.631 150.008 412.669C150.13 412.707 150.232 412.747 150.312 412.789C150.392 412.832 150.449 412.862 150.482 412.881L150.22 413.61C150.107 413.539 149.944 413.473 149.732 413.412C149.524 413.346 149.298 413.313 149.053 413.313C148.841 413.313 148.643 413.35 148.459 413.426C148.275 413.496 148.114 413.605 147.978 413.751C147.846 413.897 147.742 414.081 147.666 414.303C147.591 414.524 147.553 414.781 147.553 415.074C147.553 415.333 147.581 415.571 147.638 415.788C147.699 416.005 147.791 416.194 147.914 416.354C148.037 416.51 148.192 416.632 148.381 416.722C148.569 416.807 148.796 416.849 149.06 416.849C149.376 416.849 149.633 416.819 149.831 416.757C150.029 416.691 150.182 416.63 150.291 416.573L150.531 417.302C150.475 417.34 150.397 417.377 150.298 417.415C150.203 417.453 150.09 417.491 149.958 417.528C149.826 417.561 149.678 417.587 149.513 417.606C149.348 417.63 149.171 417.642 148.982 417.642ZM153.38 414.607C153.309 414.583 153.21 414.56 153.083 414.536C152.96 414.508 152.816 414.494 152.651 414.494C152.557 414.494 152.455 414.503 152.347 414.522C152.243 414.541 152.17 414.557 152.128 414.572V417.535H151.272V414.013C151.437 413.951 151.642 413.895 151.887 413.843C152.137 413.786 152.413 413.758 152.715 413.758C152.771 413.758 152.837 413.763 152.913 413.772C152.988 413.777 153.064 413.786 153.139 413.801C153.215 413.81 153.288 413.824 153.358 413.843C153.429 413.857 153.486 413.871 153.528 413.885L153.38 414.607ZM153.919 415.703C153.919 415.378 153.967 415.093 154.061 414.847C154.16 414.602 154.29 414.399 154.45 414.239C154.61 414.074 154.794 413.951 155.002 413.871C155.209 413.786 155.421 413.744 155.638 413.744C156.148 413.744 156.544 413.902 156.827 414.218C157.114 414.534 157.258 415.005 157.258 415.633C157.258 415.68 157.256 415.734 157.251 415.795C157.251 415.852 157.249 415.904 157.244 415.951H154.804C154.827 416.248 154.931 416.479 155.115 416.644C155.304 416.804 155.575 416.885 155.928 416.885C156.136 416.885 156.324 416.866 156.494 416.828C156.669 416.79 156.805 416.75 156.904 416.708L157.018 417.408C156.97 417.432 156.904 417.458 156.82 417.486C156.739 417.509 156.645 417.531 156.537 417.55C156.433 417.573 156.32 417.592 156.197 417.606C156.075 417.62 155.95 417.627 155.822 417.627C155.497 417.627 155.214 417.58 154.973 417.486C154.733 417.387 154.535 417.252 154.379 417.083C154.224 416.908 154.108 416.705 154.033 416.474C153.957 416.239 153.919 415.982 153.919 415.703ZM156.402 415.321C156.402 415.204 156.386 415.093 156.353 414.989C156.32 414.88 156.27 414.789 156.204 414.713C156.143 414.633 156.065 414.572 155.971 414.529C155.881 414.482 155.773 414.458 155.645 414.458C155.513 414.458 155.398 414.484 155.299 414.536C155.2 414.583 155.115 414.647 155.044 414.727C154.978 414.807 154.926 414.899 154.889 415.003C154.851 415.107 154.825 415.213 154.811 415.321H156.402ZM159.467 416.934C159.731 416.934 159.932 416.92 160.068 416.892V415.944C160.021 415.93 159.953 415.916 159.863 415.901C159.774 415.887 159.675 415.88 159.566 415.88C159.472 415.88 159.375 415.887 159.276 415.901C159.182 415.916 159.095 415.942 159.014 415.979C158.939 416.017 158.878 416.071 158.831 416.142C158.783 416.208 158.76 416.293 158.76 416.397C158.76 416.599 158.823 416.741 158.951 416.821C159.078 416.896 159.25 416.934 159.467 416.934ZM159.396 413.744C159.679 413.744 159.917 413.779 160.111 413.85C160.304 413.921 160.457 414.02 160.571 414.147C160.688 414.275 160.771 414.43 160.818 414.614C160.87 414.793 160.896 414.991 160.896 415.208V417.451C160.764 417.479 160.564 417.512 160.295 417.55C160.031 417.592 159.731 417.613 159.396 417.613C159.175 417.613 158.972 417.592 158.788 417.55C158.604 417.507 158.446 417.439 158.314 417.344C158.187 417.25 158.085 417.127 158.01 416.977C157.939 416.826 157.904 416.639 157.904 416.418C157.904 416.206 157.944 416.026 158.024 415.88C158.109 415.734 158.222 415.616 158.364 415.527C158.505 415.432 158.668 415.366 158.852 415.328C159.04 415.286 159.236 415.265 159.439 415.265C159.533 415.265 159.632 415.272 159.736 415.286C159.84 415.295 159.95 415.314 160.068 415.343V415.201C160.068 415.102 160.057 415.008 160.033 414.918C160.009 414.829 159.967 414.751 159.906 414.685C159.849 414.614 159.771 414.56 159.672 414.522C159.578 414.484 159.458 414.466 159.312 414.466C159.113 414.466 158.932 414.48 158.767 414.508C158.602 414.536 158.467 414.569 158.364 414.607L158.258 413.914C158.366 413.876 158.524 413.838 158.731 413.801C158.939 413.763 159.161 413.744 159.396 413.744ZM161.902 412.86L162.758 412.718V413.836H164.073V414.55H162.758V416.057C162.758 416.354 162.805 416.566 162.899 416.694C162.993 416.821 163.154 416.885 163.38 416.885C163.536 416.885 163.672 416.868 163.79 416.835C163.913 416.802 164.01 416.771 164.08 416.743L164.222 417.422C164.123 417.465 163.993 417.507 163.833 417.55C163.672 417.597 163.484 417.62 163.267 417.62C163.003 417.62 162.781 417.585 162.602 417.514C162.427 417.443 162.288 417.342 162.185 417.21C162.081 417.073 162.008 416.911 161.965 416.722C161.923 416.529 161.902 416.309 161.902 416.064V412.86ZM164.633 415.703C164.633 415.378 164.68 415.093 164.775 414.847C164.874 414.602 165.004 414.399 165.164 414.239C165.324 414.074 165.508 413.951 165.716 413.871C165.923 413.786 166.135 413.744 166.352 413.744C166.861 413.744 167.258 413.902 167.541 414.218C167.828 414.534 167.972 415.005 167.972 415.633C167.972 415.68 167.97 415.734 167.965 415.795C167.965 415.852 167.963 415.904 167.958 415.951H165.518C165.541 416.248 165.645 416.479 165.829 416.644C166.017 416.804 166.289 416.885 166.642 416.885C166.85 416.885 167.038 416.866 167.208 416.828C167.383 416.79 167.519 416.75 167.618 416.708L167.732 417.408C167.684 417.432 167.618 417.458 167.533 417.486C167.453 417.509 167.359 417.531 167.251 417.55C167.147 417.573 167.034 417.592 166.911 417.606C166.788 417.62 166.663 417.627 166.536 417.627C166.211 417.627 165.928 417.58 165.687 417.486C165.447 417.387 165.249 417.252 165.093 417.083C164.937 416.908 164.822 416.705 164.747 416.474C164.671 416.239 164.633 415.982 164.633 415.703ZM167.116 415.321C167.116 415.204 167.1 415.093 167.067 414.989C167.034 414.88 166.984 414.789 166.918 414.713C166.857 414.633 166.779 414.572 166.685 414.529C166.595 414.482 166.487 414.458 166.359 414.458C166.227 414.458 166.112 414.484 166.013 414.536C165.914 414.583 165.829 414.647 165.758 414.727C165.692 414.807 165.64 414.899 165.602 415.003C165.565 415.107 165.539 415.213 165.525 415.321H167.116ZM171.832 416.934C172.096 416.934 172.296 416.92 172.433 416.892V415.944C172.386 415.93 172.318 415.916 172.228 415.901C172.138 415.887 172.039 415.88 171.931 415.88C171.837 415.88 171.74 415.887 171.641 415.901C171.547 415.916 171.459 415.942 171.379 415.979C171.304 416.017 171.242 416.071 171.195 416.142C171.148 416.208 171.125 416.293 171.125 416.397C171.125 416.599 171.188 416.741 171.316 416.821C171.443 416.896 171.615 416.934 171.832 416.934ZM171.761 413.744C172.044 413.744 172.282 413.779 172.476 413.85C172.669 413.921 172.822 414.02 172.935 414.147C173.053 414.275 173.136 414.43 173.183 414.614C173.235 414.793 173.261 414.991 173.261 415.208V417.451C173.129 417.479 172.928 417.512 172.66 417.55C172.395 417.592 172.096 417.613 171.761 417.613C171.54 417.613 171.337 417.592 171.153 417.55C170.969 417.507 170.811 417.439 170.679 417.344C170.552 417.25 170.45 417.127 170.375 416.977C170.304 416.826 170.269 416.639 170.269 416.418C170.269 416.206 170.309 416.026 170.389 415.88C170.474 415.734 170.587 415.616 170.728 415.527C170.87 415.432 171.033 415.366 171.217 415.328C171.405 415.286 171.601 415.265 171.804 415.265C171.898 415.265 171.997 415.272 172.101 415.286C172.204 415.295 172.315 415.314 172.433 415.343V415.201C172.433 415.102 172.421 415.008 172.398 414.918C172.374 414.829 172.332 414.751 172.27 414.685C172.214 414.614 172.136 414.56 172.037 414.522C171.943 414.484 171.823 414.466 171.676 414.466C171.478 414.466 171.297 414.48 171.132 414.508C170.967 414.536 170.832 414.569 170.728 414.607L170.622 413.914C170.731 413.876 170.889 413.838 171.096 413.801C171.304 413.763 171.525 413.744 171.761 413.744ZM176.894 416.8C176.945 416.804 177.014 416.809 177.099 416.814C177.184 416.814 177.299 416.814 177.445 416.814C178.044 416.814 178.49 416.663 178.782 416.361C179.079 416.055 179.228 415.628 179.228 415.081C179.228 414.524 179.084 414.098 178.796 413.801C178.509 413.504 178.063 413.355 177.459 413.355C177.195 413.355 177.007 413.362 176.894 413.376V416.8ZM180.162 415.081C180.162 415.505 180.096 415.875 179.963 416.191C179.831 416.503 179.643 416.764 179.398 416.977C179.157 417.184 178.865 417.34 178.52 417.443C178.181 417.542 177.804 417.592 177.389 417.592C177.191 417.592 176.967 417.583 176.717 417.564C176.467 417.55 176.229 417.517 176.002 417.465V412.704C176.229 412.652 176.469 412.619 176.724 412.605C176.978 412.591 177.205 412.584 177.403 412.584C177.813 412.584 178.188 412.633 178.528 412.732C178.867 412.827 179.157 412.978 179.398 413.185C179.643 413.388 179.831 413.647 179.963 413.963C180.096 414.275 180.162 414.647 180.162 415.081ZM181.135 412.633H182.026V417.535H181.135V412.633ZM184.679 417.592C184.419 417.592 184.157 417.583 183.893 417.564C183.629 417.55 183.398 417.517 183.2 417.465V412.704C183.304 412.685 183.415 412.669 183.533 412.655C183.651 412.636 183.771 412.622 183.893 412.612C184.016 412.603 184.136 412.596 184.254 412.591C184.377 412.586 184.492 412.584 184.601 412.584C184.898 412.584 185.174 412.608 185.428 412.655C185.683 412.697 185.902 412.77 186.086 412.874C186.275 412.978 186.421 413.114 186.525 413.284C186.628 413.454 186.68 413.664 186.68 413.914C186.68 414.145 186.624 414.343 186.511 414.508C186.402 414.673 186.249 414.805 186.051 414.904C186.348 415.003 186.567 415.149 186.709 415.343C186.85 415.536 186.921 415.781 186.921 416.078C186.921 416.583 186.737 416.962 186.369 417.217C186.001 417.467 185.438 417.592 184.679 417.592ZM184.077 415.328V416.821C184.176 416.83 184.282 416.837 184.396 416.842C184.509 416.847 184.613 416.849 184.707 416.849C184.891 416.849 185.06 416.837 185.216 416.814C185.376 416.79 185.513 416.75 185.626 416.694C185.744 416.632 185.836 416.552 185.902 416.453C185.973 416.354 186.008 416.227 186.008 416.071C186.008 415.793 185.907 415.6 185.704 415.491C185.501 415.383 185.221 415.328 184.862 415.328H184.077ZM184.077 414.628H184.707C185.046 414.628 185.313 414.581 185.506 414.487C185.699 414.388 185.796 414.213 185.796 413.963C185.796 413.727 185.695 413.56 185.492 413.461C185.294 413.362 185.035 413.313 184.714 413.313C184.577 413.313 184.455 413.315 184.346 413.32C184.242 413.324 184.153 413.331 184.077 413.341V414.628Z" fill="white"/>
<path d="M137.434 374.06C139.396 374.06 140.443 372.852 140.443 370.9C140.443 368.948 139.387 367.741 137.434 367.741H135.048V374.06H137.434ZM137.302 368.684C138.613 368.684 139.33 369.316 139.33 370.9C139.33 372.485 138.613 373.117 137.312 373.117H136.114V368.684H137.302ZM142.506 374.06V367.741H141.44V374.06H142.506ZM146.738 374.06C148.096 374.06 148.935 373.503 148.935 372.381C148.935 371.532 148.426 370.891 146.992 370.778C148.011 370.693 148.671 370.193 148.671 369.353C148.671 368.42 148.068 367.741 146.785 367.741H143.918V374.06H146.738ZM146.464 368.684C147.124 368.684 147.568 368.891 147.568 369.533C147.568 370.174 147.134 370.372 146.502 370.372H144.983V368.684H146.464ZM146.606 371.268C147.341 371.268 147.841 371.551 147.841 372.192C147.841 372.834 147.445 373.117 146.577 373.117H144.983V371.268H146.606Z" fill="#3D0072"/>
<rect x="158.268" y="366.483" width="23.1539" height="9.15394" rx="4.57697" fill="#FEEAB9"/>
<path d="M163.952 372.06V368.993H163.618C163.472 369.195 163.252 369.268 163.005 369.268V369.542H163.554V372.06H163.952ZM166.621 372.06V371.707H165.353L164.977 371.735L165.307 371.456L165.783 371.007C166.062 370.742 166.543 370.284 166.543 369.78C166.543 369.309 166.273 368.947 165.673 368.947C164.968 368.947 164.488 369.433 164.552 370.037L164.922 370.27C164.845 369.661 165.133 369.332 165.646 369.332C165.994 369.332 166.131 369.561 166.131 369.808C166.131 370.147 165.87 370.43 165.536 370.76L164.533 371.748V372.06H166.621ZM167.619 370.334C167.999 370.334 168.282 370.064 168.282 369.643C168.282 369.222 167.999 368.952 167.619 368.952C167.234 368.952 166.95 369.222 166.95 369.643C166.95 370.064 167.234 370.334 167.619 370.334ZM167.523 372.06L169.683 368.993H169.266L167.106 372.06H167.523ZM167.619 370.041C167.404 370.041 167.275 369.886 167.275 369.643C167.275 369.396 167.404 369.24 167.619 369.24C167.834 369.24 167.967 369.396 167.967 369.643C167.967 369.886 167.834 370.041 167.619 370.041ZM169.184 372.06C169.564 372.06 169.848 371.79 169.848 371.369C169.848 370.947 169.564 370.677 169.184 370.677C168.8 370.677 168.516 370.947 168.516 371.369C168.516 371.79 168.8 372.06 169.184 372.06ZM169.184 371.767C168.969 371.767 168.841 371.611 168.841 371.369C168.841 371.121 168.969 370.966 169.184 370.966C169.399 370.966 169.532 371.121 169.532 371.369C169.532 371.611 169.399 371.767 169.184 371.767ZM171.671 372.911V371.488C171.748 371.822 171.959 372.105 172.385 372.105C172.943 372.105 173.291 371.648 173.291 370.947C173.291 370.247 172.943 369.794 172.385 369.794C171.959 369.794 171.748 370.078 171.671 370.412V369.844H171.272V372.911H171.671ZM171.671 371.108V370.792C171.671 370.426 171.826 370.128 172.247 370.128C172.6 370.128 172.888 370.385 172.888 370.947C172.888 371.515 172.6 371.771 172.247 371.771C171.826 371.771 171.671 371.474 171.671 371.108ZM174.161 372.06V371.465H173.68V372.06H174.161ZM175.172 372.105C175.63 372.105 175.868 371.776 175.941 371.483V371.639C175.941 371.95 176.106 372.06 176.334 372.06H176.591V371.698H176.449C176.366 371.698 176.325 371.666 176.325 371.561V370.65C176.325 370.124 176.032 369.799 175.488 369.799C174.993 369.799 174.664 370.078 174.531 370.307L174.801 370.586C174.916 370.343 175.126 370.16 175.442 370.16C175.79 370.16 175.913 370.352 175.927 370.613L175.126 370.97C174.81 371.112 174.586 371.3 174.586 371.597C174.586 371.89 174.797 372.105 175.172 372.105ZM174.989 371.533C174.989 371.396 175.085 371.304 175.295 371.204L175.941 370.902V371.208C175.941 371.529 175.675 371.776 175.3 371.776C175.094 371.776 174.989 371.684 174.989 371.533Z" fill="black"/>
</g>
<g clip-path="url(#clip3_241_681)">
<g filter="url(#filter1_d_241_681)">
<rect x="73.1235" y="453.886" width="216.921" height="90.7766" rx="4.21366" fill="#FCEFF3"/>
</g>
</g>
<path opacity="0.35" fill-rule="evenodd" clip-rule="evenodd" d="M284.011 126.049C283.333 126.049 283.064 126.094 282.787 126.224C282.554 126.333 282.372 126.492 282.247 126.697C282.099 126.94 282.047 127.175 282.047 127.769V130.42C282.047 131.014 282.099 131.249 282.247 131.491C282.372 131.696 282.554 131.855 282.787 131.965C283.064 132.095 283.333 132.14 284.011 132.14H294.212C294.89 132.14 295.159 132.095 295.435 131.965C295.669 131.855 295.851 131.696 295.976 131.491C296.124 131.249 296.176 131.014 296.176 130.42V127.769C296.176 127.175 296.124 126.94 295.976 126.697C295.851 126.492 295.669 126.333 295.435 126.224C295.159 126.094 294.89 126.049 294.212 126.049H284.011Z" stroke="black" stroke-width="0.589458"/>
<path opacity="0.4" d="M297.186 127.915V130.273C297.728 130.073 298.08 129.609 298.08 129.094C298.08 128.58 297.728 128.115 297.186 127.915Z" fill="black"/>
<path d="M284.204 126.933H294.014C294.413 126.933 294.558 126.97 294.705 127.038C294.851 127.107 294.966 127.207 295.044 127.335C295.122 127.463 295.164 127.59 295.164 127.941V130.248C295.164 130.599 295.122 130.726 295.044 130.854C294.966 130.982 294.851 131.082 294.705 131.151C294.558 131.219 294.413 131.256 294.014 131.256H284.204C283.804 131.256 283.659 131.219 283.513 131.151C283.366 131.082 283.252 130.982 283.174 130.854C283.095 130.726 283.054 130.599 283.054 130.248V127.941C283.054 127.59 283.095 127.463 283.174 127.335C283.252 127.207 283.366 127.107 283.513 127.038C283.659 126.97 283.804 126.933 284.204 126.933Z" fill="black"/>
<path d="M273.185 127.099C274.682 127.099 276.121 127.603 277.206 128.505C277.288 128.575 277.418 128.574 277.499 128.503L278.28 127.814C278.32 127.778 278.343 127.729 278.343 127.678C278.342 127.628 278.319 127.579 278.278 127.544C275.431 125.155 270.939 125.155 268.092 127.544C268.051 127.579 268.027 127.628 268.027 127.678C268.026 127.729 268.049 127.778 268.09 127.814L268.871 128.503C268.951 128.574 269.082 128.575 269.164 128.505C270.248 127.603 271.688 127.099 273.185 127.099ZM273.185 129.343C274.007 129.343 274.8 129.611 275.41 130.094C275.492 130.163 275.622 130.161 275.703 130.091L276.483 129.401C276.524 129.365 276.546 129.316 276.546 129.265C276.545 129.214 276.521 129.165 276.479 129.13C274.623 127.618 271.748 127.618 269.892 129.13C269.85 129.165 269.826 129.214 269.826 129.265C269.825 129.316 269.848 129.365 269.889 129.401L270.669 130.091C270.749 130.161 270.879 130.163 270.962 130.094C271.571 129.611 272.363 129.344 273.185 129.343ZM274.684 130.99C274.726 130.954 274.749 130.905 274.747 130.854C274.746 130.802 274.721 130.754 274.678 130.72C273.816 130.082 272.554 130.082 271.692 130.72C271.649 130.754 271.624 130.802 271.623 130.854C271.621 130.905 271.644 130.954 271.686 130.99L273.035 132.182C273.075 132.217 273.129 132.236 273.185 132.236C273.241 132.236 273.295 132.217 273.335 132.182L274.684 130.99Z" fill="black"/>
<path d="M253.896 129.88H254.569C254.94 129.88 255.242 130.144 255.242 130.47V131.649C255.242 131.974 254.94 132.238 254.569 132.238H253.896C253.525 132.238 253.223 131.974 253.223 131.649V130.47C253.223 130.144 253.525 129.88 253.896 129.88ZM257.036 128.701H257.709C258.08 128.701 258.381 128.965 258.381 129.291V131.649C258.381 131.974 258.08 132.238 257.709 132.238H257.036C256.664 132.238 256.363 131.974 256.363 131.649V129.291C256.363 128.965 256.664 128.701 257.036 128.701ZM260.175 127.326H260.848C261.22 127.326 261.521 127.59 261.521 127.915V131.649C261.521 131.974 261.22 132.238 260.848 132.238H260.175C259.804 132.238 259.503 131.974 259.503 131.649V127.915C259.503 127.59 259.804 127.326 260.175 127.326ZM263.315 125.95H263.988C264.359 125.95 264.66 126.214 264.66 126.54V131.649C264.66 131.974 264.359 132.238 263.988 132.238H263.315C262.943 132.238 262.642 131.974 262.642 131.649V126.54C262.642 126.214 262.943 125.95 263.315 125.95Z" fill="black"/>
<path d="M77.8628 126.346C78.0338 126.275 78.2106 126.195 78.3933 126.107C78.582 126.012 78.7647 125.912 78.9415 125.806C79.1184 125.694 79.2864 125.579 79.4455 125.461C79.6106 125.338 79.7579 125.208 79.8876 125.072H80.8072V131.2H79.4897V126.788C79.3129 126.906 79.1154 127.015 78.8973 127.115C78.6792 127.209 78.467 127.292 78.2607 127.362L77.8628 126.346ZM86.6548 126.682C86.6548 126.906 86.6106 127.121 86.5222 127.327C86.4338 127.533 86.3188 127.734 86.1774 127.928C86.0359 128.117 85.8767 128.3 85.6999 128.476C85.5231 128.653 85.3492 128.821 85.1782 128.98C85.0898 129.063 84.9926 129.157 84.8865 129.263C84.7862 129.364 84.689 129.467 84.5947 129.573C84.5004 129.679 84.4149 129.779 84.3383 129.873C84.2675 129.962 84.2233 130.036 84.2056 130.094H86.8405V131.2H82.7556C82.7438 131.135 82.7379 131.052 82.7379 130.952C82.7379 130.852 82.7379 130.781 82.7379 130.74C82.7379 130.457 82.7821 130.198 82.8705 129.962C82.9648 129.726 83.0857 129.508 83.233 129.308C83.3804 129.101 83.5454 128.91 83.7282 128.733C83.9168 128.556 84.1025 128.379 84.2852 128.202C84.4267 128.067 84.5593 127.94 84.6831 127.822C84.8069 127.698 84.9159 127.58 85.0102 127.468C85.1046 127.351 85.1782 127.236 85.2313 127.124C85.2843 127.006 85.3109 126.888 85.3109 126.77C85.3109 126.511 85.2372 126.328 85.0898 126.222C84.9425 126.116 84.7597 126.063 84.5416 126.063C84.3825 126.063 84.2322 126.089 84.0907 126.142C83.9551 126.189 83.8284 126.248 83.7105 126.319C83.5985 126.384 83.5012 126.452 83.4187 126.522C83.3362 126.587 83.2743 126.64 83.233 126.682L82.5787 125.762C82.8381 125.52 83.1387 125.323 83.4806 125.17C83.8284 125.01 84.1997 124.931 84.5947 124.931C84.9542 124.931 85.2637 124.972 85.5231 125.055C85.7824 125.137 85.9946 125.255 86.1597 125.408C86.3306 125.556 86.4544 125.738 86.531 125.956C86.6136 126.169 86.6548 126.41 86.6548 126.682ZM89.2045 127.362C89.2045 127.628 89.119 127.831 88.9481 127.972C88.783 128.108 88.5944 128.176 88.3822 128.176C88.17 128.176 87.9784 128.108 87.8075 127.972C87.6424 127.831 87.5599 127.628 87.5599 127.362C87.5599 127.097 87.6424 126.897 87.8075 126.761C87.9784 126.62 88.17 126.549 88.3822 126.549C88.5944 126.549 88.783 126.62 88.9481 126.761C89.119 126.897 89.2045 127.097 89.2045 127.362ZM89.2045 130.501C89.2045 130.766 89.119 130.97 88.9481 131.111C88.783 131.247 88.5944 131.315 88.3822 131.315C88.17 131.315 87.9784 131.247 87.8075 131.111C87.6424 130.97 87.5599 130.766 87.5599 130.501C87.5599 130.236 87.6424 130.036 87.8075 129.9C87.9784 129.758 88.17 129.688 88.3822 129.688C88.5944 129.688 88.783 129.758 88.9481 129.9C89.119 130.036 89.2045 130.236 89.2045 130.501ZM94.1921 128.123C94.1921 129.154 93.9946 129.947 93.5997 130.501C93.2107 131.049 92.6713 131.323 91.9816 131.323C91.292 131.323 90.7497 131.049 90.3547 130.501C89.9657 129.947 89.7712 129.154 89.7712 128.123C89.7712 127.61 89.8213 127.156 89.9215 126.761C90.0276 126.366 90.1779 126.033 90.3724 125.762C90.5669 125.491 90.7998 125.284 91.0709 125.143C91.3421 125.002 91.6457 124.931 91.9816 124.931C92.6713 124.931 93.2107 125.208 93.5997 125.762C93.9946 126.31 94.1921 127.097 94.1921 128.123ZM92.8482 128.123C92.8482 127.816 92.8334 127.539 92.8039 127.292C92.7745 127.038 92.7273 126.82 92.6625 126.637C92.5976 126.455 92.5092 126.313 92.3972 126.213C92.2852 126.113 92.1467 126.063 91.9816 126.063C91.8166 126.063 91.6781 126.113 91.5661 126.213C91.46 126.313 91.3716 126.455 91.3008 126.637C91.236 126.82 91.1888 127.038 91.1594 127.292C91.1299 127.539 91.1151 127.816 91.1151 128.123C91.1151 128.429 91.1299 128.709 91.1594 128.963C91.1888 129.216 91.236 129.434 91.3008 129.617C91.3716 129.8 91.46 129.941 91.5661 130.041C91.6781 130.142 91.8166 130.192 91.9816 130.192C92.1467 130.192 92.2852 130.142 92.3972 130.041C92.5092 129.941 92.5976 129.8 92.6625 129.617C92.7273 129.434 92.7745 129.216 92.8039 128.963C92.8334 128.709 92.8482 128.429 92.8482 128.123ZM99.2175 128.123C99.2175 129.154 99.02 129.947 98.6251 130.501C98.236 131.049 97.6967 131.323 97.007 131.323C96.3173 131.323 95.775 131.049 95.3801 130.501C94.9911 129.947 94.7965 129.154 94.7965 128.123C94.7965 127.61 94.8466 127.156 94.9469 126.761C95.053 126.366 95.2033 126.033 95.3978 125.762C95.5923 125.491 95.8251 125.284 96.0963 125.143C96.3674 125.002 96.671 124.931 97.007 124.931C97.6967 124.931 98.236 125.208 98.6251 125.762C99.02 126.31 99.2175 127.097 99.2175 128.123ZM97.8735 128.123C97.8735 127.816 97.8588 127.539 97.8293 127.292C97.7998 127.038 97.7527 126.82 97.6878 126.637C97.623 126.455 97.5346 126.313 97.4226 126.213C97.3106 126.113 97.1721 126.063 97.007 126.063C96.842 126.063 96.7034 126.113 96.5914 126.213C96.4853 126.313 96.3969 126.455 96.3262 126.637C96.2613 126.82 96.2142 127.038 96.1847 127.292C96.1552 127.539 96.1405 127.816 96.1405 128.123C96.1405 128.429 96.1552 128.709 96.1847 128.963C96.2142 129.216 96.2613 129.434 96.3262 129.617C96.3969 129.8 96.4853 129.941 96.5914 130.041C96.7034 130.142 96.842 130.192 97.007 130.192C97.1721 130.192 97.3106 130.142 97.4226 130.041C97.5346 129.941 97.623 129.8 97.6878 129.617C97.7527 129.434 97.7998 129.216 97.8293 128.963C97.8588 128.709 97.8735 128.429 97.8735 128.123Z" fill="black"/>
</g>
<rect x="55.4424" y="40" width="22" height="32" rx="11" fill="#E8356D"/>
<path d="M62.5624 53.216C62.8717 53.088 63.1917 52.944 63.5224 52.784C63.8637 52.6133 64.1944 52.432 64.5144 52.24C64.8344 52.0373 65.1384 51.8293 65.4264 51.616C65.725 51.392 65.9917 51.1573 66.2264 50.912H67.8904V62H65.5064V54.016C65.1864 54.2293 64.829 54.4267 64.4344 54.608C64.0397 54.7787 63.6557 54.928 63.2824 55.056L62.5624 53.216Z" fill="white"/>
<path d="M98.9164 61.21C98.1884 61.21 97.535 61.098 96.9564 60.874C96.3777 60.65 95.8877 60.3233 95.4864 59.894C95.085 59.4553 94.777 58.9233 94.5624 58.298C94.3477 57.6727 94.2404 56.954 94.2404 56.142C94.2404 55.33 94.3617 54.6113 94.6044 53.986C94.8564 53.3607 95.197 52.8333 95.6264 52.404C96.0557 51.9653 96.5597 51.634 97.1384 51.41C97.717 51.186 98.3377 51.074 99.0004 51.074C99.4017 51.074 99.7657 51.1067 100.092 51.172C100.419 51.228 100.704 51.2933 100.946 51.368C101.189 51.4427 101.39 51.522 101.548 51.606C101.707 51.69 101.819 51.7507 101.884 51.788L101.366 53.23C101.142 53.09 100.82 52.9593 100.4 52.838C99.9897 52.7073 99.5417 52.642 99.0564 52.642C98.6364 52.642 98.2444 52.7167 97.8804 52.866C97.5164 53.006 97.199 53.2207 96.9284 53.51C96.667 53.7993 96.4617 54.1633 96.3124 54.602C96.163 55.0407 96.0884 55.5493 96.0884 56.128C96.0884 56.6413 96.1444 57.1127 96.2564 57.542C96.3777 57.9713 96.5597 58.3447 96.8024 58.662C97.045 58.97 97.353 59.2127 97.7264 59.39C98.0997 59.558 98.5477 59.642 99.0704 59.642C99.6957 59.642 100.204 59.5813 100.596 59.46C100.988 59.3293 101.292 59.208 101.506 59.096L101.982 60.538C101.87 60.6127 101.716 60.6873 101.52 60.762C101.334 60.8367 101.11 60.9113 100.848 60.986C100.587 61.0513 100.293 61.1027 99.9664 61.14C99.6397 61.1867 99.2897 61.21 98.9164 61.21ZM106.206 51.2C107.606 51.2 108.675 51.4567 109.412 51.97C110.159 52.4833 110.532 53.2673 110.532 54.322C110.532 55.638 109.883 56.5293 108.586 56.996C108.763 57.2107 108.964 57.472 109.188 57.78C109.412 58.088 109.641 58.424 109.874 58.788C110.107 59.1427 110.331 59.5113 110.546 59.894C110.761 60.2673 110.952 60.636 111.12 61H109.146C108.969 60.664 108.777 60.328 108.572 59.992C108.367 59.6467 108.157 59.3153 107.942 58.998C107.737 58.6713 107.531 58.368 107.326 58.088C107.121 57.7987 106.929 57.542 106.752 57.318C106.621 57.3273 106.509 57.332 106.416 57.332C106.323 57.332 106.234 57.332 106.15 57.332H105.296V61H103.532V51.438C103.961 51.3447 104.419 51.284 104.904 51.256C105.389 51.2187 105.823 51.2 106.206 51.2ZM106.332 52.726C105.959 52.726 105.613 52.74 105.296 52.768V55.904H106.066C106.495 55.904 106.873 55.8807 107.2 55.834C107.527 55.7873 107.797 55.7033 108.012 55.582C108.236 55.4607 108.404 55.2973 108.516 55.092C108.628 54.8867 108.684 54.6253 108.684 54.308C108.684 54.0093 108.628 53.7573 108.516 53.552C108.404 53.3467 108.241 53.1833 108.026 53.062C107.821 52.9407 107.573 52.8567 107.284 52.81C106.995 52.754 106.677 52.726 106.332 52.726ZM112.487 61V51.298H118.717V52.796H114.251V55.19H118.227V56.66H114.251V59.502H119.053V61H112.487ZM127.335 61C127.205 60.6173 127.069 60.2393 126.929 59.866C126.789 59.4927 126.654 59.11 126.523 58.718H122.435C122.305 59.11 122.169 59.4973 122.029 59.88C121.899 60.2533 121.768 60.6267 121.637 61H119.803C120.167 59.964 120.513 59.0073 120.839 58.13C121.166 57.2527 121.483 56.422 121.791 55.638C122.109 54.854 122.421 54.1073 122.729 53.398C123.037 52.6887 123.355 51.9887 123.681 51.298H125.347C125.674 51.9887 125.991 52.6887 126.299 53.398C126.607 54.1073 126.915 54.854 127.223 55.638C127.541 56.422 127.863 57.2527 128.189 58.13C128.525 59.0073 128.875 59.964 129.239 61H127.335ZM124.479 53.174C124.265 53.6687 124.017 54.2707 123.737 54.98C123.467 55.6893 123.182 56.4593 122.883 57.29H126.075C125.777 56.4593 125.487 55.6847 125.207 54.966C124.927 54.2473 124.685 53.65 124.479 53.174ZM136.435 51.298V52.824H133.453V61H131.675V52.824H128.693V51.298H136.435ZM137.78 61V51.298H144.01V52.796H139.544V55.19H143.52V56.66H139.544V59.502H144.346V61H137.78ZM155.691 61C155.56 60.6173 155.425 60.2393 155.285 59.866C155.145 59.4927 155.01 59.11 154.879 58.718H150.791C150.66 59.11 150.525 59.4973 150.385 59.88C150.254 60.2533 150.124 60.6267 149.993 61H148.159C148.523 59.964 148.868 59.0073 149.195 58.13C149.522 57.2527 149.839 56.422 150.147 55.638C150.464 54.854 150.777 54.1073 151.085 53.398C151.393 52.6887 151.71 51.9887 152.037 51.298H153.703C154.03 51.9887 154.347 52.6887 154.655 53.398C154.963 54.1073 155.271 54.854 155.579 55.638C155.896 56.422 156.218 57.2527 156.545 58.13C156.881 59.0073 157.231 59.964 157.595 61H155.691ZM152.835 53.174C152.62 53.6687 152.373 54.2707 152.093 54.98C151.822 55.6893 151.538 56.4593 151.239 57.29H154.431C154.132 56.4593 153.843 55.6847 153.563 54.966C153.283 54.2473 153.04 53.65 152.835 53.174ZM164.833 51.2C166.242 51.2 167.32 51.4567 168.067 51.97C168.823 52.4833 169.201 53.286 169.201 54.378C169.201 54.9473 169.098 55.4373 168.893 55.848C168.697 56.2493 168.407 56.5807 168.025 56.842C167.642 57.094 167.175 57.2807 166.625 57.402C166.074 57.5233 165.444 57.584 164.735 57.584H163.853V61H162.089V51.438C162.499 51.3447 162.952 51.284 163.447 51.256C163.951 51.2187 164.413 51.2 164.833 51.2ZM164.959 52.726C164.511 52.726 164.142 52.74 163.853 52.768V56.072H164.707C165.556 56.072 166.209 55.9553 166.667 55.722C167.124 55.4793 167.353 55.0267 167.353 54.364C167.353 54.0467 167.292 53.7807 167.171 53.566C167.049 53.3513 166.881 53.1833 166.667 53.062C166.452 52.9407 166.195 52.8567 165.897 52.81C165.607 52.754 165.295 52.726 164.959 52.726ZM176.943 59.474V61H170.811V51.298H172.575V59.474H176.943ZM185.085 61C184.955 60.6173 184.819 60.2393 184.679 59.866C184.539 59.4927 184.404 59.11 184.273 58.718H180.185C180.055 59.11 179.919 59.4973 179.779 59.88C179.649 60.2533 179.518 60.6267 179.387 61H177.553C177.917 59.964 178.263 59.0073 178.589 58.13C178.916 57.2527 179.233 56.422 179.541 55.638C179.859 54.854 180.171 54.1073 180.479 53.398C180.787 52.6887 181.105 51.9887 181.431 51.298H183.097C183.424 51.9887 183.741 52.6887 184.049 53.398C184.357 54.1073 184.665 54.854 184.973 55.638C185.291 56.422 185.613 57.2527 185.939 58.13C186.275 59.0073 186.625 59.964 186.989 61H185.085ZM182.229 53.174C182.015 53.6687 181.767 54.2707 181.487 54.98C181.217 55.6893 180.932 56.4593 180.633 57.29H183.825C183.527 56.4593 183.237 55.6847 182.957 54.966C182.677 54.2473 182.435 53.65 182.229 53.174ZM194.754 61C194.436 60.468 194.082 59.8987 193.69 59.292C193.298 58.676 192.892 58.06 192.472 57.444C192.052 56.8187 191.622 56.2167 191.184 55.638C190.754 55.05 190.344 54.5227 189.952 54.056V61H188.216V51.298H189.658C190.031 51.69 190.432 52.1567 190.862 52.698C191.291 53.23 191.72 53.7853 192.15 54.364C192.588 54.9427 193.008 55.526 193.41 56.114C193.82 56.6927 194.184 57.234 194.502 57.738V51.298H196.252V61H194.754Z" fill="black"/>
</g>
<defs>
<filter id="filter0_d_241_681" x="64.6962" y="344.749" width="233.775" height="107.631" filterUnits="userSpaceOnUse" color-interpolation-filters="sRGB">
<feFlood flood-opacity="0" result="BackgroundImageFix"/>
<feColorMatrix in="SourceAlpha" type="matrix" values="0 0 0 0 0 0 0 0 0 0 0 0 0 0 0 0 0 0 127 0" result="hardAlpha"/>
<feOffset dy="4.21366"/>
<feGaussianBlur stdDeviation="4.21366"/>
<feComposite in2="hardAlpha" operator="out"/>
<feColorMatrix type="matrix" values="0 0 0 0 0.398122 0 0 0 0 0.113021 0 0 0 0 0.645833 0 0 0 0.12 0"/>
<feBlend mode="normal" in2="BackgroundImageFix" result="effect1_dropShadow_241_681"/>
<feBlend mode="normal" in="SourceGraphic" in2="effect1_dropShadow_241_681" result="shape"/>
</filter>
<filter id="filter1_d_241_681" x="64.6962" y="449.672" width="233.775" height="107.631" filterUnits="userSpaceOnUse" color-interpolation-filters="sRGB">
<feFlood flood-opacity="0" result="BackgroundImageFix"/>
<feColorMatrix in="SourceAlpha" type="matrix" values="0 0 0 0 0 0 0 0 0 0 0 0 0 0 0 0 0 0 127 0" result="hardAlpha"/>
<feOffset dy="4.21366"/>
<feGaussianBlur stdDeviation="4.21366"/>
<feComposite in2="hardAlpha" operator="out"/>
<feColorMatrix type="matrix" values="0 0 0 0 0.398122 0 0 0 0 0.113021 0 0 0 0 0.645833 0 0 0 0.12 0"/>
<feBlend mode="normal" in2="BackgroundImageFix" result="effect1_dropShadow_241_681"/>
<feBlend mode="normal" in="SourceGraphic" in2="effect1_dropShadow_241_681" result="shape"/>
</filter>
<clipPath id="clip0_241_681">
<rect x="0.442383" width="364" height="458" rx="16" fill="white"/>
</clipPath>
<clipPath id="clip1_241_681">
<rect width="252.288" height="539.944" fill="white" transform="translate(55.4424 112)"/>
</clipPath>
<clipPath id="clip2_241_681">
<rect x="73.1228" y="348.962" width="216.921" height="90.7766" rx="4.21366" fill="white"/>
</clipPath>
<clipPath id="clip3_241_681">
<rect x="73.1228" y="453.886" width="216.921" height="90.7766" rx="4.21366" fill="white"/>
</clipPath>
</defs>
</svg>
