<svg width="301" height="236" viewBox="0 0 301 236" fill="none" xmlns="http://www.w3.org/2000/svg">
<g filter="url(#filter0_b_0_2007)">
<rect y="0.0473633" width="300.351" height="195.951" rx="11.9128" fill="#E8356D"/>
</g>
<path d="M281.714 0.0473633H11.9096C5.33213 0.0473633 0 5.3795 0 11.957V184.997C0 186.273 1.41755 187.04 2.48576 186.34L282.593 2.99739C283.929 2.12324 283.31 0.0473633 281.714 0.0473633Z" fill="#E62662"/>
<g opacity="0.6">
<path d="M89.3359 235.045C102.979 232.769 138.506 225.346 148.593 220.399C204.532 193.441 231.253 100.092 231.584 99.1799H276.622C276.286 100.072 270.979 115.352 248.513 158.007C234.625 183.354 214.524 200.25 190.815 214.13C150.095 237.95 89.3359 235.045 89.3359 235.045Z" fill="url(#paint0_linear_0_2007)"/>
<g opacity="0.1">
<path d="M89.3359 235.045C102.979 232.77 138.506 225.347 148.593 220.4C204.532 193.441 231.253 100.093 231.584 99.1807H276.622C276.286 100.073 270.979 115.352 248.513 158.008C234.625 183.354 214.524 200.251 190.815 214.131C150.095 237.951 89.3359 235.045 89.3359 235.045Z" fill="url(#paint1_linear_0_2007)"/>
</g>
<path d="M221.117 94.5029L231.581 99.1802C231.294 99.9413 217.353 171.773 174.701 206.253C144.772 230.445 125.617 236.125 60.5938 235.159V222.523C97.2873 222.523 123.464 221.336 147.346 208.876C201.242 180.76 221.035 94.7116 221.117 94.5029Z" fill="url(#paint2_linear_0_2007)"/>
<path d="M221.117 94.5029H269.657L276.618 99.1802H231.581L221.117 94.5029Z" fill="url(#paint3_linear_0_2007)"/>
<path d="M258.089 64.4258L289.651 104.336L215.266 104.135L258.089 64.4258Z" fill="url(#paint4_linear_0_2007)"/>
<g opacity="0.1">
<path d="M258.066 64.4258L289.628 104.336L215.242 104.135L258.066 64.4258Z" fill="url(#paint5_linear_0_2007)"/>
</g>
<path d="M215.265 104.135L204.445 99.1798L247.269 59.4705L258.088 64.4259L215.265 104.135Z" fill="url(#paint6_linear_0_2007)"/>
</g>
<path d="M35.26 57L36.54 54.04H43.24L44.5 57H47.94L42.04 43.6H37.76L31.9 57H35.26ZM38.96 48.42L39.78 46.34H40L40.82 48.42L42.08 51.34H37.7L38.96 48.42ZM53.9798 57.2C57.1998 57.2 59.3998 55.46 59.3998 52.88V52.6H56.4198V52.76C56.4198 54.04 55.4798 54.5 53.9198 54.5C52.1398 54.5 51.3198 53.84 51.3198 52C51.3198 50.14 52.1398 49.48 53.9198 49.48C55.4798 49.48 56.4198 49.94 56.4198 51.22V51.38H59.3998V51.1C59.3998 48.5 57.1998 46.78 53.9798 46.78C50.5398 46.78 48.3398 48.8 48.3398 52C48.3398 55.16 50.5398 57.2 53.9798 57.2ZM66.0306 57.2C69.2506 57.2 71.4506 55.46 71.4506 52.88V52.6H68.4706V52.76C68.4706 54.04 67.5306 54.5 65.9706 54.5C64.1906 54.5 63.3706 53.84 63.3706 52C63.3706 50.14 64.1906 49.48 65.9706 49.48C67.5306 49.48 68.4706 49.94 68.4706 51.22V51.38H71.4506V51.1C71.4506 48.5 69.2506 46.78 66.0306 46.78C62.5906 46.78 60.3906 48.8 60.3906 52C60.3906 55.16 62.5906 57.2 66.0306 57.2ZM78.0614 57.2C81.2414 57.2 83.3614 55.68 83.3614 53.5V53.28H80.3614V53.48C80.3614 54.34 79.7414 54.8 77.9614 54.8C76.0214 54.8 75.3014 54.14 75.2214 52.6H83.3814C83.4214 52.26 83.4614 52 83.4614 51.64C83.4614 48.5 81.2814 46.78 78.0014 46.78C74.7014 46.78 72.4414 48.8 72.4414 52C72.4414 55.56 74.7214 57.2 78.0614 57.2ZM77.9414 49.12C79.7014 49.12 80.5014 49.7 80.5814 51.02H75.2614C75.4014 49.72 76.1614 49.12 77.9414 49.12ZM89.7936 57.2C92.8936 57.2 94.7536 55.96 94.7536 54.08C94.7536 52.42 93.7536 51.52 91.0736 51.22L88.9336 50.96C87.6136 50.8 87.3336 50.58 87.3336 50.06C87.3336 49.42 87.7136 49.16 89.2136 49.16C91.0536 49.16 91.4536 49.58 91.4536 50.4V50.52H94.4536V50.46C94.4536 48.02 92.5936 46.78 89.3136 46.78C85.8736 46.78 84.3736 48.18 84.3736 49.94C84.3736 51.62 85.4936 52.52 87.4936 52.74L90.3136 53.08C91.4936 53.24 91.7936 53.4 91.7936 53.96C91.7936 54.56 91.4136 54.82 89.8136 54.82C88.1136 54.82 87.5536 54.58 87.5536 53.68V53.5H84.5536V53.56C84.5536 55.88 86.4136 57.2 89.7936 57.2ZM101.024 57.2C104.124 57.2 105.984 55.96 105.984 54.08C105.984 52.42 104.984 51.52 102.304 51.22L100.164 50.96C98.8441 50.8 98.5641 50.58 98.5641 50.06C98.5641 49.42 98.9441 49.16 100.444 49.16C102.284 49.16 102.684 49.58 102.684 50.4V50.52H105.684V50.46C105.684 48.02 103.824 46.78 100.544 46.78C97.1041 46.78 95.6041 48.18 95.6041 49.94C95.6041 51.62 96.7241 52.52 98.7241 52.74L101.544 53.08C102.724 53.24 103.024 53.4 103.024 53.96C103.024 54.56 102.644 54.82 101.044 54.82C99.3441 54.82 98.7841 54.58 98.7841 53.68V53.5H95.7841V53.56C95.7841 55.88 97.6441 57.2 101.024 57.2ZM117.34 57V54.3H115.54C114.48 54.3 114.1 54.04 114.1 53.04V49.46H117.34V46.98H114.1V45.04H111.1V46.98H109.52V49.46H111.1V53.38C111.1 55.9 112.52 57 114.86 57H117.34ZM123.804 57.2C127.224 57.2 129.524 55.16 129.524 52C129.524 48.8 127.224 46.78 123.804 46.78C120.384 46.78 118.084 48.8 118.084 52C118.084 55.16 120.384 57.2 123.804 57.2ZM123.804 54.54C121.764 54.54 121.064 53.76 121.064 52C121.064 50.24 121.764 49.42 123.804 49.42C125.824 49.42 126.544 50.24 126.544 52C126.544 53.76 125.824 54.54 123.804 54.54ZM136.835 57V51.94C136.835 50.2 137.355 49.48 139.175 49.48C140.895 49.48 141.475 50.1 141.475 51.76V57H144.475V51.94C144.475 50.2 144.995 49.48 146.815 49.48C148.535 49.48 149.115 50.1 149.115 51.76V57H152.115V50.76C152.115 48.48 150.855 46.78 148.275 46.78C145.695 46.78 144.675 48.36 144.435 50.06H144.255C144.035 48.2 142.855 46.78 140.535 46.78C138.015 46.78 137.015 48.34 136.775 50.02H136.615V46.98H133.835V57H136.835ZM158.98 57.2C162.4 57.2 164.7 55.16 164.7 52C164.7 48.8 162.4 46.78 158.98 46.78C155.56 46.78 153.26 48.8 153.26 52C153.26 55.16 155.56 57.2 158.98 57.2ZM158.98 54.54C156.94 54.54 156.24 53.76 156.24 52C156.24 50.24 156.94 49.42 158.98 49.42C161 49.42 161.72 50.24 161.72 52C161.72 53.76 161 54.54 158.98 54.54ZM168.925 57V51.2C168.925 49.94 169.405 49.32 170.745 49.32C171.965 49.32 172.405 49.8 172.405 50.9V51.94H175.405V50.28C175.405 48.32 174.485 46.78 172.245 46.78C170.225 46.78 169.165 48.02 168.885 49.64H168.705V46.98H165.925V57H168.925ZM181.811 57.2C184.991 57.2 187.111 55.68 187.111 53.5V53.28H184.111V53.48C184.111 54.34 183.491 54.8 181.711 54.8C179.771 54.8 179.051 54.14 178.971 52.6H187.131C187.171 52.26 187.211 52 187.211 51.64C187.211 48.5 185.031 46.78 181.751 46.78C178.451 46.78 176.191 48.8 176.191 52C176.191 55.56 178.471 57.2 181.811 57.2ZM181.691 49.12C183.451 49.12 184.251 49.7 184.331 51.02H179.011C179.151 49.72 179.911 49.12 181.691 49.12ZM36.6 82V74.46H39.7V71.98H36.48C36.4 71 37.02 70.78 38.34 70.78H39.7V68.6H38.82C35.74 68.6 33.98 69.96 33.66 71.98H32.18V74.46H33.6V82H36.6ZM43.7 70.96V68.6H40.7V70.96H43.7ZM43.7 82V71.98H40.7V82H43.7ZM48.2805 82V76.94C48.2805 75.24 48.9605 74.48 50.8605 74.48C52.7005 74.48 53.3605 75.16 53.3605 76.76V82H56.3605V75.76C56.3605 73.54 55.0605 71.78 52.3205 71.78C49.7005 71.78 48.5005 73.38 48.2405 75.06H48.0605V71.98H45.2805V82H48.2805ZM60.9581 82.2C63.1781 82.2 64.5781 81.26 65.0381 79.7H65.1981V82H67.9981V76.12C67.9981 73.5 66.4181 71.78 63.0781 71.78C59.7781 71.78 57.6981 73.5 57.6981 75.98V76.04H60.7181V75.96C60.7181 74.82 61.3381 74.42 62.8581 74.42C64.4581 74.42 65.0381 74.78 65.0381 76.08V76.46L60.7381 76.9C58.5981 77.12 57.4981 78.04 57.4981 79.52C57.4981 81.2 58.7981 82.2 60.9581 82.2ZM60.5181 79.32C60.5181 78.84 60.8381 78.64 61.5581 78.58L65.0381 78.18C64.9581 79.6 63.8581 80.08 61.8181 80.08C60.9381 80.08 60.5181 79.86 60.5181 79.32ZM72.5188 82V76.94C72.5188 75.24 73.1988 74.48 75.0988 74.48C76.9388 74.48 77.5988 75.16 77.5988 76.76V82H80.5988V75.76C80.5988 73.54 79.2988 71.78 76.5588 71.78C73.9388 71.78 72.7388 73.38 72.4788 75.06H72.2988V71.98H69.5188V82H72.5188ZM87.4564 82.2C90.6764 82.2 92.8764 80.46 92.8764 77.88V77.6H89.8964V77.76C89.8964 79.04 88.9564 79.5 87.3964 79.5C85.6164 79.5 84.7964 78.84 84.7964 77C84.7964 75.14 85.6164 74.48 87.3964 74.48C88.9564 74.48 89.8964 74.94 89.8964 76.22V76.38H92.8764V76.1C92.8764 73.5 90.6764 71.78 87.4564 71.78C84.0164 71.78 81.8164 73.8 81.8164 77C81.8164 80.16 84.0164 82.2 87.4564 82.2ZM97.1672 70.96V68.6H94.1672V70.96H97.1672ZM97.1672 82V71.98H94.1672V82H97.1672ZM101.818 82.2C104.038 82.2 105.438 81.26 105.898 79.7H106.058V82H108.858V76.12C108.858 73.5 107.278 71.78 103.938 71.78C100.638 71.78 98.5575 73.5 98.5575 75.98V76.04H101.578V75.96C101.578 74.82 102.198 74.42 103.718 74.42C105.318 74.42 105.898 74.78 105.898 76.08V76.46L101.598 76.9C99.4575 77.12 98.3575 78.04 98.3575 79.52C98.3575 81.2 99.6575 82.2 101.818 82.2ZM101.378 79.32C101.378 78.84 101.698 78.64 102.418 78.58L105.898 78.18C105.818 79.6 104.718 80.08 102.678 80.08C101.798 80.08 101.378 79.86 101.378 79.32ZM113.378 82V68.6H110.378V82H113.378ZM125.094 82V79.3H123.294C122.234 79.3 121.854 79.04 121.854 78.04V74.46H125.094V71.98H121.854V70.04H118.854V71.98H117.274V74.46H118.854V78.38C118.854 80.9 120.274 82 122.614 82H125.094ZM131.558 82.2C134.978 82.2 137.278 80.16 137.278 77C137.278 73.8 134.978 71.78 131.558 71.78C128.138 71.78 125.838 73.8 125.838 77C125.838 80.16 128.138 82.2 131.558 82.2ZM131.558 79.54C129.518 79.54 128.818 78.76 128.818 77C128.818 75.24 129.518 74.42 131.558 74.42C133.578 74.42 134.298 75.24 134.298 77C134.298 78.76 133.578 79.54 131.558 79.54ZM143.843 82.2C147.263 82.2 149.563 80.16 149.563 77C149.563 73.8 147.263 71.78 143.843 71.78C140.423 71.78 138.123 73.8 138.123 77C138.123 80.16 140.423 82.2 143.843 82.2ZM143.843 79.54C141.803 79.54 141.103 78.76 141.103 77C141.103 75.24 141.803 74.42 143.843 74.42C145.863 74.42 146.583 75.24 146.583 77C146.583 78.76 145.863 79.54 143.843 79.54ZM153.788 82V68.6H150.788V82H153.788ZM160.419 82.2C163.519 82.2 165.379 80.96 165.379 79.08C165.379 77.42 164.379 76.52 161.699 76.22L159.559 75.96C158.239 75.8 157.959 75.58 157.959 75.06C157.959 74.42 158.339 74.16 159.839 74.16C161.679 74.16 162.079 74.58 162.079 75.4V75.52H165.079V75.46C165.079 73.02 163.219 71.78 159.939 71.78C156.499 71.78 154.999 73.18 154.999 74.94C154.999 76.62 156.119 77.52 158.119 77.74L160.939 78.08C162.119 78.24 162.419 78.4 162.419 78.96C162.419 79.56 162.039 79.82 160.439 79.82C158.739 79.82 158.179 79.58 158.179 78.68V78.5H155.179V78.56C155.179 80.88 157.039 82.2 160.419 82.2Z" fill="white"/>
<defs>
<filter id="filter0_b_0_2007" x="-238.256" y="-238.209" width="776.863" height="672.463" filterUnits="userSpaceOnUse" color-interpolation-filters="sRGB">
<feFlood flood-opacity="0" result="BackgroundImageFix"/>
<feGaussianBlur in="BackgroundImageFix" stdDeviation="119.128"/>
<feComposite in2="SourceAlpha" operator="in" result="effect1_backgroundBlur_0_2007"/>
<feBlend mode="normal" in="SourceGraphic" in2="effect1_backgroundBlur_0_2007" result="shape"/>
</filter>
<linearGradient id="paint0_linear_0_2007" x1="182.979" y1="99.1799" x2="182.979" y2="235.156" gradientUnits="userSpaceOnUse">
<stop stop-color="white" stop-opacity="0.23"/>
<stop offset="1" stop-color="white" stop-opacity="0"/>
</linearGradient>
<linearGradient id="paint1_linear_0_2007" x1="182.979" y1="99.1807" x2="182.979" y2="235.157" gradientUnits="userSpaceOnUse">
<stop stop-color="white"/>
<stop offset="1" stop-color="white" stop-opacity="0"/>
</linearGradient>
<linearGradient id="paint2_linear_0_2007" x1="146.087" y1="94.5029" x2="146.087" y2="235.261" gradientUnits="userSpaceOnUse">
<stop stop-color="white" stop-opacity="0.23"/>
<stop offset="1" stop-color="white" stop-opacity="0"/>
</linearGradient>
<linearGradient id="paint3_linear_0_2007" x1="248.868" y1="94.5029" x2="248.868" y2="99.1802" gradientUnits="userSpaceOnUse">
<stop stop-color="white" stop-opacity="0.23"/>
<stop offset="1" stop-color="white" stop-opacity="0"/>
</linearGradient>
<linearGradient id="paint4_linear_0_2007" x1="252.458" y1="64.4258" x2="252.458" y2="104.336" gradientUnits="userSpaceOnUse">
<stop stop-color="white" stop-opacity="0.23"/>
<stop offset="1" stop-color="white" stop-opacity="0"/>
</linearGradient>
<linearGradient id="paint5_linear_0_2007" x1="252.435" y1="64.4258" x2="252.435" y2="104.336" gradientUnits="userSpaceOnUse">
<stop stop-color="white"/>
<stop offset="1" stop-color="white" stop-opacity="0"/>
</linearGradient>
<linearGradient id="paint6_linear_0_2007" x1="231.267" y1="59.4705" x2="231.267" y2="104.135" gradientUnits="userSpaceOnUse">
<stop stop-color="white" stop-opacity="0.23"/>
<stop offset="1" stop-color="white" stop-opacity="0"/>
</linearGradient>
</defs>
</svg>
