<svg width="302" height="196" viewBox="0 0 302 196" fill="none" xmlns="http://www.w3.org/2000/svg">
<g filter="url(#filter0_b_0_2980)">
<rect x="0.773193" y="0.0473633" width="300.351" height="195.951" rx="11.9128" fill="#2563EB"/>
</g>
<path d="M282.487 0.0473633H12.6828C6.10532 0.0473633 0.773193 5.3795 0.773193 11.957V184.997C0.773193 186.273 2.19074 187.04 3.25896 186.34L283.366 2.99739C284.702 2.12324 284.083 0.0473633 282.487 0.0473633Z" fill="#1C5DEB"/>
<path d="M210.505 147.822L200.969 157.168V130.338H210.505M226.399 141.973L221.409 137.713L216.863 141.909V117.623H226.399M242.294 136.696L232.757 146.232V104.907H242.294M251.226 136.092L245.472 130.338H261.367V146.232L255.676 140.542L232.757 163.271L221.726 153.671L209.71 165.305H200.969L221.536 145.151L232.757 154.624" fill="white"/>
<path d="M36.7998 57V52H44.8398V49.32H36.7998V46.3H45.1398V43.6H33.7998V57H36.7998ZM49.4169 57V51.2C49.4169 49.94 49.8969 49.32 51.2369 49.32C52.4569 49.32 52.8969 49.8 52.8969 50.9V51.94H55.8969V50.28C55.8969 48.32 54.9769 46.78 52.7369 46.78C50.7169 46.78 49.6569 48.02 49.3769 49.64H49.1969V46.98H46.4169V57H49.4169ZM62.3034 57.2C65.4834 57.2 67.6034 55.68 67.6034 53.5V53.28H64.6034V53.48C64.6034 54.34 63.9833 54.8 62.2034 54.8C60.2633 54.8 59.5433 54.14 59.4633 52.6H67.6234C67.6633 52.26 67.7034 52 67.7034 51.64C67.7034 48.5 65.5233 46.78 62.2433 46.78C58.9433 46.78 56.6833 48.8 56.6833 52C56.6833 55.56 58.9633 57.2 62.3034 57.2ZM62.1833 49.12C63.9433 49.12 64.7434 49.7 64.8233 51.02H59.5033C59.6433 49.72 60.4033 49.12 62.1833 49.12ZM74.2955 57.2C77.4755 57.2 79.5955 55.68 79.5955 53.5V53.28H76.5955V53.48C76.5955 54.34 75.9755 54.8 74.1955 54.8C72.2555 54.8 71.5355 54.14 71.4555 52.6H79.6155C79.6555 52.26 79.6955 52 79.6955 51.64C79.6955 48.5 77.5155 46.78 74.2355 46.78C70.9355 46.78 68.6755 48.8 68.6755 52C68.6755 55.56 70.9555 57.2 74.2955 57.2ZM74.1755 49.12C75.9355 49.12 76.7355 49.7 76.8155 51.02H71.4955C71.6355 49.72 72.3955 49.12 74.1755 49.12ZM87.8537 57V49.46H90.9537V46.98H87.7337C87.6537 46 88.2737 45.78 89.5937 45.78H90.9537V43.6H90.0737C86.9937 43.6 85.2337 44.96 84.9137 46.98H83.4337V49.46H84.8537V57H87.8537ZM94.9537 45.96V43.6H91.9537V45.96H94.9537ZM94.9537 57V46.98H91.9537V57H94.9537ZM99.5341 57V51.94C99.5341 50.24 100.214 49.48 102.114 49.48C103.954 49.48 104.614 50.16 104.614 51.76V57H107.614V50.76C107.614 48.54 106.314 46.78 103.574 46.78C100.954 46.78 99.7541 48.38 99.4941 50.06H99.3141V46.98H96.5341V57H99.5341ZM112.212 57.2C114.432 57.2 115.832 56.26 116.292 54.7H116.452V57H119.252V51.12C119.252 48.5 117.672 46.78 114.332 46.78C111.032 46.78 108.952 48.5 108.952 50.98V51.04H111.972V50.96C111.972 49.82 112.592 49.42 114.112 49.42C115.712 49.42 116.292 49.78 116.292 51.08V51.46L111.992 51.9C109.852 52.12 108.752 53.04 108.752 54.52C108.752 56.2 110.052 57.2 112.212 57.2ZM111.772 54.32C111.772 53.84 112.092 53.64 112.812 53.58L116.292 53.18C116.212 54.6 115.112 55.08 113.072 55.08C112.192 55.08 111.772 54.86 111.772 54.32ZM123.772 57V51.94C123.772 50.24 124.452 49.48 126.352 49.48C128.192 49.48 128.852 50.16 128.852 51.76V57H131.852V50.76C131.852 48.54 130.552 46.78 127.812 46.78C125.192 46.78 123.992 48.38 123.732 50.06H123.552V46.98H120.772V57H123.772ZM138.71 57.2C141.93 57.2 144.13 55.46 144.13 52.88V52.6H141.15V52.76C141.15 54.04 140.21 54.5 138.65 54.5C136.87 54.5 136.05 53.84 136.05 52C136.05 50.14 136.87 49.48 138.65 49.48C140.21 49.48 141.15 49.94 141.15 51.22V51.38H144.13V51.1C144.13 48.5 141.93 46.78 138.71 46.78C135.27 46.78 133.07 48.8 133.07 52C133.07 55.16 135.27 57.2 138.71 57.2ZM148.421 45.96V43.6H145.421V45.96H148.421ZM148.421 57V46.98H145.421V57H148.421ZM153.071 57.2C155.291 57.2 156.691 56.26 157.151 54.7H157.311V57H160.111V51.12C160.111 48.5 158.531 46.78 155.191 46.78C151.891 46.78 149.811 48.5 149.811 50.98V51.04H152.831V50.96C152.831 49.82 153.451 49.42 154.971 49.42C156.571 49.42 157.151 49.78 157.151 51.08V51.46L152.851 51.9C150.711 52.12 149.611 53.04 149.611 54.52C149.611 56.2 150.911 57.2 153.071 57.2ZM152.631 54.32C152.631 53.84 152.951 53.64 153.671 53.58L157.151 53.18C157.071 54.6 155.971 55.08 153.931 55.08C153.051 55.08 152.631 54.86 152.631 54.32ZM164.632 57V43.6H161.632V57H164.632ZM172.368 57.2C174.588 57.2 175.988 56.26 176.448 54.7H176.608V57H179.408V51.12C179.408 48.5 177.828 46.78 174.488 46.78C171.188 46.78 169.108 48.5 169.108 50.98V51.04H172.128V50.96C172.128 49.82 172.748 49.42 174.268 49.42C175.868 49.42 176.448 49.78 176.448 51.08V51.46L172.148 51.9C170.008 52.12 168.908 53.04 168.908 54.52C168.908 56.2 170.208 57.2 172.368 57.2ZM171.928 54.32C171.928 53.84 172.248 53.64 172.968 53.58L176.448 53.18C176.368 54.6 175.268 55.08 173.228 55.08C172.348 55.08 171.928 54.86 171.928 54.32ZM185.409 57.2C187.709 57.2 189.029 56.2 189.409 54.22H189.569V57H192.369V43.6H189.369V49.64H189.189C188.849 47.96 187.629 46.78 185.249 46.78C182.269 46.78 180.569 48.8 180.569 52C180.569 55.16 182.289 57.2 185.409 57.2ZM183.609 52C183.609 50.16 184.509 49.52 186.429 49.52C188.349 49.52 189.369 50.16 189.369 51.9V52.06C189.369 53.8 188.329 54.46 186.429 54.46C184.509 54.46 183.609 53.82 183.609 52ZM201.416 57L205.996 46.98H202.716L199.696 54.08H199.496L196.496 46.98H193.156L197.716 57H201.416ZM209.788 45.96V43.6H206.788V45.96H209.788ZM209.788 57V46.98H206.788V57H209.788ZM216.698 57.2C219.918 57.2 222.118 55.46 222.118 52.88V52.6H219.138V52.76C219.138 54.04 218.198 54.5 216.638 54.5C214.858 54.5 214.038 53.84 214.038 52C214.038 50.14 214.858 49.48 216.638 49.48C218.198 49.48 219.138 49.94 219.138 51.22V51.38H222.118V51.1C222.118 48.5 219.918 46.78 216.698 46.78C213.258 46.78 211.058 48.8 211.058 52C211.058 55.16 213.258 57.2 216.698 57.2ZM228.729 57.2C231.909 57.2 234.029 55.68 234.029 53.5V53.28H231.029V53.48C231.029 54.34 230.409 54.8 228.629 54.8C226.689 54.8 225.969 54.14 225.889 52.6H234.049C234.089 52.26 234.129 52 234.129 51.64C234.129 48.5 231.949 46.78 228.669 46.78C225.369 46.78 223.109 48.8 223.109 52C223.109 55.56 225.389 57.2 228.729 57.2ZM228.609 49.12C230.369 49.12 231.169 49.7 231.249 51.02H225.929C226.069 49.72 226.829 49.12 228.609 49.12ZM37.5998 82V74.46H40.6998V71.98H37.4798C37.3998 71 38.0198 70.78 39.3398 70.78H40.6998V68.6H39.8198C36.7398 68.6 34.9798 69.96 34.6598 71.98H33.1798V74.46H34.5998V82H37.5998ZM44.6904 82V76.2C44.6904 74.94 45.1704 74.32 46.5104 74.32C47.7304 74.32 48.1704 74.8 48.1704 75.9V76.94H51.1704V75.28C51.1704 73.32 50.2504 71.78 48.0104 71.78C45.9904 71.78 44.9304 73.02 44.6504 74.64H44.4704V71.98H41.6904V82H44.6904ZM57.5968 82.2C61.0168 82.2 63.3168 80.16 63.3168 77C63.3168 73.8 61.0168 71.78 57.5968 71.78C54.1768 71.78 51.8768 73.8 51.8768 77C51.8768 80.16 54.1768 82.2 57.5968 82.2ZM57.5968 79.54C55.5568 79.54 54.8568 78.76 54.8568 77C54.8568 75.24 55.5568 74.42 57.5968 74.42C59.6168 74.42 60.3368 75.24 60.3368 77C60.3368 78.76 59.6168 79.54 57.5968 79.54ZM67.5419 82V76.94C67.5419 75.2 68.0619 74.48 69.8819 74.48C71.6019 74.48 72.1819 75.1 72.1819 76.76V82H75.1819V76.94C75.1819 75.2 75.7019 74.48 77.5219 74.48C79.2419 74.48 79.8219 75.1 79.8219 76.76V82H82.8219V75.76C82.8219 73.48 81.5619 71.78 78.9819 71.78C76.4019 71.78 75.3819 73.36 75.1419 75.06H74.9619C74.7419 73.2 73.5619 71.78 71.2419 71.78C68.7219 71.78 67.7219 73.34 67.4819 75.02H67.3219V71.98H64.5419V82H67.5419ZM94.8926 82L99.4726 71.98H96.1926L93.1726 79.08H92.9726L89.9726 71.98H86.6326L91.1926 82H94.8926ZM105.585 82.2C108.765 82.2 110.885 80.68 110.885 78.5V78.28H107.885V78.48C107.885 79.34 107.265 79.8 105.485 79.8C103.545 79.8 102.825 79.14 102.745 77.6H110.905C110.945 77.26 110.985 77 110.985 76.64C110.985 73.5 108.805 71.78 105.525 71.78C102.225 71.78 99.9646 73.8 99.9646 77C99.9646 80.56 102.245 82.2 105.585 82.2ZM105.465 74.12C107.225 74.12 108.025 74.7 108.105 76.02H102.785C102.925 74.72 103.685 74.12 105.465 74.12ZM119.317 82V79.3H117.517C116.457 79.3 116.077 79.04 116.077 78.04V74.46H119.317V71.98H116.077V70.04H113.077V71.98H111.497V74.46H113.077V78.38C113.077 80.9 114.497 82 116.837 82H119.317ZM127.5 82V79.3H125.7C124.64 79.3 124.26 79.04 124.26 78.04V74.46H127.5V71.98H124.26V70.04H121.26V71.98H119.68V74.46H121.26V78.38C121.26 80.9 122.68 82 125.02 82H127.5ZM133.944 82.2C137.124 82.2 139.244 80.68 139.244 78.5V78.28H136.244V78.48C136.244 79.34 135.624 79.8 133.844 79.8C131.904 79.8 131.184 79.14 131.104 77.6H139.264C139.304 77.26 139.344 77 139.344 76.64C139.344 73.5 137.164 71.78 133.884 71.78C130.584 71.78 128.324 73.8 128.324 77C128.324 80.56 130.604 82.2 133.944 82.2ZM133.824 74.12C135.584 74.12 136.384 74.7 136.464 76.02H131.144C131.284 74.72 132.044 74.12 133.824 74.12ZM145.096 82.2C147.396 82.2 148.716 81.2 149.096 79.22H149.256V82H152.056V68.6H149.056V74.64H148.876C148.536 72.96 147.316 71.78 144.936 71.78C141.956 71.78 140.256 73.8 140.256 77C140.256 80.16 141.976 82.2 145.096 82.2ZM143.296 77C143.296 75.16 144.196 74.52 146.116 74.52C148.036 74.52 149.056 75.16 149.056 76.9V77.06C149.056 78.8 148.016 79.46 146.116 79.46C144.196 79.46 143.296 78.82 143.296 77ZM160.529 82V74.46H163.629V71.98H160.409C160.329 71 160.949 70.78 162.269 70.78H163.629V68.6H162.749C159.669 68.6 157.909 69.96 157.589 71.98H156.109V74.46H157.529V82H160.529ZM167.629 70.96V68.6H164.629V70.96H167.629ZM167.629 82V71.98H164.629V82H167.629ZM172.21 82V76.94C172.21 75.24 172.89 74.48 174.79 74.48C176.63 74.48 177.29 75.16 177.29 76.76V82H180.29V75.76C180.29 73.54 178.99 71.78 176.25 71.78C173.63 71.78 172.43 73.38 172.17 75.06H171.99V71.98H169.21V82H172.21ZM184.888 82.2C187.108 82.2 188.508 81.26 188.968 79.7H189.128V82H191.928V76.12C191.928 73.5 190.348 71.78 187.008 71.78C183.708 71.78 181.628 73.5 181.628 75.98V76.04H184.648V75.96C184.648 74.82 185.268 74.42 186.788 74.42C188.388 74.42 188.968 74.78 188.968 76.08V76.46L184.668 76.9C182.528 77.12 181.428 78.04 181.428 79.52C181.428 81.2 182.728 82.2 184.888 82.2ZM184.448 79.32C184.448 78.84 184.768 78.64 185.488 78.58L188.968 78.18C188.888 79.6 187.788 80.08 185.748 80.08C184.868 80.08 184.448 79.86 184.448 79.32ZM196.448 82V76.94C196.448 75.24 197.128 74.48 199.028 74.48C200.868 74.48 201.528 75.16 201.528 76.76V82H204.528V75.76C204.528 73.54 203.228 71.78 200.488 71.78C197.868 71.78 196.668 73.38 196.408 75.06H196.228V71.98H193.448V82H196.448ZM211.386 82.2C214.606 82.2 216.806 80.46 216.806 77.88V77.6H213.826V77.76C213.826 79.04 212.886 79.5 211.326 79.5C209.546 79.5 208.726 78.84 208.726 77C208.726 75.14 209.546 74.48 211.326 74.48C212.886 74.48 213.826 74.94 213.826 76.22V76.38H216.806V76.1C216.806 73.5 214.606 71.78 211.386 71.78C207.946 71.78 205.746 73.8 205.746 77C205.746 80.16 207.946 82.2 211.386 82.2ZM221.097 70.96V68.6H218.097V70.96H221.097ZM221.097 82V71.98H218.097V82H221.097ZM225.747 82.2C227.967 82.2 229.367 81.26 229.827 79.7H229.987V82H232.787V76.12C232.787 73.5 231.207 71.78 227.867 71.78C224.567 71.78 222.487 73.5 222.487 75.98V76.04H225.507V75.96C225.507 74.82 226.127 74.42 227.647 74.42C229.247 74.42 229.827 74.78 229.827 76.08V76.46L225.527 76.9C223.387 77.12 222.287 78.04 222.287 79.52C222.287 81.2 223.587 82.2 225.747 82.2ZM225.307 79.32C225.307 78.84 225.627 78.64 226.347 78.58L229.827 78.18C229.747 79.6 228.647 80.08 226.607 80.08C225.727 80.08 225.307 79.86 225.307 79.32ZM237.308 82V68.6H234.308V82H237.308ZM39.1398 107.2C42.3598 107.2 44.5598 105.46 44.5598 102.88V102.6H41.5798V102.76C41.5798 104.04 40.6398 104.5 39.0798 104.5C37.2998 104.5 36.4798 103.84 36.4798 102C36.4798 100.14 37.2998 99.48 39.0798 99.48C40.6398 99.48 41.5798 99.94 41.5798 101.22V101.38H44.5598V101.1C44.5598 98.5 42.3598 96.78 39.1398 96.78C35.6998 96.78 33.4998 98.8 33.4998 102C33.4998 105.16 35.6998 107.2 39.1398 107.2ZM51.1905 107.2C54.6105 107.2 56.9105 105.16 56.9105 102C56.9105 98.8 54.6105 96.78 51.1905 96.78C47.7705 96.78 45.4705 98.8 45.4705 102C45.4705 105.16 47.7705 107.2 51.1905 107.2ZM51.1905 104.54C49.1505 104.54 48.4505 103.76 48.4505 102C48.4505 100.24 49.1505 99.42 51.1905 99.42C53.2105 99.42 53.9305 100.24 53.9305 102C53.9305 103.76 53.2105 104.54 51.1905 104.54ZM61.2157 107.2C63.4357 107.2 64.8357 106.26 65.2957 104.7H65.4557V107H68.2557V101.12C68.2557 98.5 66.6757 96.78 63.3357 96.78C60.0357 96.78 57.9557 98.5 57.9557 100.98V101.04H60.9757V100.96C60.9757 99.82 61.5957 99.42 63.1157 99.42C64.7157 99.42 65.2957 99.78 65.2957 101.08V101.46L60.9957 101.9C58.8557 102.12 57.7557 103.04 57.7557 104.52C57.7557 106.2 59.0557 107.2 61.2157 107.2ZM60.7757 104.32C60.7757 103.84 61.0957 103.64 61.8157 103.58L65.2957 103.18C65.2157 104.6 64.1157 105.08 62.0757 105.08C61.1957 105.08 60.7757 104.86 60.7757 104.32ZM75.1163 107.2C78.3363 107.2 80.5363 105.46 80.5363 102.88V102.6H77.5563V102.76C77.5563 104.04 76.6163 104.5 75.0563 104.5C73.2763 104.5 72.4563 103.84 72.4563 102C72.4563 100.14 73.2763 99.48 75.0563 99.48C76.6163 99.48 77.5563 99.94 77.5563 101.22V101.38H80.5363V101.1C80.5363 98.5 78.3363 96.78 75.1163 96.78C71.6763 96.78 69.4763 98.8 69.4763 102C69.4763 105.16 71.6763 107.2 75.1163 107.2ZM84.8271 107V101.98C84.8271 100.3 85.4471 99.48 87.4671 99.48C89.3471 99.48 90.0671 100.08 90.0671 101.76V107H93.0671V100.86C93.0671 98.54 91.7471 96.78 89.0471 96.78C86.4871 96.78 85.3071 98.34 84.9871 100.04H84.8271V93.6H81.8271V107H84.8271ZM99.901 107.2C103.081 107.2 105.201 105.68 105.201 103.5V103.28H102.201V103.48C102.201 104.34 101.581 104.8 99.801 104.8C97.861 104.8 97.141 104.14 97.061 102.6H105.221C105.261 102.26 105.301 102 105.301 101.64C105.301 98.5 103.121 96.78 99.841 96.78C96.541 96.78 94.281 98.8 94.281 102C94.281 105.56 96.561 107.2 99.901 107.2ZM99.781 99.12C101.541 99.12 102.341 99.7 102.421 101.02H97.101C97.241 99.72 98.001 99.12 99.781 99.12ZM111.633 107.2C114.733 107.2 116.593 105.96 116.593 104.08C116.593 102.42 115.593 101.52 112.913 101.22L110.773 100.96C109.453 100.8 109.173 100.58 109.173 100.06C109.173 99.42 109.553 99.16 111.053 99.16C112.893 99.16 113.293 99.58 113.293 100.4V100.52H116.293V100.46C116.293 98.02 114.433 96.78 111.153 96.78C107.713 96.78 106.213 98.18 106.213 99.94C106.213 101.62 107.333 102.52 109.333 102.74L112.153 103.08C113.333 103.24 113.633 103.4 113.633 103.96C113.633 104.56 113.253 104.82 111.653 104.82C109.953 104.82 109.393 104.58 109.393 103.68V103.5H106.393V103.56C106.393 105.88 108.253 107.2 111.633 107.2Z" fill="white"/>
<defs>
<filter id="filter0_b_0_2980" x="-237.483" y="-238.209" width="776.863" height="672.463" filterUnits="userSpaceOnUse" color-interpolation-filters="sRGB">
<feFlood flood-opacity="0" result="BackgroundImageFix"/>
<feGaussianBlur in="BackgroundImageFix" stdDeviation="119.128"/>
<feComposite in2="SourceAlpha" operator="in" result="effect1_backgroundBlur_0_2980"/>
<feBlend mode="normal" in="SourceGraphic" in2="effect1_backgroundBlur_0_2980" result="shape"/>
</filter>
</defs>
</svg>
