<svg width="365" height="458" viewBox="0 0 365 458" fill="none" xmlns="http://www.w3.org/2000/svg">
<g clip-path="url(#clip0_241_817)">
<rect x="0.442383" width="364" height="458" rx="16" fill="#FAF5FF"/>
<rect x="52.9424" y="114.5" width="258" height="564" rx="25.5" stroke="#8807F7" stroke-width="5"/>
<g clip-path="url(#clip1_241_817)">
<rect x="55.4424" y="117" width="253" height="359" rx="20" fill="white"/>
<path d="M83.4816 251.236C86.6973 251.236 89.1091 249.581 89.1091 246.72C89.1091 243.694 86.8392 242.701 84.3092 242.086L82.5358 241.66C80.8098 241.235 79.7221 240.738 79.7221 239.343C79.7221 238.137 80.8098 237.428 82.323 237.428C84.2619 237.428 85.9643 238.279 86.8392 240.242L88.849 238.326C87.7141 236.151 85.3969 234.945 82.4886 234.945C79.5093 234.945 76.932 236.553 76.932 239.532C76.932 242.535 79.3201 243.552 81.5664 244.025L83.056 244.356C85.1131 244.805 86.39 245.231 86.39 246.768C86.39 248.21 85.1131 248.777 83.5289 248.777C81.59 248.777 79.2019 247.879 78.3507 245.562L76.4591 247.477C77.6886 250.149 80.4551 251.236 83.4816 251.236ZM96.6304 251.236C99.184 251.236 100.745 250.078 101.619 248.754L99.988 247.051C99.5624 248.021 98.6639 249.061 96.654 249.061C94.8334 249.061 93.6275 247.95 93.4856 245.893H101.714C101.761 245.656 101.809 245.16 101.809 244.734C101.809 241.542 99.8934 239.249 96.4412 239.249C93.2019 239.249 90.9556 241.637 90.9556 245.254C90.9556 248.848 93.2019 251.236 96.6304 251.236ZM96.4412 241.377C98.191 241.377 99.2313 242.37 99.4205 244.19H93.5093C93.7221 242.322 94.8097 241.377 96.4412 241.377ZM108.084 251.26C109.763 251.26 110.898 250.48 111.395 249.747L110.567 247.382C110.236 248.044 109.574 248.777 108.675 248.777C107.895 248.777 107.304 248.47 107.304 247.217V241.542H110.827V239.485H107.304V236.411L104.656 238.09V239.485H102.859V241.542H104.656V247.855C104.656 249.889 105.909 251.26 108.084 251.26ZM162.676 251.236C165.088 251.236 166.199 249.439 166.554 247.926V248.777C166.554 250.433 167.524 251 168.753 251H170.385V248.73H169.652C169.226 248.73 169.037 248.565 169.037 248.044V243.717C169.037 240.88 167.429 239.249 164.568 239.249C162.014 239.249 160.217 240.573 159.319 241.802L160.903 243.694C161.565 242.488 162.771 241.589 164.308 241.589C165.892 241.589 166.412 242.37 166.507 243.528L162.653 245.16C160.785 245.893 159.65 246.886 159.65 248.517C159.65 250.172 160.785 251.236 162.676 251.236ZM162.204 248.115C162.204 247.524 162.605 247.122 163.599 246.673L166.554 245.349V246.578C166.554 248.139 165.372 249.179 163.622 249.179C162.653 249.179 162.204 248.777 162.204 248.115ZM175.058 251V244.545C175.058 242.653 175.72 241.4 177.281 241.4C178.841 241.4 179.503 242.204 179.503 243.788V251H182.151V244.545C182.151 242.653 182.814 241.4 184.374 241.4C185.935 241.4 186.597 242.204 186.597 243.788V251H189.245V242.984C189.245 240.596 188.086 239.249 185.887 239.249C183.688 239.249 182.553 240.833 182.151 242.653C182.033 240.478 180.898 239.249 178.794 239.249C176.619 239.249 175.484 240.809 175.058 242.63V239.485H172.41V251H175.058ZM196.769 251.236C200.126 251.236 202.396 248.825 202.396 245.254C202.396 241.66 200.126 239.249 196.769 239.249C193.458 239.249 191.188 241.66 191.188 245.254C191.188 248.825 193.458 251.236 196.769 251.236ZM196.792 249.037C195.09 249.037 193.908 247.903 193.908 245.254C193.908 242.582 195.09 241.447 196.792 241.447C198.518 241.447 199.701 242.582 199.701 245.254C199.701 247.903 198.518 249.037 196.792 249.037ZM208.191 251.236C210.484 251.236 211.666 249.676 212.092 247.855V251H214.764V239.485H212.092V245.94C212.092 247.832 211.43 249.085 209.491 249.085C207.718 249.085 207.245 248.115 207.245 246.697V239.485H204.597V247.501C204.597 249.889 205.968 251.236 208.191 251.236ZM220.2 251V244.545C220.2 242.653 220.862 241.4 222.801 241.4C224.575 241.4 225.047 242.37 225.047 243.788V251H227.719V242.984C227.719 240.596 226.348 239.249 224.102 239.249C221.808 239.249 220.626 240.809 220.2 242.63V239.485H217.552V251H220.2ZM234.298 251.26C235.977 251.26 237.112 250.48 237.608 249.747L236.781 247.382C236.45 248.044 235.788 248.777 234.889 248.777C234.109 248.777 233.518 248.47 233.518 247.217V241.542H237.041V239.485H233.518V236.411L230.869 238.09V239.485H229.072V241.542H230.869V247.855C230.869 249.889 232.123 251.26 234.298 251.26Z" fill="#3D0072"/>
<path d="M124.11 251C129.028 251 131.652 247.973 131.652 243.079C131.652 238.184 129.004 235.158 124.11 235.158H118.127V251H124.11ZM123.779 237.522C127.065 237.522 128.862 239.107 128.862 243.079C128.862 247.051 127.065 248.636 123.802 248.636H120.799V237.522H123.779ZM136.824 251V235.158H134.152V251H136.824ZM147.434 251C150.838 251 152.943 249.605 152.943 246.791C152.943 244.663 151.666 243.055 148.072 242.772C150.626 242.559 152.281 241.306 152.281 239.201C152.281 236.86 150.768 235.158 147.552 235.158H140.364V251H147.434ZM146.748 237.522C148.403 237.522 149.514 238.043 149.514 239.65C149.514 241.258 148.427 241.755 146.842 241.755H143.036V237.522H146.748ZM147.103 244.001C148.947 244.001 150.2 244.71 150.2 246.318C150.2 247.926 149.207 248.636 147.032 248.636H143.036V244.001H147.103Z" fill="#8807F7"/>
<path d="M78.4565 269.893C79.329 269.893 80.0171 269.439 80.0171 268.609C80.0171 267.737 79.3574 267.453 78.6268 267.283L78.0664 267.148C77.4493 266.999 77.1017 266.786 77.1017 266.268C77.1017 265.751 77.5628 265.453 78.1373 265.453C78.8254 265.453 79.3361 265.765 79.556 266.432L79.9462 266.119C79.6695 265.403 79.0169 265.013 78.1444 265.013C77.3429 265.013 76.6122 265.46 76.6122 266.304C76.6122 267.134 77.2506 267.425 77.9174 267.581L78.4353 267.694C79.1588 267.864 79.5489 268.063 79.5489 268.623C79.5489 269.226 79.0382 269.46 78.4565 269.46C77.8323 269.46 77.0591 269.163 76.8321 268.347L76.4704 268.659C76.7754 269.539 77.5982 269.893 78.4565 269.893ZM82.2986 269.9C83.0221 269.9 83.4761 269.553 83.7173 269.134L83.4335 268.801C83.2846 269.134 82.9867 269.51 82.2986 269.51C81.6247 269.51 81.1636 269.085 81.1353 268.233H83.7315C83.7386 268.177 83.7527 268.091 83.7527 268.006C83.7527 266.978 83.1711 266.354 82.2418 266.354C81.3197 266.354 80.6884 267.02 80.6884 268.127C80.6884 269.255 81.3481 269.9 82.2986 269.9ZM82.2418 266.737C82.8661 266.737 83.2846 267.127 83.3271 267.893H81.1424C81.2062 267.127 81.6176 266.737 82.2418 266.737ZM85.6371 269.907C86.0769 269.907 86.4103 269.702 86.5593 269.453L86.3961 268.999C86.2826 269.241 86.0343 269.46 85.7293 269.46C85.4314 269.46 85.176 269.326 85.176 268.836V266.786H86.3181V266.424H85.176V265.587L84.715 265.935V266.424H84.1617V266.786H84.715V268.964C84.715 269.581 85.1193 269.907 85.6371 269.907ZM89.1549 269.829V267.857C89.1549 267.269 89.4528 266.744 90.1834 266.744C90.7651 266.744 91.0062 267.084 91.0062 267.637V269.829H91.4744V267.531C91.4744 266.751 91.0346 266.354 90.3749 266.354C89.6798 266.354 89.2754 266.822 89.1549 267.375V265.077H88.6867V269.829H89.1549ZM93.7893 269.9C94.7257 269.9 95.3854 269.205 95.3854 268.127C95.3854 267.049 94.7257 266.354 93.7893 266.354C92.853 266.354 92.2004 267.049 92.2004 268.127C92.2004 269.205 92.853 269.9 93.7893 269.9ZM93.7893 269.503C93.1225 269.503 92.6686 269.028 92.6686 268.127C92.6686 267.219 93.1225 266.737 93.7893 266.737C94.4632 266.737 94.9172 267.219 94.9172 268.127C94.9172 269.028 94.4632 269.503 93.7893 269.503ZM97.2135 269.829L97.937 267.559L98.1356 266.815L98.3271 267.559L99.0507 269.829H99.6536L100.583 266.424H100.058L99.5047 268.723L99.3486 269.482L99.1429 268.723L98.4194 266.424H97.8448L97.1213 268.723L96.9155 269.482L96.7595 268.723L96.1991 266.424H95.6813L96.6105 269.829H97.2135ZM103.224 269.829V267.857C103.224 267.269 103.515 266.744 104.118 266.744C104.65 266.744 104.912 267.035 104.912 267.63V269.829H105.373V267.857C105.373 267.269 105.664 266.744 106.274 266.744C106.799 266.744 107.062 267.035 107.062 267.63V269.829H107.53V267.524C107.53 266.744 107.161 266.354 106.508 266.354C105.87 266.354 105.48 266.829 105.366 267.389C105.331 266.701 104.969 266.354 104.352 266.354C103.721 266.354 103.345 266.815 103.224 267.375V266.424H102.756V269.829H103.224ZM109.584 269.9C110.286 269.9 110.669 269.425 110.79 268.858V269.829H111.251V266.424H110.79V268.389C110.79 268.985 110.506 269.503 109.768 269.503C109.187 269.503 108.931 269.163 108.931 268.616V266.424H108.47V268.716C108.47 269.503 108.917 269.9 109.584 269.9ZM113.623 269.9C114.474 269.9 115.006 269.404 115.141 268.716L114.694 268.524C114.623 269.099 114.282 269.51 113.63 269.51C112.956 269.51 112.509 269.028 112.509 268.127C112.509 267.219 112.956 266.737 113.63 266.737C114.282 266.737 114.623 267.155 114.694 267.73L115.141 267.538C115.006 266.85 114.474 266.354 113.63 266.354C112.665 266.354 112.034 267.02 112.034 268.127C112.034 269.233 112.665 269.9 113.623 269.9ZM116.386 269.829V267.857C116.386 267.269 116.684 266.744 117.414 266.744C117.996 266.744 118.237 267.084 118.237 267.637V269.829H118.705V267.531C118.705 266.751 118.265 266.354 117.606 266.354C116.911 266.354 116.506 266.822 116.386 267.375V265.077H115.918V269.829H116.386ZM122.387 269.829L123.11 267.559L123.309 266.815L123.501 267.559L124.224 269.829H124.827L125.756 266.424H125.231L124.678 268.723L124.522 269.482L124.316 268.723L123.593 266.424H123.018L122.295 268.723L122.089 269.482L121.933 268.723L121.373 266.424H120.855L121.784 269.829H122.387ZM126.839 265.814V265.077H126.371V265.814H126.839ZM126.839 269.829V266.424H126.371V269.829H126.839ZM128.3 269.829V265.077H127.832V269.829H128.3ZM129.762 269.829V265.077H129.294V269.829H129.762ZM132.782 269.829V268.936C132.896 269.46 133.265 269.907 133.917 269.907C134.811 269.907 135.343 269.205 135.343 268.127C135.343 267.056 134.811 266.354 133.917 266.354C133.265 266.354 132.896 266.8 132.782 267.325V265.077H132.314V269.829H132.782ZM132.782 268.446V267.808C132.782 267.24 133.087 266.744 133.775 266.744C134.4 266.744 134.868 267.176 134.868 268.127C134.868 269.085 134.4 269.517 133.775 269.517C133.087 269.517 132.782 269.014 132.782 268.446ZM137.619 269.9C138.343 269.9 138.797 269.553 139.038 269.134L138.754 268.801C138.605 269.134 138.307 269.51 137.619 269.51C136.945 269.51 136.484 269.085 136.456 268.233H139.052C139.059 268.177 139.073 268.091 139.073 268.006C139.073 266.978 138.492 266.354 137.562 266.354C136.64 266.354 136.009 267.02 136.009 268.127C136.009 269.255 136.669 269.9 137.619 269.9ZM137.562 266.737C138.187 266.737 138.605 267.127 138.648 267.893H136.463C136.527 267.127 136.938 266.737 137.562 266.737ZM141.848 271.028C142.309 271.028 142.643 270.78 142.841 270.234L144.281 266.424H143.792L142.941 268.758L142.692 269.46L142.451 268.758L141.593 266.424H141.096L142.345 269.716L142.607 269.709L142.479 270.049C142.33 270.468 142.132 270.617 141.855 270.617C141.543 270.617 141.352 270.425 141.21 270.149L140.947 270.489C141.075 270.744 141.387 271.028 141.848 271.028ZM146.076 269.9C147.012 269.9 147.672 269.205 147.672 268.127C147.672 267.049 147.012 266.354 146.076 266.354C145.14 266.354 144.487 267.049 144.487 268.127C144.487 269.205 145.14 269.9 146.076 269.9ZM146.076 269.503C145.409 269.503 144.955 269.028 144.955 268.127C144.955 267.219 145.409 266.737 146.076 266.737C146.75 266.737 147.204 267.219 147.204 268.127C147.204 269.028 146.75 269.503 146.076 269.503ZM149.582 269.9C150.284 269.9 150.667 269.425 150.788 268.858V269.829H151.249V266.424H150.788V268.389C150.788 268.985 150.504 269.503 149.766 269.503C149.184 269.503 148.929 269.163 148.929 268.616V266.424H148.468V268.716C148.468 269.503 148.915 269.9 149.582 269.9ZM152.712 269.829V267.857C152.712 267.269 153.116 266.701 153.627 266.701C153.939 266.701 154.067 266.9 154.067 267.12C154.067 267.325 153.982 267.545 153.889 267.652H154.393C154.457 267.538 154.521 267.325 154.521 267.07C154.521 266.602 154.194 266.346 153.797 266.346C153.216 266.346 152.84 266.815 152.712 267.354V266.424H152.244V269.829H152.712ZM157.832 269.907C158.272 269.907 158.606 269.702 158.755 269.453L158.591 268.999C158.478 269.241 158.23 269.46 157.925 269.46C157.627 269.46 157.371 269.326 157.371 268.836V266.786H158.513V266.424H157.371V265.587L156.91 265.935V266.424H156.357V266.786H156.91V268.964C156.91 269.581 157.315 269.907 157.832 269.907ZM160.484 269.9C161.421 269.9 162.08 269.205 162.08 268.127C162.08 267.049 161.421 266.354 160.484 266.354C159.548 266.354 158.896 267.049 158.896 268.127C158.896 269.205 159.548 269.9 160.484 269.9ZM160.484 269.503C159.818 269.503 159.364 269.028 159.364 268.127C159.364 267.219 159.818 266.737 160.484 266.737C161.158 266.737 161.612 267.219 161.612 268.127C161.612 269.028 161.158 269.503 160.484 269.503ZM163.963 269.907C164.403 269.907 164.736 269.702 164.885 269.453L164.722 268.999C164.609 269.241 164.36 269.46 164.055 269.46C163.757 269.46 163.502 269.326 163.502 268.836V266.786H164.644V266.424H163.502V265.587L163.041 265.935V266.424H162.488V266.786H163.041V268.964C163.041 269.581 163.445 269.907 163.963 269.907ZM166.072 269.9C166.753 269.9 167.193 269.375 167.307 268.886V269.248C167.307 269.68 167.534 269.829 167.874 269.829H168.193V269.411H167.995C167.831 269.411 167.753 269.347 167.753 269.17V267.574C167.753 266.815 167.342 266.354 166.548 266.354C165.824 266.354 165.327 266.758 165.115 267.113L165.441 267.439C165.618 267.063 165.987 266.772 166.498 266.772C167.051 266.772 167.292 267.07 167.292 267.581V267.609L166.001 268.198C165.526 268.411 165.193 268.694 165.193 269.141C165.193 269.595 165.512 269.9 166.072 269.9ZM165.661 269.077C165.661 268.822 165.831 268.652 166.2 268.482L167.307 267.957V268.56C167.307 269.021 166.838 269.51 166.207 269.51C165.874 269.51 165.661 269.361 165.661 269.077ZM169.413 269.829V265.077H168.945V269.829H169.413ZM173.271 269.9C173.902 269.9 174.455 269.609 174.455 268.957C174.455 268.474 174.172 268.184 173.462 268.006L173.008 267.893C172.512 267.772 172.256 267.645 172.256 267.29C172.256 266.935 172.547 266.744 172.959 266.744C173.491 266.744 173.845 266.999 174.001 267.46L174.356 267.198C174.186 266.715 173.711 266.354 172.987 266.354C172.285 266.354 171.817 266.722 171.817 267.311C171.817 267.921 172.32 268.148 172.81 268.269L173.271 268.375C173.732 268.482 174.037 268.609 174.037 268.964C174.037 269.319 173.739 269.503 173.285 269.503C172.597 269.503 172.171 269.12 172.065 268.659L171.717 268.921C171.923 269.588 172.576 269.9 173.271 269.9ZM175.937 269.9C176.618 269.9 177.057 269.375 177.171 268.886V269.248C177.171 269.68 177.398 269.829 177.738 269.829H178.058V269.411H177.859C177.696 269.411 177.618 269.347 177.618 269.17V267.574C177.618 266.815 177.206 266.354 176.412 266.354C175.688 266.354 175.192 266.758 174.979 267.113L175.305 267.439C175.483 267.063 175.851 266.772 176.362 266.772C176.916 266.772 177.157 267.07 177.157 267.581V267.609L175.866 268.198C175.39 268.411 175.057 268.694 175.057 269.141C175.057 269.595 175.376 269.9 175.937 269.9ZM175.525 269.077C175.525 268.822 175.695 268.652 176.064 268.482L177.171 267.957V268.56C177.171 269.021 176.703 269.51 176.071 269.51C175.738 269.51 175.525 269.361 175.525 269.077ZM180.097 269.829L181.381 266.424H180.885L180.147 268.496L179.821 269.475L179.48 268.496L178.742 266.424H178.232L179.516 269.829H180.097ZM182.416 265.814V265.077H181.948V265.814H182.416ZM182.416 269.829V266.424H181.948V269.829H182.416ZM183.877 269.829V267.857C183.877 267.269 184.168 266.744 184.885 266.744C185.473 266.744 185.729 267.084 185.729 267.637V269.829H186.197V267.531C186.197 266.751 185.743 266.354 185.069 266.354C184.388 266.354 183.998 266.822 183.877 267.375V266.424H183.409V269.829H183.877ZM188.449 268.78C189.243 268.78 189.768 268.276 189.768 267.567C189.768 267.148 189.584 266.8 189.264 266.581L189.874 265.85L189.385 265.665L189.108 266.488C188.917 266.403 188.697 266.354 188.449 266.354C187.661 266.354 187.129 266.857 187.129 267.567C187.129 267.999 187.328 268.354 187.654 268.567C187.37 268.787 187.158 269.07 187.158 269.347C187.158 269.553 187.271 269.716 187.505 269.78C187.236 269.886 186.895 270.106 186.895 270.461C186.895 270.929 187.434 271.22 188.3 271.22C189.392 271.22 190.045 270.766 190.045 270.134C190.045 269.638 189.676 269.397 189.08 269.397H188.023C187.654 269.397 187.541 269.283 187.541 269.092C187.541 268.928 187.647 268.751 187.753 268.623C187.952 268.723 188.186 268.78 188.449 268.78ZM188.449 268.418C187.945 268.418 187.583 268.084 187.583 267.567C187.583 267.049 187.945 266.715 188.449 266.715C188.959 266.715 189.321 267.049 189.321 267.567C189.321 268.084 188.959 268.418 188.449 268.418ZM188.3 270.851C187.654 270.851 187.278 270.659 187.278 270.326C187.278 270.106 187.463 269.907 187.633 269.801H189.016C189.42 269.801 189.612 269.922 189.612 270.191C189.612 270.581 189.122 270.851 188.3 270.851ZM191.926 269.9C192.557 269.9 193.11 269.609 193.11 268.957C193.11 268.474 192.827 268.184 192.117 268.006L191.663 267.893C191.167 267.772 190.911 267.645 190.911 267.29C190.911 266.935 191.202 266.744 191.614 266.744C192.146 266.744 192.5 266.999 192.656 267.46L193.011 267.198C192.841 266.715 192.365 266.354 191.642 266.354C190.94 266.354 190.472 266.722 190.472 267.311C190.472 267.921 190.975 268.148 191.465 268.269L191.926 268.375C192.387 268.482 192.692 268.609 192.692 268.964C192.692 269.319 192.394 269.503 191.94 269.503C191.252 269.503 190.826 269.12 190.72 268.659L190.372 268.921C190.578 269.588 191.231 269.9 191.926 269.9Z" fill="#6B7280"/>
<rect x="75.5439" y="371.596" width="212.22" height="33.8154" rx="16.9077" fill="#8807F7"/>
<path d="M166.513 391.077C164.623 391.077 163.558 389.691 163.558 387.92C163.558 386.149 164.623 384.763 166.513 384.763C167.871 384.763 168.807 385.461 169.238 386.663L168.339 387.324C168.146 386.397 167.578 385.745 166.522 385.745C165.256 385.745 164.659 386.644 164.659 387.92C164.659 389.186 165.256 390.095 166.522 390.095C167.578 390.095 168.146 389.434 168.339 388.517L169.238 389.177C168.807 390.37 167.871 391.077 166.513 391.077ZM171.94 391.095C170.655 391.095 169.774 390.159 169.774 388.773C169.774 387.379 170.655 386.443 171.94 386.443C173.243 386.443 174.124 387.379 174.124 388.773C174.124 390.159 173.243 391.095 171.94 391.095ZM171.949 390.242C172.619 390.242 173.078 389.801 173.078 388.773C173.078 387.736 172.619 387.296 171.949 387.296C171.288 387.296 170.829 387.736 170.829 388.773C170.829 389.801 171.288 390.242 171.949 390.242ZM176.033 391.003H175.005V386.534H176.033V387.755C176.198 387.048 176.657 386.443 177.547 386.443C178.419 386.443 178.951 386.966 178.951 387.892V391.003H177.914V388.205C177.914 387.654 177.731 387.278 177.043 387.278C176.29 387.278 176.033 387.764 176.033 388.498V391.003ZM181.505 391.104C180.66 391.104 180.174 390.572 180.174 389.783V387.333H179.477V386.534H180.174V385.993L181.202 385.341V386.534H182.569V387.333H181.202V389.535C181.202 390.022 181.431 390.141 181.734 390.141C182.083 390.141 182.34 389.856 182.468 389.599L182.789 390.517C182.597 390.802 182.156 391.104 181.505 391.104ZM184.511 385.901H183.483V384.855H184.511V385.901ZM184.511 391.003H183.483V386.534H184.511V391.003ZM186.626 391.003H185.598V386.534H186.626V387.755C186.791 387.048 187.25 386.443 188.14 386.443C189.012 386.443 189.544 386.966 189.544 387.892V391.003H188.507V388.205C188.507 387.654 188.324 387.278 187.635 387.278C186.883 387.278 186.626 387.764 186.626 388.498V391.003ZM191.966 391.095C191.103 391.095 190.571 390.572 190.571 389.645V386.534H191.599V389.333C191.599 389.884 191.783 390.26 192.471 390.26C193.223 390.26 193.48 389.774 193.48 389.04V386.534H194.517V391.003H193.48V389.783C193.315 390.49 192.856 391.095 191.966 391.095ZM197.564 391.095C196.233 391.095 195.361 390.168 195.361 388.773C195.361 387.369 196.233 386.443 197.49 386.443C198.83 386.443 199.573 387.333 199.573 388.572C199.573 388.737 199.555 388.929 199.537 389.021H196.343C196.398 389.82 196.866 390.251 197.573 390.251C198.353 390.251 198.702 389.847 198.867 389.471L199.5 390.132C199.16 390.646 198.555 391.095 197.564 391.095ZM197.49 387.268C196.857 387.268 196.435 387.636 196.352 388.361H198.646C198.573 387.654 198.169 387.268 197.49 387.268Z" fill="white"/>
<rect width="211.621" height="3.6236" rx="1.8118" transform="matrix(1 0 0 -1 75.5364 203.908)" fill="#E7CDFE"/>
<rect width="125.909" height="4.13785" rx="2.06893" transform="matrix(1 0 0 -1 75.5364 204.161)" fill="#8807F7"/>
<g opacity="0.5">
<g filter="url(#filter0_d_241_817)">
<circle cx="6.79426" cy="6.79426" r="6.79426" transform="matrix(0 1 1 0 274.161 195.302)" fill="white"/>
</g>
<g clip-path="url(#clip2_241_817)">
<path d="M280.268 199.732C280.148 199.79 280.044 199.876 279.963 199.982C279.903 200.06 279.856 200.147 279.826 200.241L279.688 200.662C279.679 200.69 279.662 200.716 279.639 200.735C279.617 200.755 279.589 200.768 279.559 200.773C279.525 200.779 279.49 200.774 279.459 200.759C279.428 200.744 279.402 200.72 279.386 200.69L279.387 200.688C279.382 200.679 279.378 200.67 279.375 200.661L279.238 200.24C279.195 200.112 279.123 199.996 279.028 199.901C278.932 199.805 278.816 199.734 278.688 199.691L278.267 199.554C278.235 199.543 278.207 199.522 278.187 199.494C278.167 199.466 278.157 199.432 278.157 199.398C278.157 199.363 278.167 199.33 278.187 199.302C278.207 199.274 278.235 199.252 278.267 199.241L278.276 199.239L278.697 199.102C278.825 199.06 278.941 198.988 279.036 198.893C279.132 198.797 279.204 198.681 279.246 198.553L279.383 198.132C279.394 198.1 279.415 198.072 279.444 198.052C279.472 198.032 279.505 198.021 279.54 198.021C279.574 198.021 279.608 198.032 279.636 198.052C279.664 198.072 279.685 198.1 279.696 198.132L279.833 198.553L279.837 198.564C279.866 198.65 279.909 198.731 279.964 198.803L279.965 198.803C280.069 198.94 280.212 199.044 280.375 199.1L280.796 199.238C280.826 199.248 280.853 199.266 280.873 199.291C280.893 199.316 280.906 199.347 280.909 199.379C280.912 199.41 280.906 199.443 280.891 199.471C280.876 199.499 280.853 199.523 280.825 199.539C280.816 199.544 280.806 199.549 280.796 199.552L280.375 199.689C280.338 199.701 280.302 199.716 280.268 199.732ZM278.972 201.003C278.966 200.991 278.958 200.98 278.948 200.972C278.939 200.963 278.927 200.956 278.915 200.952L278.662 200.87C278.586 200.844 278.518 200.8 278.461 200.743C278.405 200.686 278.363 200.617 278.338 200.541L278.255 200.288C278.248 200.269 278.236 200.252 278.219 200.24C278.202 200.228 278.182 200.222 278.161 200.222C278.141 200.222 278.121 200.228 278.104 200.24C278.087 200.252 278.074 200.269 278.067 200.288L277.985 200.541C277.96 200.617 277.917 200.687 277.859 200.744C277.802 200.801 277.732 200.844 277.656 200.87L277.403 200.952L277.398 200.953C277.378 200.96 277.361 200.973 277.349 200.989C277.337 201.006 277.331 201.026 277.331 201.047C277.331 201.068 277.337 201.088 277.349 201.105C277.361 201.122 277.378 201.134 277.398 201.141L277.651 201.223C277.756 201.259 277.848 201.327 277.912 201.418V201.419C277.941 201.461 277.964 201.506 277.98 201.554L278.062 201.806C278.069 201.826 278.082 201.842 278.099 201.854C278.116 201.866 278.136 201.873 278.156 201.873C278.177 201.873 278.197 201.866 278.214 201.854C278.231 201.842 278.243 201.826 278.25 201.806L278.333 201.554C278.358 201.477 278.401 201.407 278.459 201.35C278.516 201.292 278.586 201.249 278.663 201.224L278.916 201.141C278.929 201.137 278.941 201.129 278.951 201.119C278.961 201.11 278.969 201.098 278.975 201.085C278.98 201.072 278.982 201.058 278.982 201.044C278.981 201.03 278.978 201.016 278.972 201.003V201.003ZM281.181 205.172C279.413 205.172 277.969 203.78 277.885 202.032C277.93 202.078 277.986 202.113 278.048 202.131C278.109 202.15 278.175 202.152 278.238 202.138C278.301 202.124 278.359 202.094 278.407 202.05C278.455 202.007 278.491 201.952 278.511 201.891L278.594 201.639C278.606 201.603 278.626 201.571 278.653 201.544C278.679 201.517 278.712 201.497 278.747 201.484L279.007 201.4C279.08 201.374 279.143 201.326 279.188 201.263C279.232 201.2 279.256 201.124 279.256 201.047C279.256 201.009 279.25 200.972 279.238 200.936C279.293 200.985 279.359 201.018 279.429 201.035C279.5 201.052 279.574 201.05 279.645 201.031C279.715 201.012 279.779 200.976 279.832 200.926C279.885 200.876 279.925 200.813 279.947 200.744L280.085 200.324C280.113 200.237 280.162 200.157 280.228 200.092C280.292 200.027 280.371 199.978 280.458 199.949L280.885 199.812C280.95 199.789 281.008 199.752 281.056 199.703C281.104 199.654 281.139 199.595 281.16 199.529C281.181 199.464 281.186 199.395 281.175 199.328C281.165 199.26 281.139 199.196 281.099 199.141C281.044 199.064 280.967 199.007 280.879 198.977L280.463 198.842C280.38 198.814 280.305 198.767 280.243 198.707C280.548 198.617 280.864 198.571 281.181 198.572C283.004 198.572 284.481 200.049 284.481 201.872C284.481 203.694 283.004 205.172 281.181 205.172ZM280.219 201.597C280.328 201.597 280.433 201.553 280.511 201.476C280.588 201.398 280.631 201.294 280.631 201.184C280.631 201.075 280.588 200.97 280.511 200.892C280.433 200.815 280.328 200.772 280.219 200.772C280.109 200.772 280.005 200.815 279.927 200.892C279.85 200.97 279.806 201.075 279.806 201.184C279.806 201.294 279.85 201.398 279.927 201.476C280.005 201.553 280.109 201.597 280.219 201.597ZM281.731 201.184C281.731 201.294 281.775 201.398 281.852 201.476C281.93 201.553 282.034 201.597 282.144 201.597C282.253 201.597 282.358 201.553 282.436 201.476C282.513 201.398 282.556 201.294 282.556 201.184C282.556 201.075 282.513 200.97 282.436 200.892C282.358 200.815 282.253 200.772 282.144 200.772C282.034 200.772 281.93 200.815 281.852 200.892C281.775 200.97 281.731 201.075 281.731 201.184ZM282.741 202.732C282.696 202.702 282.641 202.69 282.587 202.7C282.534 202.71 282.486 202.741 282.455 202.786L282.453 202.789L282.441 202.806C282.429 202.82 282.41 202.843 282.385 202.871C282.333 202.927 282.255 203.003 282.149 203.079C281.938 203.231 281.618 203.384 281.181 203.384C280.745 203.384 280.425 203.231 280.214 203.079C280.108 203.003 280.029 202.927 279.978 202.871C279.954 202.845 279.931 202.818 279.91 202.789L279.908 202.787C279.877 202.741 279.829 202.71 279.776 202.7C279.722 202.69 279.666 202.701 279.621 202.732C279.576 202.763 279.545 202.811 279.535 202.864C279.524 202.918 279.536 202.974 279.567 203.019L279.567 203.019V203.02L279.568 203.021L279.57 203.023L279.573 203.027L279.576 203.032C279.607 203.073 279.639 203.112 279.674 203.15C279.764 203.248 279.865 203.336 279.973 203.414C280.24 203.606 280.642 203.797 281.181 203.797C281.721 203.797 282.123 203.606 282.39 203.414C282.498 203.336 282.598 203.248 282.689 203.15C282.726 203.11 282.76 203.067 282.792 203.024L282.795 203.021L282.795 203.02L282.795 203.019L282.796 203.019C282.826 202.974 282.838 202.918 282.828 202.864C282.818 202.811 282.786 202.763 282.741 202.732Z" fill="#8807F7"/>
</g>
</g>
<g filter="url(#filter1_d_241_817)">
<circle cx="6.79426" cy="6.79426" r="6.79426" transform="matrix(0 1 1 0 109.396 195.302)" fill="white"/>
</g>
<g clip-path="url(#clip3_241_817)">
<path d="M115.959 205.947C114.938 205.947 113.959 205.541 113.237 204.819C112.515 204.097 112.109 203.118 112.109 202.097C112.109 201.076 112.515 200.096 113.237 199.374C113.959 198.652 114.938 198.247 115.959 198.247C116.981 198.247 117.96 198.652 118.682 199.374C119.404 200.096 119.81 201.076 119.81 202.097C119.81 203.118 119.404 204.097 118.682 204.819C117.96 205.541 116.981 205.947 115.959 205.947ZM116.441 201.375C116.441 201.773 116.656 202.097 116.922 202.097C117.188 202.097 117.403 201.773 117.403 201.375C117.403 200.976 117.188 200.653 116.922 200.653C116.656 200.653 116.441 200.976 116.441 201.375ZM117.747 204.23C117.803 204.198 117.843 204.146 117.859 204.084C117.876 204.022 117.867 203.957 117.835 203.901C117.645 203.572 117.372 203.299 117.043 203.108C116.713 202.918 116.34 202.818 115.959 202.819C115.579 202.818 115.206 202.919 114.876 203.109C114.547 203.299 114.274 203.572 114.084 203.901C114.052 203.957 114.044 204.022 114.06 204.083C114.077 204.145 114.117 204.197 114.172 204.229C114.227 204.26 114.293 204.269 114.354 204.253C114.416 204.237 114.468 204.197 114.5 204.142C114.648 203.886 114.861 203.673 115.117 203.525C115.373 203.377 115.664 203.3 115.959 203.3C116.255 203.3 116.546 203.377 116.802 203.525C117.058 203.673 117.271 203.886 117.419 204.142C117.451 204.197 117.503 204.238 117.565 204.254C117.626 204.271 117.692 204.262 117.747 204.23ZM114.997 202.097C115.263 202.097 115.478 201.773 115.478 201.375C115.478 200.976 115.263 200.653 114.997 200.653C114.731 200.653 114.516 200.976 114.516 201.375C114.516 201.773 114.731 202.097 114.997 202.097Z" fill="#8807F7"/>
</g>
<g opacity="0.5">
<g filter="url(#filter2_d_241_817)">
<circle cx="6.79426" cy="6.79426" r="6.79426" transform="matrix(0 1 1 0 219.177 194.849)" fill="white"/>
<circle cx="6.79426" cy="6.79426" r="6.79426" transform="matrix(0 1 1 0 219.177 194.849)" stroke="#8807F7" stroke-width="0.886682"/>
</g>
<path d="M226.342 198.02C224.215 198.02 222.491 199.743 222.491 201.87C222.491 203.996 224.215 205.72 226.342 205.72C228.468 205.72 230.192 203.996 230.192 201.87C230.192 199.743 228.468 198.02 226.342 198.02ZM227.704 202.941C227.752 202.883 227.821 202.846 227.896 202.838C227.971 202.83 228.046 202.852 228.105 202.898C228.165 202.945 228.203 203.013 228.213 203.088C228.223 203.163 228.203 203.238 228.157 203.299C227.941 203.574 227.666 203.796 227.351 203.949C227.037 204.101 226.692 204.18 226.342 204.18C225.626 204.18 224.963 203.852 224.528 203.301C224.504 203.271 224.487 203.237 224.477 203.201C224.466 203.164 224.463 203.126 224.468 203.088C224.472 203.051 224.484 203.014 224.502 202.981C224.521 202.948 224.546 202.919 224.575 202.895C224.605 202.872 224.639 202.854 224.676 202.844C224.712 202.834 224.75 202.831 224.788 202.835C224.826 202.84 224.862 202.851 224.895 202.87C224.928 202.888 224.958 202.913 224.981 202.943C225.143 203.149 225.35 203.315 225.586 203.43C225.821 203.544 226.08 203.603 226.342 203.603C226.88 203.603 227.377 203.356 227.704 202.941ZM227.497 200.619C227.561 200.617 227.625 200.628 227.685 200.651C227.745 200.675 227.8 200.71 227.846 200.755C227.892 200.8 227.929 200.853 227.954 200.913C227.979 200.972 227.992 201.036 227.992 201.1C227.992 201.164 227.979 201.228 227.954 201.287C227.929 201.346 227.892 201.4 227.846 201.445C227.8 201.49 227.745 201.525 227.685 201.548C227.625 201.572 227.561 201.583 227.497 201.581C227.372 201.577 227.253 201.525 227.165 201.435C227.078 201.345 227.029 201.225 227.029 201.1C227.029 200.975 227.078 200.854 227.165 200.764C227.253 200.675 227.372 200.622 227.497 200.619ZM225.187 200.619C225.251 200.617 225.315 200.628 225.375 200.651C225.435 200.675 225.49 200.71 225.536 200.755C225.582 200.8 225.619 200.853 225.644 200.913C225.669 200.972 225.682 201.036 225.682 201.1C225.682 201.164 225.669 201.228 225.644 201.287C225.619 201.346 225.582 201.4 225.536 201.445C225.49 201.49 225.435 201.525 225.375 201.548C225.315 201.572 225.251 201.583 225.187 201.581C225.062 201.577 224.943 201.525 224.856 201.435C224.768 201.345 224.719 201.225 224.719 201.1C224.719 200.975 224.768 200.854 224.856 200.764C224.943 200.675 225.062 200.622 225.187 200.619Z" fill="#8807F7"/>
</g>
<g clip-path="url(#clip4_241_817)" filter="url(#filter3_f_241_817)">
<path d="M170.708 208.299C169.297 208.299 167.944 208.081 166.946 207.693C165.949 207.305 165.388 206.779 165.388 206.231C165.388 205.682 165.949 205.156 166.946 204.768C167.944 204.38 169.297 204.162 170.708 204.162C172.119 204.162 173.472 204.38 174.47 204.768C175.468 205.156 176.028 205.682 176.028 206.231C176.028 206.779 175.468 207.305 174.47 207.693C173.472 208.081 172.119 208.299 170.708 208.299ZM171.373 205.843C171.373 206.057 171.671 206.231 172.038 206.231C172.405 206.231 172.703 206.057 172.703 205.843C172.703 205.628 172.405 205.455 172.038 205.455C171.671 205.455 171.373 205.628 171.373 205.843ZM173.179 207.377C173.255 207.36 173.311 207.332 173.334 207.298C173.356 207.265 173.345 207.23 173.3 207.2C173.038 207.023 172.66 206.876 172.205 206.774C171.75 206.672 171.234 206.618 170.708 206.618C170.183 206.618 169.667 206.672 169.212 206.774C168.757 206.876 168.379 207.023 168.116 207.2C168.073 207.23 168.061 207.265 168.084 207.298C168.107 207.331 168.163 207.359 168.239 207.376C168.315 207.393 168.405 207.398 168.49 207.389C168.575 207.381 168.648 207.359 168.692 207.33C168.896 207.192 169.19 207.078 169.544 206.998C169.898 206.919 170.3 206.877 170.708 206.877C171.117 206.877 171.518 206.919 171.872 206.998C172.226 207.078 172.52 207.192 172.725 207.33C172.769 207.359 172.841 207.381 172.926 207.39C173.012 207.399 173.102 207.394 173.179 207.377ZM169.378 206.231C169.745 206.231 170.043 206.057 170.043 205.843C170.043 205.628 169.745 205.455 169.378 205.455C169.011 205.455 168.713 205.628 168.713 205.843C168.713 206.057 169.011 206.231 169.378 206.231Z" fill="#8807F7"/>
</g>
<g filter="url(#filter4_d_241_817)">
<circle cx="6.79426" cy="6.79426" r="6.79426" transform="matrix(0 1 1 0 164.208 195.302)" fill="white"/>
<circle cx="6.79426" cy="6.79426" r="6.79426" transform="matrix(0 1 1 0 164.208 195.302)" stroke="#8807F7" stroke-width="0.886682"/>
</g>
<g clip-path="url(#clip5_241_817)">
<path d="M170.772 206.174C169.751 206.174 168.772 205.768 168.05 205.046C167.328 204.324 166.922 203.345 166.922 202.323C166.922 201.302 167.328 200.323 168.05 199.601C168.772 198.879 169.751 198.473 170.772 198.473C171.793 198.473 172.772 198.879 173.494 199.601C174.216 200.323 174.622 201.302 174.622 202.323C174.622 203.345 174.216 204.324 173.494 205.046C172.772 205.768 171.793 206.174 170.772 206.174ZM172.456 201.361H171.494C171.43 201.361 171.369 201.386 171.324 201.431C171.279 201.477 171.253 201.538 171.253 201.602C171.253 201.665 171.279 201.727 171.324 201.772C171.369 201.817 171.43 201.842 171.494 201.842H172.456C172.52 201.842 172.581 201.817 172.627 201.772C172.672 201.727 172.697 201.665 172.697 201.602C172.697 201.538 172.672 201.477 172.627 201.431C172.581 201.386 172.52 201.361 172.456 201.361ZM170.05 201.361H169.088C169.024 201.361 168.963 201.386 168.917 201.431C168.872 201.477 168.847 201.538 168.847 201.602C168.847 201.665 168.872 201.727 168.917 201.772C168.963 201.817 169.024 201.842 169.088 201.842H170.05C170.114 201.842 170.175 201.817 170.22 201.772C170.265 201.727 170.291 201.665 170.291 201.602C170.291 201.538 170.265 201.477 170.22 201.431C170.175 201.386 170.114 201.361 170.05 201.361ZM172.456 203.286H169.088C169.024 203.286 168.963 203.311 168.917 203.356C168.872 203.402 168.847 203.463 168.847 203.527C168.847 203.59 168.872 203.652 168.917 203.697C168.963 203.742 169.024 203.767 169.088 203.767H172.456C172.52 203.767 172.581 203.742 172.627 203.697C172.672 203.652 172.697 203.59 172.697 203.527C172.697 203.463 172.672 203.402 172.627 203.356C172.581 203.311 172.52 203.286 172.456 203.286Z" fill="#8807F7"/>
</g>
<rect x="76.1299" y="300.612" width="211.03" height="39.014" rx="4.72897" fill="#F3F4F6"/>
<path d="M89.8724 322.119H89.0862C89.0862 319.363 90.2696 318.13 91.1799 317.253H88.2007V316.574H91.8337V317.394C90.6089 318.56 89.8724 319.76 89.8724 322.119ZM94.4233 322.202C92.9006 322.202 92.1888 320.952 92.1888 319.338C92.1888 317.741 92.9006 316.492 94.4233 316.492C95.9377 316.492 96.6494 317.741 96.6494 319.338C96.6494 320.952 95.9377 322.202 94.4233 322.202ZM94.4316 321.515C95.5239 321.515 95.8964 320.613 95.8964 319.338C95.8964 318.08 95.5239 317.17 94.4316 317.17C93.3309 317.17 92.9502 318.08 92.9502 319.338C92.9502 320.613 93.3309 321.515 94.4316 321.515ZM97.5434 322.963L97.3862 322.566C97.6675 322.525 97.8 322.467 97.8 322.235V322.119H97.3944V321.043H98.2634V322.119C98.2634 322.607 98.1062 322.897 97.5434 322.963ZM101.236 322.202C99.7135 322.202 99.0017 320.952 99.0017 319.338C99.0017 317.741 99.7135 316.492 101.236 316.492C102.751 316.492 103.462 317.741 103.462 319.338C103.462 320.952 102.751 322.202 101.236 322.202ZM101.244 321.515C102.337 321.515 102.709 320.613 102.709 319.338C102.709 318.08 102.337 317.17 101.244 317.17C100.144 317.17 99.7631 318.08 99.7631 319.338C99.7631 320.613 100.144 321.515 101.244 321.515ZM106.505 322.202C104.983 322.202 104.271 320.952 104.271 319.338C104.271 317.741 104.983 316.492 106.505 316.492C108.02 316.492 108.732 317.741 108.732 319.338C108.732 320.952 108.02 322.202 106.505 322.202ZM106.514 321.515C107.606 321.515 107.979 320.613 107.979 319.338C107.979 318.08 107.606 317.17 106.514 317.17C105.413 317.17 105.032 318.08 105.032 319.338C105.032 320.613 105.413 321.515 106.514 321.515ZM111.775 322.202C110.252 322.202 109.54 320.952 109.54 319.338C109.54 317.741 110.252 316.492 111.775 316.492C113.289 316.492 114.001 317.741 114.001 319.338C114.001 320.952 113.289 322.202 111.775 322.202ZM111.783 321.515C112.875 321.515 113.248 320.613 113.248 319.338C113.248 318.08 112.875 317.17 111.783 317.17C110.682 317.17 110.302 318.08 110.302 319.338C110.302 320.613 110.682 321.515 111.783 321.515Z" fill="#8807F7"/>
<path d="M84.4758 173.482L79.4956 168.517C79.4365 168.458 79.3947 168.393 79.3702 168.325C79.3454 168.256 79.333 168.182 79.333 168.103C79.333 168.024 79.3454 167.95 79.3702 167.881C79.3947 167.812 79.4365 167.748 79.4956 167.689L84.4758 162.709C84.6137 162.571 84.7861 162.502 84.993 162.502C85.1999 162.502 85.3772 162.576 85.525 162.724C85.6728 162.871 85.7467 163.044 85.7467 163.241C85.7467 163.438 85.6728 163.61 85.525 163.758L81.1803 168.103L85.525 172.448C85.6629 172.586 85.7319 172.755 85.7319 172.957C85.7319 173.159 85.658 173.334 85.5102 173.482C85.3624 173.63 85.19 173.704 84.993 173.704C84.796 173.704 84.6235 173.63 84.4758 173.482Z" fill="#3D0072"/>
<path opacity="0.35" fill-rule="evenodd" clip-rule="evenodd" d="M284.661 131.355C283.981 131.355 283.712 131.4 283.435 131.53C283.2 131.64 283.018 131.8 282.893 132.005C282.744 132.248 282.692 132.484 282.692 133.08V135.738C282.692 136.334 282.744 136.569 282.893 136.813C283.018 137.018 283.2 137.178 283.435 137.287C283.712 137.417 283.981 137.463 284.661 137.463H294.891C295.572 137.463 295.841 137.417 296.118 137.287C296.353 137.178 296.535 137.018 296.66 136.813C296.808 136.569 296.86 136.334 296.86 135.738V133.08C296.86 132.484 296.808 132.248 296.66 132.005C296.535 131.8 296.353 131.64 296.118 131.53C295.841 131.4 295.572 131.355 294.891 131.355H284.661Z" stroke="black" stroke-width="0.591121"/>
<path opacity="0.4" d="M297.872 133.227V135.591C298.415 135.391 298.768 134.925 298.768 134.409C298.768 133.893 298.415 133.427 297.872 133.227Z" fill="black"/>
<path d="M284.853 132.241H294.691C295.092 132.241 295.237 132.278 295.384 132.347C295.531 132.415 295.646 132.516 295.724 132.645C295.802 132.773 295.844 132.901 295.844 133.252V135.566C295.844 135.917 295.802 136.045 295.724 136.173C295.646 136.302 295.531 136.402 295.384 136.471C295.237 136.54 295.092 136.576 294.691 136.576H284.853C284.452 136.576 284.307 136.54 284.16 136.471C284.014 136.402 283.899 136.302 283.82 136.173C283.742 136.045 283.7 135.917 283.7 135.566V133.252C283.7 132.901 283.742 132.773 283.82 132.645C283.899 132.516 284.014 132.415 284.16 132.347C284.307 132.278 284.452 132.241 284.853 132.241Z" fill="black"/>
<path d="M273.81 132.408C275.311 132.408 276.755 132.913 277.843 133.818C277.925 133.888 278.056 133.887 278.136 133.816L278.919 133.124C278.96 133.088 278.983 133.04 278.983 132.989C278.982 132.938 278.959 132.889 278.917 132.854C276.062 130.459 271.558 130.459 268.703 132.854C268.662 132.889 268.638 132.938 268.638 132.989C268.637 133.039 268.66 133.088 268.701 133.124L269.484 133.816C269.565 133.887 269.696 133.888 269.778 133.818C270.866 132.913 272.309 132.408 273.81 132.408ZM273.81 134.659C274.635 134.658 275.43 134.927 276.042 135.411C276.124 135.48 276.255 135.479 276.335 135.408L277.117 134.716C277.158 134.68 277.181 134.631 277.181 134.58C277.18 134.528 277.156 134.48 277.114 134.444C275.253 132.928 272.37 132.928 270.508 134.444C270.466 134.48 270.442 134.528 270.442 134.58C270.441 134.631 270.464 134.68 270.505 134.716L271.287 135.408C271.368 135.479 271.498 135.48 271.581 135.411C272.192 134.927 272.986 134.659 273.81 134.659ZM275.313 136.31C275.355 136.274 275.378 136.224 275.377 136.173C275.376 136.122 275.351 136.073 275.307 136.039C274.443 135.399 273.178 135.399 272.314 136.039C272.27 136.073 272.245 136.122 272.244 136.173C272.242 136.224 272.265 136.274 272.307 136.31L273.66 137.505C273.7 137.54 273.754 137.56 273.81 137.56C273.867 137.56 273.921 137.54 273.961 137.505L275.313 136.31Z" fill="black"/>
<path d="M254.476 135.197H255.151C255.524 135.197 255.826 135.462 255.826 135.788V136.97C255.826 137.297 255.524 137.561 255.151 137.561H254.476C254.104 137.561 253.802 137.297 253.802 136.97V135.788C253.802 135.462 254.104 135.197 254.476 135.197ZM257.625 134.015H258.3C258.672 134.015 258.974 134.279 258.974 134.606V136.97C258.974 137.297 258.672 137.561 258.3 137.561H257.625C257.252 137.561 256.95 137.297 256.95 136.97V134.606C256.95 134.279 257.252 134.015 257.625 134.015ZM260.773 132.635H261.448C261.821 132.635 262.123 132.9 262.123 133.227V136.97C262.123 137.297 261.821 137.561 261.448 137.561H260.773C260.401 137.561 260.099 137.297 260.099 136.97V133.227C260.099 132.9 260.401 132.635 260.773 132.635ZM263.922 131.256H264.596C264.969 131.256 265.271 131.521 265.271 131.847V136.97C265.271 137.297 264.969 137.561 264.596 137.561H263.922C263.549 137.561 263.247 137.297 263.247 136.97V131.847C263.247 131.521 263.549 131.256 263.922 131.256Z" fill="black"/>
<path d="M77.9459 131.63C78.1173 131.559 78.2946 131.479 78.4779 131.39C78.667 131.296 78.8503 131.195 79.0276 131.089C79.205 130.976 79.3734 130.861 79.533 130.743C79.6985 130.619 79.8463 130.489 79.9764 130.353H80.8985V136.498H79.5774V132.073C79.4 132.191 79.202 132.301 78.9833 132.401C78.7646 132.496 78.5518 132.578 78.3449 132.649L77.9459 131.63ZM86.7627 131.967C86.7627 132.191 86.7183 132.407 86.6297 132.614C86.541 132.821 86.4257 133.022 86.2839 133.217C86.142 133.406 85.9824 133.589 85.8051 133.767C85.6277 133.944 85.4533 134.112 85.2819 134.272C85.1933 134.355 85.0957 134.449 84.9893 134.556C84.8888 134.656 84.7913 134.76 84.6967 134.866C84.6021 134.972 84.5164 135.073 84.4396 135.168C84.3686 135.256 84.3243 135.33 84.3066 135.389H86.9489V136.498H82.8524C82.8406 136.433 82.8347 136.35 82.8347 136.249C82.8347 136.149 82.8347 136.078 82.8347 136.036C82.8347 135.753 82.879 135.493 82.9677 135.256C83.0623 135.02 83.1834 134.801 83.3312 134.6C83.479 134.393 83.6445 134.201 83.8278 134.024C84.0169 133.846 84.2031 133.669 84.3864 133.492C84.5282 133.356 84.6612 133.229 84.7854 133.11C84.9095 132.986 85.0189 132.868 85.1135 132.756C85.208 132.638 85.2819 132.522 85.3351 132.41C85.3883 132.292 85.4149 132.174 85.4149 132.055C85.4149 131.795 85.341 131.612 85.1933 131.506C85.0455 131.399 84.8622 131.346 84.6435 131.346C84.4839 131.346 84.3332 131.373 84.1913 131.426C84.0553 131.473 83.9283 131.532 83.81 131.603C83.6977 131.668 83.6002 131.736 83.5174 131.807C83.4347 131.872 83.3726 131.925 83.3312 131.967L82.6751 131.044C82.9352 130.802 83.2366 130.604 83.5795 130.45C83.9283 130.291 84.3007 130.211 84.6967 130.211C85.0573 130.211 85.3676 130.252 85.6277 130.335C85.8878 130.418 86.1006 130.536 86.2661 130.69C86.4376 130.838 86.5617 131.021 86.6385 131.24C86.7213 131.452 86.7627 131.695 86.7627 131.967ZM89.3195 132.649C89.3195 132.915 89.2338 133.119 89.0624 133.261C88.8969 133.397 88.7077 133.465 88.4949 133.465C88.2821 133.465 88.09 133.397 87.9186 133.261C87.753 133.119 87.6703 132.915 87.6703 132.649C87.6703 132.383 87.753 132.182 87.9186 132.046C88.09 131.905 88.2821 131.834 88.4949 131.834C88.7077 131.834 88.8969 131.905 89.0624 132.046C89.2338 132.182 89.3195 132.383 89.3195 132.649ZM89.3195 135.797C89.3195 136.063 89.2338 136.267 89.0624 136.409C88.8969 136.545 88.7077 136.613 88.4949 136.613C88.2821 136.613 88.09 136.545 87.9186 136.409C87.753 136.267 87.6703 136.063 87.6703 135.797C87.6703 135.531 87.753 135.33 87.9186 135.194C88.09 135.052 88.2821 134.981 88.4949 134.981C88.7077 134.981 88.8969 135.052 89.0624 135.194C89.2338 135.33 89.3195 135.531 89.3195 135.797ZM94.3212 133.412C94.3212 134.446 94.1232 135.241 93.7272 135.797C93.337 136.347 92.7961 136.622 92.1045 136.622C91.4129 136.622 90.8691 136.347 90.473 135.797C90.0829 135.241 89.8878 134.446 89.8878 133.412C89.8878 132.898 89.9381 132.442 90.0386 132.046C90.145 131.65 90.2957 131.316 90.4908 131.044C90.6858 130.773 90.9193 130.566 91.1912 130.424C91.4632 130.282 91.7676 130.211 92.1045 130.211C92.7961 130.211 93.337 130.489 93.7272 131.044C94.1232 131.594 94.3212 132.383 94.3212 133.412ZM92.9735 133.412C92.9735 133.105 92.9587 132.827 92.9291 132.578C92.8996 132.324 92.8523 132.106 92.7873 131.922C92.7222 131.739 92.6336 131.597 92.5213 131.497C92.409 131.396 92.27 131.346 92.1045 131.346C91.939 131.346 91.8001 131.396 91.6878 131.497C91.5814 131.597 91.4927 131.739 91.4218 131.922C91.3568 132.106 91.3095 132.324 91.2799 132.578C91.2504 132.827 91.2356 133.105 91.2356 133.412C91.2356 133.719 91.2504 134 91.2799 134.254C91.3095 134.508 91.3568 134.727 91.4218 134.91C91.4927 135.094 91.5814 135.236 91.6878 135.336C91.8001 135.436 91.939 135.487 92.1045 135.487C92.27 135.487 92.409 135.436 92.5213 135.336C92.6336 135.236 92.7222 135.094 92.7873 134.91C92.8523 134.727 92.8996 134.508 92.9291 134.254C92.9587 134 92.9735 133.719 92.9735 133.412ZM99.3608 133.412C99.3608 134.446 99.1627 135.241 98.7667 135.797C98.3766 136.347 97.8357 136.622 97.1441 136.622C96.4525 136.622 95.9086 136.347 95.5126 135.797C95.1224 135.241 94.9274 134.446 94.9274 133.412C94.9274 132.898 94.9776 132.442 95.0781 132.046C95.1845 131.65 95.3352 131.316 95.5303 131.044C95.7254 130.773 95.9589 130.566 96.2308 130.424C96.5027 130.282 96.8071 130.211 97.1441 130.211C97.8357 130.211 98.3766 130.489 98.7667 131.044C99.1627 131.594 99.3608 132.383 99.3608 133.412ZM98.013 133.412C98.013 133.105 97.9982 132.827 97.9687 132.578C97.9391 132.324 97.8918 132.106 97.8268 131.922C97.7618 131.739 97.6731 131.597 97.5608 131.497C97.4485 131.396 97.3096 131.346 97.1441 131.346C96.9786 131.346 96.8396 131.396 96.7273 131.497C96.6209 131.597 96.5323 131.739 96.4613 131.922C96.3963 132.106 96.349 132.324 96.3195 132.578C96.2899 132.827 96.2751 133.105 96.2751 133.412C96.2751 133.719 96.2899 134 96.3195 134.254C96.349 134.508 96.3963 134.727 96.4613 134.91C96.5323 135.094 96.6209 135.236 96.7273 135.336C96.8396 135.436 96.9786 135.487 97.1441 135.487C97.3096 135.487 97.4485 135.436 97.5608 135.336C97.6731 135.236 97.7618 135.094 97.8268 134.91C97.8918 134.727 97.9391 134.508 97.9687 134.254C97.9982 134 98.013 133.719 98.013 133.412Z" fill="black"/>
</g>
<rect x="54.9424" y="116.5" width="254" height="360" rx="20.5" stroke="#8807F7"/>
<rect x="55.4424" y="40" width="22" height="32" rx="11" fill="#8807F7"/>
<path d="M69.3784 53.824C69.3784 54.2293 69.2984 54.6187 69.1384 54.992C68.9784 55.3653 68.7704 55.728 68.5144 56.08C68.2584 56.4213 67.9704 56.752 67.6504 57.072C67.3304 57.392 67.0157 57.696 66.7064 57.984C66.5464 58.1333 66.3704 58.304 66.1784 58.496C65.997 58.6773 65.821 58.864 65.6504 59.056C65.4797 59.248 65.325 59.4293 65.1864 59.6C65.0584 59.76 64.9784 59.8933 64.9464 60H69.7144V62H62.3224C62.301 61.8827 62.2904 61.7333 62.2904 61.552C62.2904 61.3707 62.2904 61.2427 62.2904 61.168C62.2904 60.656 62.3704 60.1867 62.5304 59.76C62.701 59.3333 62.9197 58.9387 63.1864 58.576C63.453 58.2027 63.7517 57.856 64.0824 57.536C64.4237 57.216 64.7597 56.896 65.0904 56.576C65.3464 56.3307 65.5864 56.1013 65.8104 55.888C66.0344 55.664 66.2317 55.4507 66.4024 55.248C66.573 55.0347 66.7064 54.8267 66.8024 54.624C66.8984 54.4107 66.9464 54.1973 66.9464 53.984C66.9464 53.5147 66.813 53.184 66.5464 52.992C66.2797 52.8 65.949 52.704 65.5544 52.704C65.2664 52.704 64.9944 52.752 64.7384 52.848C64.493 52.9333 64.2637 53.04 64.0504 53.168C63.8477 53.2853 63.6717 53.408 63.5224 53.536C63.373 53.6533 63.261 53.7493 63.1864 53.824L62.0024 52.16C62.4717 51.7227 63.0157 51.3653 63.6344 51.088C64.2637 50.8 64.9357 50.656 65.6504 50.656C66.301 50.656 66.861 50.7307 67.3304 50.88C67.7997 51.0293 68.1837 51.2427 68.4824 51.52C68.7917 51.7867 69.0157 52.1173 69.1544 52.512C69.3037 52.896 69.3784 53.3333 69.3784 53.824Z" fill="white"/>
<path d="M96.9564 59.684C97.591 59.684 98.053 59.5767 98.3424 59.362C98.6317 59.1473 98.7764 58.844 98.7764 58.452C98.7764 58.2187 98.725 58.018 98.6224 57.85C98.529 57.682 98.389 57.5327 98.2024 57.402C98.025 57.262 97.8057 57.136 97.5444 57.024C97.283 56.9027 96.9844 56.786 96.6484 56.674C96.3124 56.5527 95.9857 56.422 95.6684 56.282C95.3604 56.1327 95.085 55.9507 94.8424 55.736C94.609 55.5213 94.4177 55.2647 94.2684 54.966C94.1284 54.6673 94.0584 54.308 94.0584 53.888C94.0584 53.0107 94.3617 52.3247 94.9684 51.83C95.575 51.326 96.401 51.074 97.4464 51.074C98.053 51.074 98.5897 51.144 99.0564 51.284C99.5324 51.4147 99.9057 51.5593 100.176 51.718L99.6304 53.146C99.313 52.9687 98.963 52.8333 98.5804 52.74C98.207 52.6467 97.8197 52.6 97.4184 52.6C96.9424 52.6 96.569 52.698 96.2984 52.894C96.037 53.09 95.9064 53.3653 95.9064 53.72C95.9064 53.9347 95.9484 54.1213 96.0324 54.28C96.1257 54.4293 96.2517 54.5647 96.4104 54.686C96.5784 54.8073 96.7697 54.9193 96.9844 55.022C97.2084 55.1247 97.451 55.2227 97.7124 55.316C98.1697 55.484 98.5757 55.6567 98.9304 55.834C99.2944 56.002 99.5977 56.2073 99.8404 56.45C100.092 56.6833 100.284 56.9633 100.414 57.29C100.545 57.6073 100.61 57.9947 100.61 58.452C100.61 59.3293 100.298 60.0107 99.6724 60.496C99.0564 60.972 98.151 61.21 96.9564 61.21C96.555 61.21 96.1864 61.182 95.8504 61.126C95.5237 61.0793 95.2297 61.0187 94.9684 60.944C94.7164 60.8693 94.497 60.7947 94.3104 60.72C94.1237 60.636 93.9744 60.5613 93.8624 60.496L94.3804 59.054C94.6324 59.194 94.973 59.334 95.4024 59.474C95.8317 59.614 96.3497 59.684 96.9564 59.684ZM102.165 61V51.298H108.395V52.796H103.929V55.19H107.905V56.66H103.929V59.502H108.731V61H102.165ZM117.13 51.298V52.824H114.148V61H112.37V52.824H109.388V51.298H117.13ZM125.005 55.596C125.425 54.896 125.836 54.1867 126.237 53.468C126.638 52.7493 127.002 52.026 127.329 51.298H129.289C128.766 52.2873 128.22 53.272 127.651 54.252C127.091 55.2227 126.489 56.2027 125.845 57.192V61H124.081V57.22C123.437 56.2213 122.83 55.232 122.261 54.252C121.692 53.272 121.146 52.2873 120.623 51.298H122.695C123.022 52.026 123.381 52.7493 123.773 53.468C124.165 54.1867 124.576 54.896 125.005 55.596ZM131.429 56.142C131.429 56.674 131.495 57.1593 131.625 57.598C131.756 58.0273 131.943 58.396 132.185 58.704C132.437 59.0027 132.741 59.236 133.095 59.404C133.45 59.572 133.851 59.656 134.299 59.656C134.738 59.656 135.135 59.572 135.489 59.404C135.844 59.236 136.143 59.0027 136.385 58.704C136.637 58.396 136.829 58.0273 136.959 57.598C137.09 57.1593 137.155 56.674 137.155 56.142C137.155 55.61 137.09 55.1293 136.959 54.7C136.829 54.2613 136.637 53.8927 136.385 53.594C136.143 53.286 135.844 53.048 135.489 52.88C135.135 52.712 134.738 52.628 134.299 52.628C133.851 52.628 133.45 52.712 133.095 52.88C132.741 53.048 132.437 53.286 132.185 53.594C131.943 53.902 131.756 54.2707 131.625 54.7C131.495 55.1293 131.429 55.61 131.429 56.142ZM139.003 56.142C139.003 56.9727 138.877 57.7053 138.625 58.34C138.383 58.9747 138.047 59.5067 137.617 59.936C137.197 60.356 136.703 60.6733 136.133 60.888C135.564 61.1027 134.957 61.21 134.313 61.21C133.669 61.21 133.058 61.1027 132.479 60.888C131.91 60.6733 131.411 60.356 130.981 59.936C130.561 59.5067 130.225 58.9747 129.973 58.34C129.721 57.7053 129.595 56.9727 129.595 56.142C129.595 55.3113 129.721 54.5833 129.973 53.958C130.225 53.3233 130.566 52.7913 130.995 52.362C131.434 51.9327 131.938 51.6107 132.507 51.396C133.077 51.1813 133.679 51.074 134.313 51.074C134.948 51.074 135.55 51.1813 136.119 51.396C136.689 51.6107 137.183 51.9327 137.603 52.362C138.033 52.7913 138.373 53.3233 138.625 53.958C138.877 54.5833 139.003 55.3113 139.003 56.142ZM144.676 61.21C144.014 61.21 143.444 61.1167 142.968 60.93C142.492 60.734 142.096 60.4633 141.778 60.118C141.47 59.7727 141.242 59.3667 141.092 58.9C140.943 58.4333 140.868 57.92 140.868 57.36V51.298H142.646V57.192C142.646 57.6307 142.693 58.0087 142.786 58.326C142.889 58.634 143.029 58.886 143.206 59.082C143.393 59.278 143.608 59.4227 143.85 59.516C144.102 59.6093 144.382 59.656 144.69 59.656C144.998 59.656 145.278 59.6093 145.53 59.516C145.782 59.4227 145.997 59.278 146.174 59.082C146.361 58.886 146.501 58.634 146.594 58.326C146.697 58.0087 146.748 57.6307 146.748 57.192V51.298H148.526V57.36C148.526 57.92 148.447 58.4333 148.288 58.9C148.139 59.3667 147.906 59.7727 147.588 60.118C147.28 60.4633 146.884 60.734 146.398 60.93C145.913 61.1167 145.339 61.21 144.676 61.21ZM153.456 51.2C154.856 51.2 155.925 51.4567 156.662 51.97C157.409 52.4833 157.782 53.2673 157.782 54.322C157.782 55.638 157.133 56.5293 155.836 56.996C156.013 57.2107 156.214 57.472 156.438 57.78C156.662 58.088 156.891 58.424 157.124 58.788C157.357 59.1427 157.581 59.5113 157.796 59.894C158.011 60.2673 158.202 60.636 158.37 61H156.396C156.219 60.664 156.027 60.328 155.822 59.992C155.617 59.6467 155.407 59.3153 155.192 58.998C154.987 58.6713 154.781 58.368 154.576 58.088C154.371 57.7987 154.179 57.542 154.002 57.318C153.871 57.3273 153.759 57.332 153.666 57.332C153.573 57.332 153.484 57.332 153.4 57.332H152.546V61H150.782V51.438C151.211 51.3447 151.669 51.284 152.154 51.256C152.639 51.2187 153.073 51.2 153.456 51.2ZM153.582 52.726C153.209 52.726 152.863 52.74 152.546 52.768V55.904H153.316C153.745 55.904 154.123 55.8807 154.45 55.834C154.777 55.7873 155.047 55.7033 155.262 55.582C155.486 55.4607 155.654 55.2973 155.766 55.092C155.878 54.8867 155.934 54.6253 155.934 54.308C155.934 54.0093 155.878 53.7573 155.766 53.552C155.654 53.3467 155.491 53.1833 155.276 53.062C155.071 52.9407 154.823 52.8567 154.534 52.81C154.245 52.754 153.927 52.726 153.582 52.726ZM169.767 51.298V52.824H166.785V61H165.007V52.824H162.025V51.298H169.767ZM176.759 61C176.629 60.6173 176.493 60.2393 176.353 59.866C176.213 59.4927 176.078 59.11 175.947 58.718H171.859C171.729 59.11 171.593 59.4973 171.453 59.88C171.323 60.2533 171.192 60.6267 171.061 61H169.227C169.591 59.964 169.937 59.0073 170.263 58.13C170.59 57.2527 170.907 56.422 171.215 55.638C171.533 54.854 171.845 54.1073 172.153 53.398C172.461 52.6887 172.779 51.9887 173.105 51.298H174.771C175.098 51.9887 175.415 52.6887 175.723 53.398C176.031 54.1073 176.339 54.854 176.647 55.638C176.965 56.422 177.287 57.2527 177.613 58.13C177.949 59.0073 178.299 59.964 178.663 61H176.759ZM173.903 53.174C173.689 53.6687 173.441 54.2707 173.161 54.98C172.891 55.6893 172.606 56.4593 172.307 57.29H175.499C175.201 56.4593 174.911 55.6847 174.631 54.966C174.351 54.2473 174.109 53.65 173.903 53.174ZM182.564 51.2C183.964 51.2 185.032 51.4567 185.77 51.97C186.516 52.4833 186.89 53.2673 186.89 54.322C186.89 55.638 186.241 56.5293 184.944 56.996C185.121 57.2107 185.322 57.472 185.546 57.78C185.77 58.088 185.998 58.424 186.232 58.788C186.465 59.1427 186.689 59.5113 186.904 59.894C187.118 60.2673 187.31 60.636 187.478 61H185.504C185.326 60.664 185.135 60.328 184.93 59.992C184.724 59.6467 184.514 59.3153 184.3 58.998C184.094 58.6713 183.889 58.368 183.684 58.088C183.478 57.7987 183.287 57.542 183.11 57.318C182.979 57.3273 182.867 57.332 182.774 57.332C182.68 57.332 182.592 57.332 182.508 57.332H181.654V61H179.89V51.438C180.319 51.3447 180.776 51.284 181.262 51.256C181.747 51.2187 182.181 51.2 182.564 51.2ZM182.69 52.726C182.316 52.726 181.971 52.74 181.654 52.768V55.904H182.424C182.853 55.904 183.231 55.8807 183.558 55.834C183.884 55.7873 184.155 55.7033 184.37 55.582C184.594 55.4607 184.762 55.2973 184.874 55.092C184.986 54.8867 185.042 54.6253 185.042 54.308C185.042 54.0093 184.986 53.7573 184.874 53.552C184.762 53.3467 184.598 53.1833 184.384 53.062C184.178 52.9407 183.931 52.8567 183.642 52.81C183.352 52.754 183.035 52.726 182.69 52.726ZM193.258 52.628C192.259 52.628 191.494 52.9407 190.962 53.566C190.439 54.182 190.178 55.0407 190.178 56.142C190.178 56.6647 190.238 57.1453 190.36 57.584C190.49 58.0133 190.677 58.382 190.92 58.69C191.172 58.998 191.48 59.2407 191.844 59.418C192.217 59.586 192.651 59.67 193.146 59.67C193.454 59.67 193.72 59.6607 193.944 59.642C194.168 59.614 194.345 59.5813 194.476 59.544V56.058H196.24V60.72C195.997 60.8133 195.586 60.916 195.008 61.028C194.429 61.14 193.762 61.196 193.006 61.196C192.306 61.196 191.666 61.084 191.088 60.86C190.509 60.636 190.014 60.3093 189.604 59.88C189.202 59.4507 188.89 58.9233 188.666 58.298C188.442 57.6727 188.33 56.954 188.33 56.142C188.33 55.33 188.451 54.6113 188.694 53.986C188.946 53.3607 189.286 52.8333 189.716 52.404C190.145 51.9653 190.649 51.634 191.228 51.41C191.806 51.186 192.422 51.074 193.076 51.074C193.524 51.074 193.92 51.1067 194.266 51.172C194.62 51.228 194.924 51.2933 195.176 51.368C195.428 51.4427 195.633 51.522 195.792 51.606C195.96 51.69 196.076 51.7507 196.142 51.788L195.61 53.23C195.33 53.062 194.98 52.922 194.56 52.81C194.149 52.6887 193.715 52.628 193.258 52.628ZM198.278 61V51.298H204.508V52.796H200.042V55.19H204.018V56.66H200.042V59.502H204.844V61H198.278ZM213.243 51.298V52.824H210.261V61H208.483V52.824H205.501V51.298H213.243ZM224.296 61C224.166 60.6173 224.03 60.2393 223.89 59.866C223.75 59.4927 223.615 59.11 223.484 58.718H219.396C219.266 59.11 219.13 59.4973 218.99 59.88C218.86 60.2533 218.729 60.6267 218.598 61H216.764C217.128 59.964 217.474 59.0073 217.8 58.13C218.127 57.2527 218.444 56.422 218.752 55.638C219.07 54.854 219.382 54.1073 219.69 53.398C219.998 52.6887 220.316 51.9887 220.642 51.298H222.308C222.635 51.9887 222.952 52.6887 223.26 53.398C223.568 54.1073 223.876 54.854 224.184 55.638C224.502 56.422 224.824 57.2527 225.15 58.13C225.486 59.0073 225.836 59.964 226.2 61H224.296ZM221.44 53.174C221.226 53.6687 220.978 54.2707 220.698 54.98C220.428 55.6893 220.143 56.4593 219.844 57.29H223.036C222.738 56.4593 222.448 55.6847 222.168 54.966C221.888 54.2473 221.646 53.65 221.44 53.174ZM229.541 51.298C229.746 51.6527 229.975 52.0867 230.227 52.6C230.479 53.1133 230.735 53.6547 230.997 54.224C231.258 54.784 231.515 55.358 231.767 55.946C232.028 56.5247 232.266 57.0613 232.481 57.556C232.695 57.0613 232.929 56.5247 233.181 55.946C233.433 55.358 233.689 54.784 233.951 54.224C234.212 53.6547 234.469 53.1133 234.721 52.6C234.973 52.0867 235.201 51.6527 235.407 51.298H237.003C237.087 52.0073 237.166 52.7633 237.241 53.566C237.315 54.3593 237.381 55.176 237.437 56.016C237.502 56.8467 237.558 57.6867 237.605 58.536C237.661 59.376 237.707 60.1973 237.745 61H236.009C235.971 59.8707 235.925 58.7087 235.869 57.514C235.822 56.3193 235.747 55.162 235.645 54.042C235.542 54.2567 235.421 54.5133 235.281 54.812C235.141 55.1107 234.991 55.4373 234.833 55.792C234.674 56.1373 234.511 56.4967 234.343 56.87C234.184 57.2433 234.025 57.6073 233.867 57.962C233.717 58.3073 233.577 58.634 233.447 58.942C233.316 59.2407 233.204 59.4973 233.111 59.712H231.795C231.701 59.4973 231.589 59.236 231.459 58.928C231.328 58.62 231.183 58.2933 231.025 57.948C230.875 57.5933 230.717 57.2293 230.549 56.856C230.39 56.4827 230.231 56.1233 230.073 55.778C229.914 55.4327 229.765 55.1107 229.625 54.812C229.485 54.504 229.363 54.2473 229.261 54.042C229.158 55.162 229.079 56.3193 229.023 57.514C228.976 58.7087 228.934 59.8707 228.897 61H227.161C227.198 60.1973 227.24 59.3667 227.287 58.508C227.343 57.6493 227.399 56.8 227.455 55.96C227.52 55.1107 227.59 54.2893 227.665 53.496C227.739 52.7027 227.819 51.97 227.903 51.298H229.541ZM241.242 56.142C241.242 56.674 241.307 57.1593 241.438 57.598C241.568 58.0273 241.755 58.396 241.998 58.704C242.25 59.0027 242.553 59.236 242.908 59.404C243.262 59.572 243.664 59.656 244.112 59.656C244.55 59.656 244.947 59.572 245.302 59.404C245.656 59.236 245.955 59.0027 246.198 58.704C246.45 58.396 246.641 58.0273 246.772 57.598C246.902 57.1593 246.968 56.674 246.968 56.142C246.968 55.61 246.902 55.1293 246.772 54.7C246.641 54.2613 246.45 53.8927 246.198 53.594C245.955 53.286 245.656 53.048 245.302 52.88C244.947 52.712 244.55 52.628 244.112 52.628C243.664 52.628 243.262 52.712 242.908 52.88C242.553 53.048 242.25 53.286 241.998 53.594C241.755 53.902 241.568 54.2707 241.438 54.7C241.307 55.1293 241.242 55.61 241.242 56.142ZM248.816 56.142C248.816 56.9727 248.69 57.7053 248.438 58.34C248.195 58.9747 247.859 59.5067 247.43 59.936C247.01 60.356 246.515 60.6733 245.946 60.888C245.376 61.1027 244.77 61.21 244.126 61.21C243.482 61.21 242.87 61.1027 242.292 60.888C241.722 60.6733 241.223 60.356 240.794 59.936C240.374 59.5067 240.038 58.9747 239.786 58.34C239.534 57.7053 239.408 56.9727 239.408 56.142C239.408 55.3113 239.534 54.5833 239.786 53.958C240.038 53.3233 240.378 52.7913 240.808 52.362C241.246 51.9327 241.75 51.6107 242.32 51.396C242.889 51.1813 243.491 51.074 244.126 51.074C244.76 51.074 245.362 51.1813 245.932 51.396C246.501 51.6107 246.996 51.9327 247.416 52.362C247.845 52.7913 248.186 53.3233 248.438 53.958C248.69 54.5833 248.816 55.3113 248.816 56.142ZM254.489 61.21C253.826 61.21 253.257 61.1167 252.781 60.93C252.305 60.734 251.908 60.4633 251.591 60.118C251.283 59.7727 251.054 59.3667 250.905 58.9C250.756 58.4333 250.681 57.92 250.681 57.36V51.298H252.459V57.192C252.459 57.6307 252.506 58.0087 252.599 58.326C252.702 58.634 252.842 58.886 253.019 59.082C253.206 59.278 253.42 59.4227 253.663 59.516C253.915 59.6093 254.195 59.656 254.503 59.656C254.811 59.656 255.091 59.6093 255.343 59.516C255.595 59.4227 255.81 59.278 255.987 59.082C256.174 58.886 256.314 58.634 256.407 58.326C256.51 58.0087 256.561 57.6307 256.561 57.192V51.298H258.339V57.36C258.339 57.92 258.26 58.4333 258.101 58.9C257.952 59.3667 257.718 59.7727 257.401 60.118C257.093 60.4633 256.696 60.734 256.211 60.93C255.726 61.1167 255.152 61.21 254.489 61.21ZM267.133 61C266.815 60.468 266.461 59.8987 266.069 59.292C265.677 58.676 265.271 58.06 264.851 57.444C264.431 56.8187 264.001 56.2167 263.563 55.638C263.133 55.05 262.723 54.5227 262.331 54.056V61H260.595V51.298H262.037C262.41 51.69 262.811 52.1567 263.241 52.698C263.67 53.23 264.099 53.7853 264.529 54.364C264.967 54.9427 265.387 55.526 265.789 56.114C266.199 56.6927 266.563 57.234 266.881 57.738V51.298H268.631V61H267.133ZM277.72 51.298V52.824H274.738V61H272.96V52.824H269.978V51.298H277.72Z" fill="black"/>
</g>
<defs>
<filter id="filter0_d_241_817" x="269.632" y="192.584" width="22.6476" height="22.6476" filterUnits="userSpaceOnUse" color-interpolation-filters="sRGB">
<feFlood flood-opacity="0" result="BackgroundImageFix"/>
<feColorMatrix in="SourceAlpha" type="matrix" values="0 0 0 0 0 0 0 0 0 0 0 0 0 0 0 0 0 0 127 0" result="hardAlpha"/>
<feOffset dy="1.8118"/>
<feGaussianBlur stdDeviation="2.26475"/>
<feComposite in2="hardAlpha" operator="out"/>
<feColorMatrix type="matrix" values="0 0 0 0 0.533333 0 0 0 0 0.027451 0 0 0 0 0.968627 0 0 0 0.07 0"/>
<feBlend mode="normal" in2="BackgroundImageFix" result="effect1_dropShadow_241_817"/>
<feBlend mode="normal" in="SourceGraphic" in2="effect1_dropShadow_241_817" result="shape"/>
</filter>
<filter id="filter1_d_241_817" x="104.667" y="192.937" width="23.0466" height="23.0466" filterUnits="userSpaceOnUse" color-interpolation-filters="sRGB">
<feFlood flood-opacity="0" result="BackgroundImageFix"/>
<feColorMatrix in="SourceAlpha" type="matrix" values="0 0 0 0 0 0 0 0 0 0 0 0 0 0 0 0 0 0 127 0" result="hardAlpha"/>
<feOffset dy="2.36449"/>
<feGaussianBlur stdDeviation="2.36449"/>
<feComposite in2="hardAlpha" operator="out"/>
<feColorMatrix type="matrix" values="0 0 0 0 0.412084 0 0 0 0 0 0 0 0 0 0.766667 0 0 0 0.12 0"/>
<feBlend mode="normal" in2="BackgroundImageFix" result="effect1_dropShadow_241_817"/>
<feBlend mode="normal" in="SourceGraphic" in2="effect1_dropShadow_241_817" result="shape"/>
</filter>
<filter id="filter2_d_241_817" x="214.204" y="191.688" width="23.5341" height="23.5341" filterUnits="userSpaceOnUse" color-interpolation-filters="sRGB">
<feFlood flood-opacity="0" result="BackgroundImageFix"/>
<feColorMatrix in="SourceAlpha" type="matrix" values="0 0 0 0 0 0 0 0 0 0 0 0 0 0 0 0 0 0 127 0" result="hardAlpha"/>
<feOffset dy="1.8118"/>
<feGaussianBlur stdDeviation="2.26475"/>
<feComposite in2="hardAlpha" operator="out"/>
<feColorMatrix type="matrix" values="0 0 0 0 0.533333 0 0 0 0 0.027451 0 0 0 0 0.968627 0 0 0 0.07 0"/>
<feBlend mode="normal" in2="BackgroundImageFix" result="effect1_dropShadow_241_817"/>
<feBlend mode="normal" in="SourceGraphic" in2="effect1_dropShadow_241_817" result="shape"/>
</filter>
<filter id="filter3_f_241_817" x="147.655" y="186.427" width="46.1074" height="39.6052" filterUnits="userSpaceOnUse" color-interpolation-filters="sRGB">
<feFlood flood-opacity="0" result="BackgroundImageFix"/>
<feBlend mode="normal" in="SourceGraphic" in2="BackgroundImageFix" result="shape"/>
<feGaussianBlur stdDeviation="8.86682" result="effect1_foregroundBlur_241_817"/>
</filter>
<filter id="filter4_d_241_817" x="159.235" y="192.141" width="23.5341" height="23.5341" filterUnits="userSpaceOnUse" color-interpolation-filters="sRGB">
<feFlood flood-opacity="0" result="BackgroundImageFix"/>
<feColorMatrix in="SourceAlpha" type="matrix" values="0 0 0 0 0 0 0 0 0 0 0 0 0 0 0 0 0 0 127 0" result="hardAlpha"/>
<feOffset dy="1.8118"/>
<feGaussianBlur stdDeviation="2.26475"/>
<feComposite in2="hardAlpha" operator="out"/>
<feColorMatrix type="matrix" values="0 0 0 0 0.533333 0 0 0 0 0.027451 0 0 0 0 0.968627 0 0 0 0.07 0"/>
<feBlend mode="normal" in2="BackgroundImageFix" result="effect1_dropShadow_241_817"/>
<feBlend mode="normal" in="SourceGraphic" in2="effect1_dropShadow_241_817" result="shape"/>
</filter>
<clipPath id="clip0_241_817">
<rect x="0.442383" width="364" height="458" rx="16" fill="white"/>
</clipPath>
<clipPath id="clip1_241_817">
<rect x="55.4424" y="117" width="253" height="359" rx="20" fill="white"/>
</clipPath>
<clipPath id="clip2_241_817">
<rect width="7.70016" height="7.70016" fill="white" transform="matrix(-1 0 0 1 285.036 198.02)"/>
</clipPath>
<clipPath id="clip3_241_817">
<rect width="7.70016" height="7.70016" fill="white" transform="matrix(-1 0 0 1 119.81 198.246)"/>
</clipPath>
<clipPath id="clip4_241_817">
<rect width="10.6402" height="4.13785" fill="white" transform="matrix(-1 0 0 1 176.028 204.161)"/>
</clipPath>
<clipPath id="clip5_241_817">
<rect width="7.70016" height="7.70016" fill="white" transform="matrix(-1 0 0 1 174.622 198.472)"/>
</clipPath>
</defs>
</svg>
